<svg width="220" height="244" viewBox="0 0 220 244" fill="none" xmlns="http://www.w3.org/2000/svg">
<path d="M19.2636 207.464V212.768H17.6076V209H2.67959L2.65559 212.768H0.999594L1.02359 207.464H3.13559V199.28C3.13559 196.944 3.75959 195.16 5.00759 193.928C6.27159 192.68 7.98359 192.056 10.1436 192.056C12.3036 192.056 14.0076 192.68 15.2556 193.928C16.5196 195.16 17.1516 196.944 17.1516 199.28V207.464H19.2636ZM15.3756 207.464V199.112C15.3756 197.304 14.9116 195.944 13.9836 195.032C13.0716 194.104 11.7916 193.64 10.1436 193.64C8.47959 193.64 7.18359 194.104 6.25559 195.032C5.34359 195.944 4.88759 197.304 4.88759 199.112V207.464H15.3756ZM27.694 207.608C28.478 207.608 29.198 207.472 29.854 207.2C30.526 206.912 31.094 206.496 31.558 205.952L32.518 207.056C31.958 207.728 31.262 208.24 30.43 208.592C29.598 208.944 28.678 209.12 27.67 209.12C26.374 209.12 25.222 208.848 24.214 208.304C23.206 207.744 22.422 206.976 21.862 206C21.302 205.024 21.022 203.92 21.022 202.688C21.022 201.456 21.286 200.352 21.814 199.376C22.358 198.4 23.102 197.64 24.046 197.096C24.99 196.552 26.062 196.28 27.262 196.28C28.382 196.28 29.39 196.536 30.286 197.048C31.198 197.56 31.918 198.272 32.446 199.184C32.99 200.096 33.278 201.136 33.31 202.304L22.942 204.32C23.262 205.344 23.838 206.152 24.67 206.744C25.518 207.32 26.526 207.608 27.694 207.608ZM27.262 197.744C26.382 197.744 25.59 197.952 24.886 198.368C24.198 198.768 23.654 199.336 23.254 200.072C22.87 200.792 22.678 201.624 22.678 202.568C22.678 202.808 22.686 202.984 22.702 203.096L31.606 201.368C31.414 200.312 30.926 199.448 30.142 198.776C29.358 198.088 28.398 197.744 27.262 197.744ZM50.9383 196.376V209H49.3783V199.016L44.2663 207.464H43.4983L38.3863 198.992V209H36.8263V196.376H38.5543L43.9063 205.472L49.3543 196.376H50.9383ZM60.9953 209.12C59.7793 209.12 58.6833 208.848 57.7073 208.304C56.7313 207.744 55.9633 206.976 55.4033 206C54.8433 205.024 54.5633 203.92 54.5633 202.688C54.5633 201.456 54.8433 200.352 55.4033 199.376C55.9633 198.4 56.7313 197.64 57.7073 197.096C58.6833 196.552 59.7793 196.28 60.9953 196.28C62.2113 196.28 63.3073 196.552 64.2833 197.096C65.2593 197.64 66.0193 198.4 66.5633 199.376C67.1233 200.352 67.4033 201.456 67.4033 202.688C67.4033 203.92 67.1233 205.024 66.5633 206C66.0193 206.976 65.2593 207.744 64.2833 208.304C63.3073 208.848 62.2113 209.12 60.9953 209.12ZM60.9953 207.608C61.8913 207.608 62.6913 207.408 63.3953 207.008C64.1153 206.592 64.6753 206.008 65.0753 205.256C65.4753 204.504 65.6753 203.648 65.6753 202.688C65.6753 201.728 65.4753 200.872 65.0753 200.12C64.6753 199.368 64.1153 198.792 63.3953 198.392C62.6913 197.976 61.8913 197.768 60.9953 197.768C60.0993 197.768 59.2913 197.976 58.5713 198.392C57.8673 198.792 57.3073 199.368 56.8913 200.12C56.4913 200.872 56.2913 201.728 56.2913 202.688C56.2913 203.648 56.4913 204.504 56.8913 205.256C57.3073 206.008 57.8673 206.592 58.5713 207.008C59.2913 207.408 60.0993 207.608 60.9953 207.608ZM75.6291 203.384H72.7491V209H71.0451V196.376H72.7491V201.92H75.6531L80.0931 196.376H81.9411L76.9731 202.496L82.3011 209H80.2851L75.6291 203.384ZM90.7984 196.28C92.0304 196.28 93.1264 196.552 94.0864 197.096C95.0464 197.64 95.7904 198.4 96.3184 199.376C96.8624 200.352 97.1344 201.464 97.1344 202.712C97.1344 203.96 96.8704 205.072 96.3424 206.048C95.8144 207.008 95.0784 207.76 94.1344 208.304C93.2064 208.848 92.1424 209.12 90.9424 209.12C89.8864 209.12 88.9424 208.912 88.1104 208.496C87.2944 208.064 86.6304 207.448 86.1184 206.648V213.656H84.4144V202.736C84.4144 201.472 84.6784 200.352 85.2064 199.376C85.7504 198.4 86.5024 197.64 87.4624 197.096C88.4384 196.552 89.5504 196.28 90.7984 196.28ZM90.7504 207.632C91.6464 207.632 92.4544 207.424 93.1744 207.008C93.8944 206.592 94.4544 206.008 94.8544 205.256C95.2544 204.504 95.4544 203.656 95.4544 202.712C95.4544 201.768 95.2544 200.92 94.8544 200.168C94.4544 199.416 93.8944 198.832 93.1744 198.416C92.4544 197.984 91.6464 197.768 90.7504 197.768C89.8544 197.768 89.0464 197.976 88.3264 198.392C87.6224 198.808 87.0704 199.392 86.6704 200.144C86.2864 200.88 86.0944 201.728 86.0944 202.688C86.0944 203.648 86.2864 204.504 86.6704 205.256C87.0704 206.008 87.6224 206.592 88.3264 207.008C89.0464 207.424 89.8544 207.632 90.7504 207.632ZM112.283 196.376V209H110.651V206.504C110.139 207.352 109.459 208 108.611 208.448C107.779 208.896 106.835 209.12 105.779 209.12C104.595 209.12 103.523 208.848 102.563 208.304C101.603 207.76 100.851 207 100.307 206.024C99.7627 205.048 99.4907 203.936 99.4907 202.688C99.4907 201.44 99.7627 200.328 100.307 199.352C100.851 198.376 101.603 197.624 102.563 197.096C103.523 196.552 104.595 196.28 105.779 196.28C106.803 196.28 107.723 196.496 108.539 196.928C109.371 197.344 110.051 197.96 110.579 198.776V196.376H112.283ZM105.923 207.608C106.803 207.608 107.595 207.408 108.299 207.008C109.019 206.592 109.579 206.008 109.979 205.256C110.395 204.504 110.603 203.648 110.603 202.688C110.603 201.728 110.395 200.872 109.979 200.12C109.579 199.368 109.019 198.792 108.299 198.392C107.595 197.976 106.803 197.768 105.923 197.768C105.027 197.768 104.219 197.976 103.499 198.392C102.795 198.792 102.235 199.368 101.819 200.12C101.419 200.872 101.219 201.728 101.219 202.688C101.219 203.648 101.419 204.504 101.819 205.256C102.235 206.008 102.795 206.592 103.499 207.008C104.219 207.408 105.027 207.608 105.923 207.608ZM132.82 196.28C134.404 196.28 135.644 196.736 136.54 197.648C137.452 198.56 137.908 199.904 137.908 201.68V209H136.204V201.848C136.204 200.536 135.884 199.536 135.244 198.848C134.62 198.16 133.732 197.816 132.58 197.816C131.268 197.816 130.236 198.224 129.484 199.04C128.732 199.84 128.356 200.952 128.356 202.376V209H126.652V201.848C126.652 200.536 126.332 199.536 125.692 198.848C125.068 198.16 124.172 197.816 123.004 197.816C121.708 197.816 120.676 198.224 119.908 199.04C119.156 199.84 118.78 200.952 118.78 202.376V209H117.076V196.376H118.708V198.68C119.156 197.912 119.78 197.32 120.58 196.904C121.38 196.488 122.3 196.28 123.34 196.28C124.396 196.28 125.308 196.504 126.076 196.952C126.86 197.4 127.444 198.064 127.828 198.944C128.292 198.112 128.956 197.464 129.82 197C130.7 196.52 131.7 196.28 132.82 196.28ZM153.477 196.376V209H151.845V206.696C151.397 207.464 150.781 208.064 149.997 208.496C149.213 208.912 148.317 209.12 147.309 209.12C145.645 209.12 144.333 208.664 143.373 207.752C142.429 206.824 141.957 205.472 141.957 203.696V196.376H143.661V203.528C143.661 204.856 143.989 205.864 144.645 206.552C145.301 207.24 146.245 207.584 147.477 207.584C148.805 207.584 149.853 207.184 150.621 206.384C151.389 205.568 151.773 204.44 151.773 203V196.376H153.477ZM167.854 196.376V209H166.15V203.744C164.694 204.384 163.262 204.704 161.854 204.704C160.334 204.704 159.15 204.36 158.302 203.672C157.454 202.968 157.03 201.92 157.03 200.528V196.376H158.734V200.432C158.734 201.376 159.038 202.096 159.646 202.592C160.254 203.072 161.094 203.312 162.166 203.312C163.35 203.312 164.678 203 166.15 202.376V196.376H167.854ZM172.694 196.376H174.398V201.968H182.342V196.376H184.046V209H182.342V203.432H174.398V209H172.694V196.376ZM193.905 209.264C192.177 209.264 190.849 208.84 189.921 207.992C189.009 207.128 188.553 205.912 188.553 204.344V196.376H190.257V201.632C190.641 201.168 191.177 200.784 191.865 200.48C192.553 200.176 193.353 200.024 194.265 200.024C195.801 200.024 196.993 200.424 197.841 201.224C198.705 202.008 199.137 203.08 199.137 204.44C199.137 205.384 198.921 206.224 198.489 206.96C198.073 207.68 197.465 208.248 196.665 208.664C195.881 209.064 194.961 209.264 193.905 209.264ZM201.201 196.376H202.905V209H201.201V196.376ZM193.953 207.944C195.041 207.944 195.889 207.624 196.497 206.984C197.105 206.328 197.409 205.496 197.409 204.488C197.409 203.544 197.097 202.784 196.473 202.208C195.849 201.616 194.969 201.32 193.833 201.32C193.001 201.32 192.273 201.496 191.649 201.848C191.041 202.2 190.577 202.688 190.257 203.312V204.464C190.257 205.552 190.569 206.408 191.193 207.032C191.833 207.64 192.753 207.944 193.953 207.944ZM213.108 207.608C213.892 207.608 214.612 207.472 215.268 207.2C215.94 206.912 216.508 206.496 216.972 205.952L217.932 207.056C217.372 207.728 216.676 208.24 215.844 208.592C215.012 208.944 214.092 209.12 213.084 209.12C211.788 209.12 210.636 208.848 209.628 208.304C208.62 207.744 207.836 206.976 207.276 206C206.716 205.024 206.436 203.92 206.436 202.688C206.436 201.456 206.7 200.352 207.228 199.376C207.772 198.4 208.516 197.64 209.46 197.096C210.404 196.552 211.476 196.28 212.676 196.28C213.796 196.28 214.804 196.536 215.7 197.048C216.612 197.56 217.332 198.272 217.86 199.184C218.404 200.096 218.692 201.136 218.724 202.304L208.356 204.32C208.676 205.344 209.252 206.152 210.084 206.744C210.932 207.32 211.94 207.608 213.108 207.608ZM212.676 197.744C211.796 197.744 211.004 197.952 210.3 198.368C209.612 198.768 209.068 199.336 208.668 200.072C208.284 200.792 208.092 201.624 208.092 202.568C208.092 202.808 208.1 202.984 208.116 203.096L217.02 201.368C216.828 200.312 216.34 199.448 215.556 198.776C214.772 198.088 213.812 197.744 212.676 197.744ZM92.5994 236.512V241.168H90.9914V238H79.4474V225.376H81.1514V236.512H88.8554V225.376H90.5594V236.512H92.5994ZM101.206 236.608C101.99 236.608 102.71 236.472 103.366 236.2C104.038 235.912 104.606 235.496 105.07 234.952L106.03 236.056C105.47 236.728 104.774 237.24 103.942 237.592C103.11 237.944 102.19 238.12 101.182 238.12C99.8857 238.12 98.7337 237.848 97.7257 237.304C96.7177 236.744 95.9337 235.976 95.3737 235C94.8137 234.024 94.5337 232.92 94.5337 231.688C94.5337 230.456 94.7977 229.352 95.3257 228.376C95.8697 227.4 96.6137 226.64 97.5577 226.096C98.5017 225.552 99.5737 225.28 100.774 225.28C101.894 225.28 102.902 225.536 103.798 226.048C104.71 226.56 105.43 227.272 105.958 228.184C106.502 229.096 106.79 230.136 106.822 231.304L96.4537 233.32C96.7737 234.344 97.3497 235.152 98.1817 235.744C99.0297 236.32 100.038 236.608 101.206 236.608ZM100.774 226.744C99.8937 226.744 99.1017 226.952 98.3977 227.368C97.7097 227.768 97.1657 228.336 96.7657 229.072C96.3817 229.792 96.1897 230.624 96.1897 231.568C96.1897 231.808 96.1977 231.984 96.2137 232.096L105.118 230.368C104.926 229.312 104.438 228.448 103.654 227.776C102.87 227.088 101.91 226.744 100.774 226.744ZM110.338 225.376H112.042V230.968H119.986V225.376H121.69V238H119.986V232.432H112.042V238H110.338V225.376ZM131.549 238.264C129.821 238.264 128.493 237.84 127.565 236.992C126.653 236.128 126.197 234.912 126.197 233.344V225.376H127.901V230.632C128.285 230.168 128.821 229.784 129.509 229.48C130.197 229.176 130.997 229.024 131.909 229.024C133.445 229.024 134.637 229.424 135.485 230.224C136.349 231.008 136.781 232.08 136.781 233.44C136.781 234.384 136.565 235.224 136.133 235.96C135.717 236.68 135.109 237.248 134.309 237.664C133.525 238.064 132.605 238.264 131.549 238.264ZM138.845 225.376H140.549V238H138.845V225.376ZM131.597 236.944C132.685 236.944 133.533 236.624 134.141 235.984C134.749 235.328 135.053 234.496 135.053 233.488C135.053 232.544 134.741 231.784 134.117 231.208C133.493 230.616 132.613 230.32 131.477 230.32C130.645 230.32 129.917 230.496 129.293 230.848C128.685 231.2 128.221 231.688 127.901 232.312V233.464C127.901 234.552 128.213 235.408 128.837 236.032C129.477 236.64 130.397 236.944 131.597 236.944Z" fill="black"/>
<path d="M141.005 64.396C141.005 64.396 120.057 63.0559 108.986 68.2838C97.9148 73.5118 93.2906 92.6469 74.6185 104.386C56.699 115.651 24.5404 111.823 24.5404 111.823" stroke="black"/>
<mask id="path-3-inside-1_140_1620" fill="white">
<path fill-rule="evenodd" clip-rule="evenodd" d="M80.1748 100.986C83.8126 107.633 90.932 112.806 99.4416 114.143C107.951 115.48 115.744 112.652 120.391 107.307C116.753 100.66 109.634 95.4874 101.124 94.1499C92.6148 92.8125 84.8221 95.6409 80.1748 100.986Z"/>
</mask>
<path d="M80.1748 100.986L79.315 100.363L78.942 100.792L79.234 101.326L80.1748 100.986ZM120.391 107.307L121.251 107.93L121.624 107.501L121.332 106.967L120.391 107.307ZM99.5196 113.216C91.3958 111.939 84.594 107.002 81.1157 100.646L79.234 101.326C83.0312 108.264 90.4682 113.672 99.3636 115.07L99.5196 113.216ZM119.531 106.684C115.088 111.795 107.643 114.493 99.5196 113.216L99.3636 115.07C108.259 116.468 116.4 113.509 121.251 107.93L119.531 106.684ZM101.046 95.0766C109.17 96.3534 115.972 101.291 119.45 107.647L121.332 106.967C117.535 100.029 110.098 94.6213 101.202 93.2232L101.046 95.0766ZM81.0347 101.609C85.4782 96.498 92.9226 93.7998 101.046 95.0766L101.202 93.2232C92.307 91.8251 84.166 94.7838 79.315 100.363L81.0347 101.609Z" fill="black" mask="url(#path-3-inside-1_140_1620)"/>
<path d="M118.579 107.338C118.579 107.338 107.604 106.897 100.606 105.776C93.2301 104.595 81.9158 101.318 81.9158 101.318" stroke="black"/>
<path d="M110.274 101.419L102.896 105.818" stroke="black" stroke-linecap="round"/>
<path d="M100.929 99.1904L94.0828 104.422" stroke="black" stroke-linecap="round"/>
<path d="M91.2373 98.1911L87.0281 102.235" stroke="black" stroke-linecap="round"/>
<path d="M88.9707 103.506L93.0425 108.112" stroke="black" stroke-linecap="round"/>
<path d="M98.8486 106.568L102.388 110.34" stroke="black" stroke-linecap="round"/>
<path d="M106.25 107.527L110.136 110.069" stroke="black" stroke-linecap="round"/>
<mask id="path-12-inside-2_140_1620" fill="white">
<path fill-rule="evenodd" clip-rule="evenodd" d="M50.2123 110.797C49.1444 117.419 52.1636 124.752 58.9309 130.038C65.6979 135.323 74.5374 137.253 82.1936 135.778C83.2615 129.155 80.2423 121.822 73.475 116.537C66.708 111.251 57.8685 109.321 50.2123 110.797Z"/>
</mask>
<path d="M50.2122 110.797L49.9148 109.907L49.2395 110.037L49.1453 110.621L50.2122 110.797ZM82.1934 135.778L82.4907 136.668L83.1661 136.537L83.2603 135.953L82.1934 135.778ZM73.4749 116.537L72.7709 117.19L73.4749 116.537ZM59.6347 129.384C53.1388 124.31 50.2605 117.288 51.279 110.972L49.1453 110.621C48.028 117.55 51.1882 125.193 58.2268 130.691L59.6347 129.384ZM81.8961 134.888C74.5943 136.295 66.1304 134.458 59.6347 129.384L58.2268 130.691C65.2651 136.189 74.4802 138.212 82.4907 136.668L81.8961 134.888ZM72.7709 117.19C79.2668 122.264 82.1451 129.286 81.1266 135.602L83.2603 135.953C84.3776 129.025 81.2174 121.381 74.1788 115.883L72.7709 117.19ZM50.5095 111.686C57.8113 110.279 66.2752 112.116 72.7709 117.19L74.1788 115.883C67.1404 110.385 57.9254 108.362 49.9148 109.907L50.5095 111.686Z" fill="black" mask="url(#path-12-inside-2_140_1620)"/>
<path d="M80.5465 134.879C80.5465 134.879 70.9811 128.984 65.4301 124.623C59.5788 120.025 51.558 111.921 51.558 111.921" stroke="black"/>
<path d="M76.9502 126.409L67.4597 125.816" stroke="black" stroke-linecap="round"/>
<path d="M70.0137 120.057L60.4574 120.334" stroke="black" stroke-linecap="round"/>
<path d="M61.9648 114.413L55.5502 115.177" stroke="black" stroke-linecap="round"/>
<path d="M56.4665 117.078L57.1193 122.455" stroke="black" stroke-linecap="round"/>
<path d="M63.3366 124.298L64.0551 128.805" stroke="black" stroke-linecap="round"/>
<path d="M69.3568 128.749L71.1883 132.549" stroke="black" stroke-linecap="round"/>
<mask id="path-21-inside-3_140_1620" fill="white">
<path fill-rule="evenodd" clip-rule="evenodd" d="M140.829 83.4342C135.481 87.8616 127.484 89.6596 119.449 87.5638C111.415 85.468 105.334 79.9973 102.859 73.5295C108.206 69.1022 116.204 67.3041 124.238 69.3999C132.272 71.4957 138.353 76.9664 140.829 83.4342Z"/>
</mask>
<path d="M140.829 83.4342L141.579 84.1367L142.044 83.7514L141.829 83.1885L140.829 83.4342ZM102.859 73.5295L102.108 72.8271L101.643 73.2124L101.858 73.7753L102.859 73.5295ZM140.078 82.7318C134.982 86.9514 127.355 88.6684 119.686 86.6678L119.213 88.4598C127.613 90.6509 135.981 88.7717 141.579 84.1367L140.078 82.7318ZM119.686 86.6678C112.017 84.6673 106.218 79.4481 103.859 73.2837L101.858 73.7753C104.45 80.5465 110.814 86.2687 119.213 88.4598L119.686 86.6678ZM103.609 74.2319C108.705 70.0123 116.333 68.2953 124.002 70.2959L124.474 68.5039C116.075 66.3129 107.706 68.192 102.108 72.8271L103.609 74.2319ZM124.002 70.2959C131.671 72.2964 137.469 77.5157 139.828 83.68L141.829 83.1885C139.238 76.4172 132.873 70.695 124.474 68.5039L124.002 70.2959Z" fill="black" mask="url(#path-21-inside-3_140_1620)"/>
<path d="M139.068 83.2772C139.068 83.2772 128.503 81.7522 121.9 80.0094C114.939 78.1722 104.493 74.0114 104.493 74.0114" stroke="black"/>
<path d="M131.956 77.0015L124.112 80.2817" stroke="black" stroke-linecap="round"/>
<path d="M123.253 74.0028L115.793 78.1019" stroke="black" stroke-linecap="round"/>
<path d="M114.02 72.0961L109.302 75.3747" stroke="black" stroke-linecap="round"/>
<path d="M110.984 76.7392L114.202 81.3791" stroke="black" stroke-linecap="round"/>
<path d="M120.071 80.5569L122.905 84.3779" stroke="black" stroke-linecap="round"/>
<path d="M127.093 82.1919L130.457 84.9204" stroke="black" stroke-linecap="round"/>
<mask id="path-30-inside-4_140_1620" fill="white">
<path fill-rule="evenodd" clip-rule="evenodd" d="M138.174 63.2133C141.67 69.092 148.23 73.5345 155.895 74.4782C163.56 75.422 170.434 72.6335 174.4 67.6738C170.904 61.7951 164.344 57.3526 156.679 56.4088C149.013 55.4651 142.14 58.2536 138.174 63.2133Z"/>
</mask>
<path d="M138.174 63.2133L137.29 62.6196L136.937 63.061L137.248 63.5842L138.174 63.2133ZM174.4 67.6738L175.284 68.2674L175.637 67.826L175.325 67.3028L174.4 67.6738ZM155.935 73.5476C148.659 72.6517 142.425 68.4349 139.099 62.8423L137.248 63.5842C140.915 69.7491 147.801 74.4172 155.855 75.4089L155.935 73.5476ZM173.517 67.0801C169.743 71.7984 163.212 74.4435 155.935 73.5476L155.855 75.4089C163.909 76.4005 171.124 73.4686 175.284 68.2674L173.517 67.0801ZM156.638 57.3395C163.915 58.2354 170.149 62.4522 173.475 68.0447L175.325 67.3028C171.659 61.1379 164.773 56.4698 156.719 55.4782L156.638 57.3395ZM139.057 63.807C142.831 59.0887 149.362 56.4436 156.638 57.3395L156.719 55.4782C148.665 54.4866 141.45 57.4185 137.29 62.6196L139.057 63.807Z" fill="black" mask="url(#path-30-inside-4_140_1620)"/>
<path d="M172.78 67.7581C172.78 67.7581 162.94 67.6986 156.636 66.9035C149.991 66.0653 139.745 63.4602 139.745 63.4602" stroke="black"/>
<path d="M165.133 62.679L158.688 66.8696" stroke="black" stroke-linecap="round"/>
<path d="M156.687 60.9579L150.748 65.8834" stroke="black" stroke-linecap="round"/>
<path d="M147.975 60.3546L144.353 64.1282" stroke="black" stroke-linecap="round"/>
<path d="M146.139 65.2144L149.95 69.2399" stroke="black" stroke-linecap="round"/>
<path d="M155.091 67.6711L158.396 70.9616" stroke="black" stroke-linecap="round"/>
<path d="M161.751 68.3066L165.322 70.4783" stroke="black" stroke-linecap="round"/>
<mask id="path-39-inside-5_140_1620" fill="white">
<path fill-rule="evenodd" clip-rule="evenodd" d="M122.954 66.7434C118.348 61.5462 116.6 54.6557 119.003 48.448C121.406 42.2404 127.365 38.2524 134.311 37.4056C138.917 42.6028 140.665 49.4932 138.261 55.701C135.858 61.9085 129.9 65.8965 122.954 66.7434Z"/>
</mask>
<path d="M122.954 66.7434L122.154 67.2928L122.563 67.7543L123.179 67.6791L122.954 66.7434ZM134.311 37.4056L135.111 36.8561L134.702 36.3946L134.085 36.4698L134.311 37.4056ZM123.754 66.1939C119.373 61.2501 117.72 54.7088 119.999 48.8229L118.008 48.0731C115.48 54.6026 117.323 61.8422 122.154 67.2928L123.754 66.1939ZM119.999 48.8229C122.277 42.9371 127.929 39.1469 134.536 38.3413L134.085 36.4698C126.801 37.3579 120.535 41.5437 118.008 48.0731L119.999 48.8229ZM133.51 37.955C137.892 42.8988 139.545 49.4401 137.266 55.326L139.257 56.0759C141.785 49.5464 139.942 42.3067 135.111 36.8561L133.51 37.955ZM137.266 55.326C134.987 61.2118 129.335 65.002 122.729 65.8076L123.179 67.6791C130.464 66.791 136.729 62.6053 139.257 56.0759L137.266 55.326Z" fill="black" mask="url(#path-39-inside-5_140_1620)"/>
<path d="M134.107 38.8209C134.107 38.8209 132.259 47.2095 130.262 52.3081C128.157 57.6824 123.502 65.4905 123.502 65.4905" stroke="black"/>
<path d="M127.269 43.5071L130.599 50.5425" stroke="black" stroke-linecap="round"/>
<path d="M123.889 50.0985L128.1 56.9688" stroke="black" stroke-linecap="round"/>
<path d="M121.661 57.3247L125.056 61.7948" stroke="black" stroke-linecap="round"/>
<path d="M126.546 60.664L131.559 58.8732" stroke="black" stroke-linecap="round"/>
<path d="M130.806 53.9076L134.939 52.2819" stroke="black" stroke-linecap="round"/>
<path d="M132.697 48.447L135.676 46.1863" stroke="black" stroke-linecap="round"/>
<mask id="path-48-inside-6_140_1620" fill="white">
<path fill-rule="evenodd" clip-rule="evenodd" d="M87.5832 94.549C92.1903 90.5843 94.1055 84.32 92.0044 77.7565C89.9033 71.1931 84.3063 65.9556 77.6536 63.5301C73.0465 67.4948 71.1314 73.7591 73.2324 80.3226C75.3335 86.886 80.9305 92.1234 87.5832 94.549Z"/>
</mask>
<path d="M87.5832 94.5489L87.2685 95.3925L87.9305 95.6339L88.389 95.2393L87.5832 94.5489ZM77.6536 63.53L77.9683 62.6864L77.3063 62.4451L76.8478 62.8396L77.6536 63.53ZM73.2324 80.3225L74.2674 80.181L73.2324 80.3225ZM90.9695 77.8979C92.9714 84.1518 91.1419 90.1026 86.7774 93.8584L88.389 95.2393C93.2388 91.0659 95.2395 84.4879 93.0393 77.615L90.9695 77.8979ZM77.3389 64.3736C83.6412 66.6714 88.9675 71.644 90.9695 77.8979L93.0393 77.615C90.8392 70.742 84.9714 65.2397 77.9683 62.6864L77.3389 64.3736ZM74.2674 80.181C72.2654 73.9271 74.0949 67.9763 78.4594 64.2205L76.8478 62.8396C71.998 67.0131 69.9973 73.591 72.1975 80.464L74.2674 80.181ZM87.8979 93.7053C81.5956 91.4075 76.2693 86.4349 74.2674 80.181L72.1975 80.464C74.3976 87.3369 80.2654 92.8392 87.2685 95.3925L87.8979 93.7053Z" fill="black" mask="url(#path-48-inside-6_140_1620)"/>
<path d="M78.3871 64.8662C78.3871 64.8662 82.2611 73.0864 83.9697 78.4877C85.7707 84.1812 87.2066 93.1937 87.2066 93.1937" stroke="black"/>
<path d="M76.2578 72.1518L83.1158 76.7823" stroke="black" stroke-linecap="round"/>
<path d="M77.877 79.5046L85.2831 83.5816" stroke="black" stroke-linecap="round"/>
<path d="M80.7441 86.8803L86.0471 89.2293" stroke="black" stroke-linecap="round"/>
<path d="M86.4423 87.5462L89.0304 83.6492" stroke="black" stroke-linecap="round"/>
<path d="M85.372 79.6397L87.4119 76.2962" stroke="black" stroke-linecap="round"/>
<path d="M83.3582 73.9699L84.1488 70.604" stroke="black" stroke-linecap="round"/>
<mask id="path-57-inside-7_140_1620" fill="white">
<path fill-rule="evenodd" clip-rule="evenodd" d="M63.6103 109.154C68.7152 104.752 70.8752 97.8324 68.6162 90.6107C66.3572 83.3893 60.2387 77.6535 52.9348 75.0248C47.83 79.4272 45.6699 86.3466 47.9289 93.5684C50.1879 100.79 56.3064 106.526 63.6103 109.154Z"/>
</mask>
<path d="M63.6103 109.154L63.293 110.003L63.9499 110.24L64.409 109.844L63.6103 109.154ZM52.9348 75.0248L53.2521 74.1756L52.5953 73.9392L52.1362 74.3352L52.9348 75.0248ZM67.5823 90.7585C69.7437 97.6683 67.6729 104.272 62.8117 108.465L64.409 109.844C69.7574 105.231 72.0067 97.9966 69.6501 90.4629L67.5823 90.7585ZM52.6175 75.874C59.5728 78.3772 65.4209 83.849 67.5823 90.7585L69.6501 90.4629C67.2936 82.9296 60.9046 76.9298 53.2521 74.1756L52.6175 75.874ZM48.9629 93.4206C46.8014 86.5108 48.8722 79.9068 53.7335 75.7145L52.1362 74.3352C46.7877 78.9477 44.5384 86.1825 46.895 93.7162L48.9629 93.4206ZM63.9276 108.305C56.9723 105.802 51.1243 100.33 48.9629 93.4206L46.895 93.7162C49.2515 101.25 55.6405 107.249 63.293 110.003L63.9276 108.305Z" fill="black" mask="url(#path-57-inside-7_140_1620)"/>
<path d="M53.7307 76.4934C53.7307 76.4934 57.9279 85.5294 59.7644 91.4725C61.7003 97.7371 63.2068 107.663 63.2068 107.663" stroke="black"/>
<path d="M51.3262 84.54L58.8381 89.5982" stroke="black" stroke-linecap="round"/>
<path d="M53.0479 92.6357L61.1679 97.0799" stroke="black" stroke-linecap="round"/>
<path d="M56.1436 100.747L61.9623 103.301" stroke="black" stroke-linecap="round"/>
<path d="M62.4116 101.443L65.293 97.1286" stroke="black" stroke-linecap="round"/>
<path d="M61.2983 92.7331L63.5717 89.033" stroke="black" stroke-linecap="round"/>
<path d="M59.1279 86.4961L60.0261 82.7798" stroke="black" stroke-linecap="round"/>
<path d="M89.7038 160.123L91.4522 100.146L106.162 85.4223L119.44 100.962L117.692 160.938L89.7038 160.123Z" fill="white" stroke="black" stroke-linejoin="round"/>
<path d="M112.577 164.816L96.6362 104.4L106.414 85.5082L123.71 97.257L139.651 157.673L112.577 164.816Z" fill="white" stroke="black" stroke-linejoin="round"/>
<circle cx="108.612" cy="96.0063" r="2.5" stroke="black"/>
<path d="M95.2651 95.6544C92.0756 93.9374 89.5883 91.1576 88.2349 87.7977C86.8815 84.4378 86.7476 80.7101 87.8563 77.2617C88.9651 73.8134 91.2466 70.8623 94.3046 68.9208C97.3625 66.9794 101.004 66.1702 104.596 66.6338C108.189 67.0975 111.505 68.8047 113.97 71.4589C116.435 74.1131 117.892 77.5468 118.089 81.1637C118.286 84.7805 117.21 88.3521 115.048 91.2583C112.886 94.1644 109.774 96.2216 106.254 97.0726" stroke="black" stroke-linecap="round"/>
<path d="M110.436 121.132C110.23 120.443 110.151 119.751 110.197 119.055C110.254 118.366 110.419 117.791 110.69 117.33L111.292 117.487C111.042 117.922 110.888 118.45 110.829 119.071C110.783 119.699 110.851 120.321 111.035 120.938C111.302 121.833 111.673 122.457 112.149 122.812C112.625 123.167 113.136 123.263 113.681 123.1C114.102 122.975 114.401 122.754 114.58 122.438C114.758 122.122 114.861 121.765 114.889 121.367C114.916 120.969 114.911 120.445 114.873 119.794C114.837 119.055 114.837 118.451 114.873 117.983C114.911 117.523 115.052 117.097 115.295 116.703C115.549 116.315 115.958 116.037 116.522 115.869C116.978 115.733 117.43 115.73 117.878 115.86C118.334 115.987 118.748 116.263 119.118 116.688C119.491 117.122 119.788 117.71 120.009 118.453C120.164 118.972 120.24 119.504 120.237 120.05C120.235 120.596 120.158 121.092 120.008 121.536L119.382 121.445C119.529 120.992 119.602 120.517 119.6 120.021C119.601 119.534 119.536 119.071 119.406 118.633C119.147 117.765 118.777 117.16 118.294 116.816C117.812 116.473 117.294 116.384 116.739 116.55C116.319 116.675 116.02 116.896 115.841 117.212C115.663 117.528 115.56 117.885 115.532 118.283C115.505 118.681 115.507 119.211 115.539 119.873C115.574 120.613 115.573 121.212 115.534 121.671C115.496 122.131 115.354 122.553 115.109 122.938C114.875 123.329 114.48 123.607 113.926 123.773C113.47 123.909 113.016 123.907 112.566 123.769C112.118 123.639 111.707 123.353 111.331 122.91C110.956 122.467 110.657 121.874 110.436 121.132ZM121 130.741L113.996 132.829L113.8 132.172L115.45 131.68C114.822 131.565 114.286 131.301 113.841 130.889C113.397 130.476 113.08 129.952 112.891 129.317C112.696 128.664 112.672 128.028 112.819 127.41C112.966 126.791 113.262 126.25 113.708 125.786C114.157 125.331 114.725 125.001 115.414 124.795C116.103 124.59 116.759 124.555 117.384 124.69C118.02 124.831 118.565 125.122 119.017 125.562C119.479 125.999 119.807 126.544 120.001 127.197C120.188 127.823 120.207 128.426 120.058 129.006C119.913 129.595 119.619 130.111 119.176 130.554L120.8 130.07L121 130.741ZM113.506 129.177C113.666 129.714 113.934 130.155 114.31 130.501C114.688 130.855 115.137 131.087 115.656 131.195C116.178 131.312 116.725 131.285 117.298 131.114C117.87 130.944 118.343 130.667 118.715 130.283C119.091 129.908 119.339 129.469 119.462 128.965C119.587 128.47 119.57 127.954 119.41 127.417C119.25 126.88 118.98 126.435 118.602 126.08C118.226 125.734 117.777 125.503 117.255 125.386C116.736 125.278 116.19 125.309 115.618 125.48C115.046 125.65 114.572 125.923 114.196 126.298C113.824 126.682 113.575 127.121 113.45 127.616C113.328 128.12 113.346 128.64 113.506 129.177ZM115.33 137.498C115.154 136.908 115.184 136.407 115.422 135.995C115.669 135.581 116.087 135.285 116.677 135.109L124.794 132.69L124.994 133.36L116.958 135.756C116.502 135.892 116.184 136.099 116.003 136.377C115.832 136.652 115.808 136.995 115.931 137.407C116 137.639 116.111 137.849 116.265 138.037L115.717 138.259C115.544 138.038 115.415 137.784 115.33 137.498ZM117.398 142.23C117.534 142.686 117.74 143.082 118.015 143.419C118.302 143.762 118.646 144.015 119.045 144.178L118.718 144.699C118.252 144.507 117.852 144.212 117.52 143.815C117.196 143.415 116.953 142.942 116.79 142.396C116.582 141.699 116.547 141.027 116.686 140.382C116.828 139.746 117.12 139.191 117.563 138.718C118.009 138.254 118.577 137.919 119.265 137.714C119.954 137.509 120.609 137.469 121.231 137.595C121.856 137.73 122.398 138.012 122.857 138.44C123.315 138.868 123.642 139.409 123.837 140.062C124.018 140.67 124.038 141.258 123.895 141.826C123.765 142.401 123.492 142.906 123.076 143.342C122.672 143.784 122.166 144.11 121.556 144.321L118.639 138.748C118.045 139.11 117.637 139.602 117.413 140.224C117.19 140.845 117.184 141.514 117.398 142.23ZM123.246 140.238C123.089 139.71 122.822 139.273 122.447 138.928C122.08 138.579 121.638 138.355 121.122 138.256C120.614 138.154 120.078 138.187 119.515 138.355C119.417 138.385 119.281 138.435 119.107 138.506L121.746 143.534C122.147 143.346 122.488 143.084 122.767 142.747C123.047 142.411 123.229 142.025 123.314 141.591C123.407 141.154 123.385 140.703 123.246 140.238Z" fill="black"/>
</svg>
