<?xml version="1.0" encoding="utf-8"?>
<!-- Generator: Adobe Illustrator 24.3.0, SVG Export Plug-In . SVG Version: 6.00 Build 0)  -->
<svg version="1.1" id="Слой_1" xmlns="http://www.w3.org/2000/svg" xmlns:xlink="http://www.w3.org/1999/xlink" x="0px" y="0px"
	 viewBox="0 0 189 152" style="enable-background:new 0 0 189 152;" xml:space="preserve">
<style type="text/css">
	.st0{fill:none;stroke:#000000;stroke-linecap:round;stroke-linejoin:round;}
	.st1{fill:none;stroke:#000000;}
	.st2{fill-rule:evenodd;clip-rule:evenodd;fill:#FFFFFF;}
	.st3{fill:none;stroke:#000000;stroke-linecap:round;}
</style>
<path class="st0" d="M166.4,59.3C165,56.1,150.3,46,150.3,46C154.5,47.5,163.5,52.4,166.4,59.3z"/>
<path class="st0" d="M75.7,42.3c23.1,1.6,40.5,15.2,46.3,21.9c-15.9-13.5-43.6-18.8-47.2-19.7c-2.9-0.7-9.9,0.3-13,0.9
	C53.7,44,68.9,41.9,75.7,42.3z"/>
<path class="st0" d="M168.7,73.7c3.1,0.2,6.5-1.8,7.9-2.8l0.2-9c0.1-0.3,0.1-0.6-0.6,0.1c-0.7,0.7-5.6,1.6-8,1.9
	C168.2,67.2,167.8,73.6,168.7,73.7z"/>
<path class="st0" d="M51.8,82.9v-2.7L33,68.5v2.7L51.8,82.9z"/>
<path class="st0" d="M36,83.5l12.5,5.9l-12.9-9L36,83.5z"/>
<path class="st0" d="M111.3,105.2c1.5-3.7,0.6-9.3,0-11.6c-9.1-1.2-27.7-3.2-29.2-1.5s0.6,7.7,1.9,10.5
	C92.5,105,109.8,109,111.3,105.2z"/>
<path class="st0" d="M120.9,106.3c-3.5-0.5-4.7-9.1-4.9-13.3l14.8-1.5v7.1L166,93l0.6-6.3l4.8-0.8L171,93c-0.2,3.6-2.6,5.2-3.7,5.6
	C153.3,101.3,124.4,106.8,120.9,106.3z"/>
<path class="st0" d="M131.6,96.1l0.5-9.9l33.9-3.9l-0.6,9.1L131.6,96.1z"/>
<path class="st0" d="M173.5,85l4.4-2.5c-0.1,2.1-0.4,6.9-0.8,9.3c-0.4,2.4-3.2,4.3-4.6,4.9L173.5,85z"/>
<path class="st0" d="M53.4,64.2c0.2,0.3,0,2.9,0,2.9c0,0.2-0.1,0.5-0.3,0.5s-0.7-0.6-0.9-1.3c-0.3-0.9,0-2.1,0.3-2.5
	C52.8,63.4,53.2,63.9,53.4,64.2z"/>
<path class="st0" d="M39.7,50.5c0.6,0.2,1,0.6,0.9,1.7c0,0.4,0.2,1.3-1,1.3s-1-0.1-1.3-0.6c-0.4-0.7-0.1-1.3,0.2-2
	S39.1,50.4,39.7,50.5z"/>
<path class="st0" d="M32.1,49c-0.1-0.9-1.2-0.9-1.3-0.4c-0.1,0.5-0.5,1.2-0.2,1.8c0.2,0.5,0.4,0.6,1,0.6C32.3,51,32.2,49.9,32.1,49z
	"/>
<path class="st0" d="M42.9,25.1c0.6-1.8,5.5-5.6,5.8-5.7l-5.1,14.4c-2.2-0.1-2.9,1-3.5,1.8c-0.9,1.1-1.3,4-1.5,5.1l0,0
	c-0.1,0.8-0.1,0.9,0.7,1.7c-0.8-0.3-0.9-0.3-2-0.3C38.1,35.8,42.3,26.9,42.9,25.1z"/>
<path class="st0" d="M34.9,41.4l1.6,0.4c0.9-3,2.9-9.9,4-13.5C39.2,29.4,36.2,37.5,34.9,41.4z"/>
<path class="st0" d="M54,21.6c-0.2-0.8-1.1-2.3-3.4-2.7l-5.4,14.8h3.3c3.2,0,3.4,5.6,3.2,7.6l2.3-5.9C54,35.4,54,21.6,54,21.6z"/>
<path class="st0" d="M57.7,19.2c-0.2,12.5,1.7,20.6,2.7,23.1C72.1,39,113,39.5,132,40.2l-24-19.5C107.7,19,97.2,16.2,57.7,19.2z"/>
<path class="st0" d="M108.4,19.1C99,15.1,68.8,16,54.8,17c-4.5-0.6-10.5,4.7-13,7.5c-2.2,4-7.3,13-9.5,17.1c-3,2.4-4.1,6.2-4.3,7.8
	v9.5c-0.1,2,0,7.6,1.1,13.8c0.8,12,2.4,14.1,3.1,13.6h6.4l18,13.5c0,0.9,0.3,3.8,1.9,7.7c2,4.9,5.1,7.2,6,7.7s7.1-0.3,11-1.1
	c3.9-0.9,1.2-1.6,2.8-1c1.2,0.5,14.4,0.2,20.8,0c8.3-0.3,28.5-1.7,42.9-4.3c18-3.3,36.2-10.7,37.5-12c1-1,0.7-1.8,0.4-2l-2.1-3.8
	l0.9-8.7c0.7-1,0.7-1,0.7-2l0.4-7.5c-3.4-1.4-2.1-1.4-2.1-10.5s-29.4-18.4-43.5-21.2C129.6,35.3,117.8,23.1,108.4,19.1z"/>
<path class="st0" d="M134.4,34.7c-1.3-1.4-4.4-0.6-5.7,0l5.7,6.3C135,39.4,135.8,36.1,134.4,34.7z"/>
<path class="st0" d="M32,72.8c0.1,3,0,5.7-0.1,7.6c-0.1,1-0.2,1.8-0.3,2.3l0,0l0,0c-0.2-0.5-0.3-1.3-0.4-2.2
	c-0.3-1.9-0.5-4.6-0.6-7.6s0-5.7,0.1-7.6c0.1-1,0.2-1.8,0.3-2.3l0,0l0,0c0.2,0.5,0.3,1.3,0.4,2.2C31.7,67.1,31.9,69.8,32,72.8z"/>
<path class="st0" d="M67.8,94.4c0,5.3-0.4,9.6-1.2,12.5c-0.4,1.5-0.9,2.6-1.4,3.3s-1.1,1-1.7,1c-0.2,0-0.5-0.1-0.9-0.5
	c-0.4-0.3-0.8-0.9-1.2-1.6c-0.8-1.4-1.6-3.4-2.3-5.7c-1.4-4.7-2.5-10.7-2.5-16s0.4-9.2,1.1-11.6c0.4-1.2,0.8-2.1,1.3-2.6
	s1-0.8,1.7-0.8c0.2,0,0.5,0.1,0.9,0.4s0.8,0.8,1.2,1.4c0.8,1.2,1.6,3,2.4,5.1C66.7,83.5,67.8,89.1,67.8,94.4z"/>
<path class="st0" d="M120.3,78.7l2.8-9.6c0.7-2.6-27.2-2.3-41.2-1.9c-3.2,1.9-6.3,7.9-4.2,9.3C81,78.7,108,79.2,120.3,78.7z"/>
<path class="st0" d="M121.8,78.2l22.6-2.1c2.4-1.3,1.7-4.2,1.8-5.4c0.1-1-1.1-2.4-1.8-3l-20,1.5L121.8,78.2z"/>
<path class="st0" d="M167.5,73.2l-0.4-7.3l0,0c-4.7,0-14.4,0-16.8,1.5c-2.9,1.8-3.6,7.2-3.5,8.6L167.5,73.2z"/>
<path class="st1" d="M32.3,87.7c0,0,14.3,15.4,25.9,19.2s28.2-6.9,49.8-2.5c20.8,4.2,41.4,29.1,41.4,29.1"/>
<path class="st2" d="M101.6,103.1c1.9-7.3,0.3-16-4.9-22.8c-5.2-6.8-12.8-10.1-19.9-9.5c-1.9,7.3-0.3,16,4.9,22.8
	C87,100.4,94.6,103.8,101.6,103.1z"/>
<path d="M101.6,103.1l0.2,1l0.6-0.1l0.2-0.6L101.6,103.1z M76.8,70.8l-0.2-1L76,69.9l-0.2,0.6L76.8,70.8z M96,80.9
	c5,6.5,6.5,14.8,4.7,21.8l1.8,0.8c2-7.6,0.4-16.7-5.1-23.8L96,80.9z M77,71.8c6.7-0.6,14,2.5,19,9l1.4-1.2
	c-5.5-7.1-13.4-10.5-20.8-9.8L77,71.8z M82.4,93c-5-6.5-6.5-14.8-4.7-21.8l-1.8-0.8c-2,7.6-0.4,16.7,5.1,23.8L82.4,93z M101.4,102
	c-6.7,0.6-14-2.5-19-9L81,94.2c5.5,7.1,13.4,10.6,20.8,9.9L101.4,102z"/>
<path class="st1" d="M78.2,72c0,0,7.7,7.9,12,13.5c4.5,5.9,10.5,16.1,10.5,16.1"/>
<path class="st3" d="M80.1,82l8.4,1.9"/>
<path class="st3" d="M85.3,90.1l8.6,0.9"/>
<path class="st3" d="M91.7,97.5h5.8"/>
<path class="st3" d="M97,95.2l0.2-6.1"/>
<path class="st3" d="M91.9,86.2V81"/>
<path class="st3" d="M87.2,80.4l-1.1-4.5"/>
<path class="st2" d="M130.1,116.6c5.3-4.1,8.2-11.5,6.9-20s-6.3-16-12.9-20.2c-5.3,4.1-8.2,11.5-6.9,20S123.5,112.4,130.1,116.6z"/>
<path d="M130.1,116.6l-0.4,0.9l0.6,0.4l0.5-0.4L130.1,116.6z M124.1,76.5l0.4-0.8l-0.6-0.4l-0.5,0.4L124.1,76.5z M117.2,96.4h1
	H117.2z M136.1,96.6c1.2,8.2-1.5,15.2-6.6,19.1l1.3,1.7c5.6-4.3,8.6-12,7.2-20.8H136.1z M123.7,77.3c6.3,4,11.1,11.2,12.3,19.3h1.9
	c-1.3-8.8-6.6-16.6-13.5-21L123.7,77.3z M118.2,96.4c-1.2-8.2,1.5-15.2,6.6-19.1l-1.3-1.7c-5.6,4.3-8.6,12-7.2,20.8H118.2z
	 M130.5,115.8c-6.3-4-11.1-11.2-12.3-19.3h-1.9c1.3,8.8,6.6,16.6,13.5,21L130.5,115.8z"/>
<path class="st1" d="M124.7,78.3c0,0,2.9,10.9,3.9,17.8c1.1,7.4,1.3,18.8,1.3,18.8"/>
<path class="st3" d="M121.5,86.9l6.5,7"/>
<path class="st3" d="M122.1,96.3l7.1,6.4"/>
<path class="st3" d="M124.1,105.9l5.2,3.9"/>
<path class="st3" d="M129.9,107.8l3.2-4.3"/>
<path class="st3" d="M129.9,97.8l2.6-3.8"/>
<path class="st3" d="M128.6,90.4l1.3-4"/>
<path class="st2" d="M45.6,74c6.9,0.5,14,4.7,18.3,11.7c4.4,7.1,5,15.2,2.4,21.6c-6.9-0.5-14-4.7-18.3-11.7
	C43.5,88.6,42.9,80.4,45.6,74z"/>
<path d="M45.6,74l-0.1-1h-0.6l-0.2,0.6L45.6,74z M66.3,107.4l0.1,1H67l0.2-0.6L66.3,107.4z M45.6,75.1c6.6,0.5,13.3,4.5,17.5,11.2
	l1.6-1C60.1,77.9,52.8,73.5,45.5,73L45.6,75.1z M63.1,86.3c4.2,6.7,4.8,14.5,2.3,20.6l1.8,1c2.8-6.7,2.1-15.2-2.5-22.6L63.1,86.3z
	 M66.2,106.3c-6.6-0.5-13.3-4.5-17.5-11.2l-1.6,1c4.6,7.4,11.9,11.8,19.2,12.3L66.2,106.3z M48.7,95.1c-4.2-6.7-4.8-14.5-2.3-20.6
	l-1.8-1c-2.8,6.7-2.1,15.2,2.5,22.6L48.7,95.1z"/>
<path class="st1" d="M46.7,75.4c0,0,6.6,8.4,10.2,14.2c3.8,6.1,8.5,16.3,8.5,16.3"/>
<path class="st3" d="M47.6,84.8l7.9,3"/>
<path class="st3" d="M51.8,93l8.2,2.1"/>
<path class="st3" d="M57.2,100.7l5.7,0.9"/>
<path class="st3" d="M62.6,99.4l0.9-5.6"/>
<path class="st3" d="M58.6,90.4l0.6-4.7"/>
<path class="st3" d="M54.7,84.4l-0.6-4.3"/>
<path class="st2" d="M33.6,90.5c1.5-6.7-0.2-14.4-5.1-20.4s-11.8-8.7-18.1-7.8c-1.5,6.7,0.2,14.4,5.1,20.4S27.3,91.4,33.6,90.5z"/>
<path d="M33.6,90.5l0.2,1l0.6-0.1l0.1-0.6L33.6,90.5z M10.4,62.3l-0.2-1l-0.6,0.1L9.5,62L10.4,62.3z M27.8,70.8
	c4.7,5.7,6.3,13,4.8,19.4l1.9,0.7c1.6-7-0.2-15.1-5.3-21.4L27.8,70.8z M10.6,63.4c6-0.8,12.5,1.8,17.2,7.4l1.3-1.3
	c-5.2-6.3-12.4-9.1-19-8.2L10.6,63.4z M16.1,82.1c-4.7-5.7-6.3-13-4.8-19.4L9.4,62c-1.6,7,0.2,15.1,5.3,21.4L16.1,82.1z M33.3,89.5
	c-6,0.8-12.5-1.8-17.2-7.4l-1.3,1.3c5.2,6.3,12.4,9.1,19,8.2L33.3,89.5z"/>
<path class="st1" d="M11.6,63.4c0,0,7.1,6.8,11.1,11.7c4.2,5.2,9.9,14.1,9.9,14.1"/>
<path class="st3" d="M13.7,72.3l7.6,1.4"/>
<path class="st3" d="M18.6,79.4l7.7,0.5"/>
<path class="st3" d="M24.5,85.8l5.2-0.2"/>
<path class="st3" d="M29.2,83.6v-5.5"/>
<path class="st3" d="M24.4,75.6l-0.1-4.7"/>
<path class="st3" d="M20,70.6l-1.1-4"/>
<path class="st2" d="M47,98.4c-0.2,6.9-3.7,13.1-9.7,16c-6,2.8-13.1,1.6-18.7-2.5c0.2-6.9,3.7-13.1,9.7-16
	C34.3,93.1,41.4,94.3,47,98.4z"/>
<path d="M47,98.4l1,0.2V98l-0.5-0.4L47,98.4z M18.6,111.9l-1-0.2v0.6l0.5,0.4L18.6,111.9z M46.1,98.3c-0.2,6.6-3.5,12.5-9.2,15.2
	l0.9,1.9c6.3-3,10-9.5,10.2-16.8L46.1,98.3z M36.8,113.5c-5.7,2.7-12.4,1.6-17.8-2.4l-1,1.7c5.9,4.4,13.3,5.7,19.6,2.7L36.8,113.5z
	 M19.5,112c0.2-6.6,3.5-12.5,9.2-15.2l-0.9-1.9c-6.3,3-10,9.5-10.2,16.8L19.5,112z M28.8,96.9c5.7-2.7,12.4-1.6,17.8,2.4l1-1.7
	c-5.9-4.4-13.3-5.7-19.6-2.7L28.8,96.9z"/>
<path class="st1" d="M19.7,111c0,0,7.1-4.8,12.1-7.1c5.2-2.4,14-4.9,14-4.9"/>
<path class="st3" d="M27.9,112.3l2.4-7.4"/>
<path class="st3" d="M34.9,109.9l1.7-7.9"/>
<path class="st3" d="M41.5,106.2l0.6-5.6"/>
<path class="st3" d="M40.2,100.4l-4.9-2.2"/>
<path class="st3" d="M32.5,102.3l-4.1-1.7"/>
<path class="st3" d="M27.4,105l-3.7-0.4"/>
<path class="st2" d="M91.8,102.7c-6.1-0.3-11.8,2.9-14.8,9.1c-3,6.2-2.5,13.9,0.6,20.2c6.1,0.3,11.8-2.9,14.8-9.1
	C95.4,116.6,95,109,91.8,102.7z"/>
<path d="M91.8,102.7l0.8-0.4l-0.3-0.6h-0.6L91.8,102.7z M77.7,132l-0.8,0.4l0.3,0.6h0.6L77.7,132z M92.4,122.9l-0.8-0.6L92.4,122.9z
	 M77.9,112.4c2.9-5.9,8.3-9,14-8.7l-0.2-2.1c-6.4-0.3-12.4,3.1-15.5,9.6L77.9,112.4z M78.5,131.6c-3-6-3.4-13.3-0.6-19.2l-1.7-1.2
	c-3.1,6.5-2.7,14.5,0.6,21.2L78.5,131.6z M91.6,122.2c-2.9,5.9-8.3,9-14,8.7l0.2,2.1c6.4,0.3,12.4-3.1,15.5-9.6L91.6,122.2z M91,103
	c3,6,3.4,13.3,0.6,19.2l1.7,1.2c3.1-6.5,2.7-14.5-0.6-21.2L91,103z"/>
<path class="st1" d="M78,130.5c0,0,2.9-8.6,5.3-13.7c2.6-5.4,7.8-12.9,7.8-12.9"/>
<path class="st3" d="M84.6,126.7l-1.8-8.1"/>
<path class="st3" d="M88.5,120.2l-2.6-8.1"/>
<path class="st3" d="M91.5,112.9l-2.2-5.4"/>
<path class="st3" d="M87.8,108.5l-4.6,1"/>
<path class="st3" d="M83.2,115l-3.8,1"/>
<path class="st3" d="M80.7,120.5l-2.9,1.9"/>
<path class="st2" d="M119.3,108.6c-6.7-0.3-13.1,3.2-16.4,10s-2.9,15.2,0.6,22.1c6.7,0.3,13.1-3.2,16.4-10
	C123.2,123.9,122.7,115.5,119.3,108.6z"/>
<path d="M119.3,108.6l0.8-0.4l-0.3-0.6h-0.6L119.3,108.6z M103.5,140.7l-0.8,0.4l0.3,0.6h0.6L103.5,140.7z M103.7,119.2
	c3.2-6.5,9.2-9.9,15.7-9.5l-0.2-2.1c-7.1-0.3-13.7,3.4-17.1,10.4L103.7,119.2z M104.3,140.3c-3.3-6.6-3.8-14.6-0.6-21.1L102,118
	c-3.5,7.1-3,15.8,0.7,23.1L104.3,140.3z M119,130.1c-3.2,6.5-9.2,9.9-15.7,9.6l0.2,2.1c7.1,0.3,13.7-3.4,17.1-10.4L119,130.1z
	 M118.4,109c3.3,6.6,3.8,14.6,0.6,21.1l1.7,1.2c3.5-7.1,3-15.8-0.7-23.1L118.4,109z"/>
<path class="st1" d="M103.9,139.1c0,0,3.2-9.4,5.9-15c2.9-5.9,8.7-14.1,8.7-14.1"/>
<path class="st3" d="M111.2,134.9l-2-8.8"/>
<path class="st3" d="M115.5,127.8l-2.8-8.8"/>
<path class="st3" d="M118.9,119.8l-2.5-5.9"/>
<path class="st3" d="M114.8,115l-5.1,1.1"/>
<path class="st3" d="M109.6,122.1l-4.2,1.1"/>
<path class="st3" d="M106.9,128.1l-3.2,2.1"/>
</svg>
