<svg width="172" height="158" viewBox="0 0 172 158" fill="none" xmlns="http://www.w3.org/2000/svg">
<mask id="path-1-inside-1_56_64" fill="white">
<path fill-rule="evenodd" clip-rule="evenodd" d="M53.1313 48.865C53.372 46.9898 53.5353 44.6597 53.6215 41.7859C53.6215 30.9401 49.0237 31.203 40.945 31.665C39.1286 31.7689 37.1363 31.8828 34.9807 31.8828C23.2376 31.8828 13.7179 36.3166 13.7179 41.7859C13.7179 41.9189 13.7235 42.0513 13.7347 42.1831C5.70719 43.5988 0 47.2128 0 51.4476C0 56.5994 8.44639 60.8323 19.2414 61.3065C22.571 64.7501 30.0038 67.1474 38.6388 67.1474C50.3819 67.1474 53.1385 67.0614 53.1385 61.592V49.2736C53.1385 49.1349 53.1361 48.9988 53.1313 48.865Z"/>
</mask>
<path d="M53.1313 48.865L52.1394 48.7377L52.129 48.8188L52.1319 48.9006L53.1313 48.865ZM53.6215 41.7859L54.6211 41.8159L54.6215 41.8009V41.7859H53.6215ZM40.945 31.665L41.0021 32.6634L40.945 31.665ZM13.7347 42.1831L13.9084 43.1679L14.8082 43.0092L14.7311 42.0987L13.7347 42.1831ZM19.2414 61.3065L19.9603 60.6114L19.6833 60.3249L19.2853 60.3074L19.2414 61.3065ZM54.1232 48.9923C54.3694 47.0735 54.5343 44.7083 54.6211 41.8159L52.622 41.7559C52.5363 44.611 52.3745 46.9061 52.1394 48.7377L54.1232 48.9923ZM54.6215 41.7859C54.6215 36.301 53.4719 33.1365 50.8084 31.6165C49.5316 30.8878 48.0181 30.6108 46.3848 30.5276C44.7525 30.4444 42.8914 30.5521 40.8879 30.6666L41.0021 32.6634C43.0379 32.547 44.7811 32.4485 46.283 32.525C47.7839 32.6015 48.9347 32.85 49.8171 33.3536C51.4723 34.2981 52.6215 36.425 52.6215 41.7859H54.6215ZM40.8879 30.6666C39.0691 30.7707 37.1038 30.8828 34.9807 30.8828V32.8828C37.1688 32.8828 39.1882 32.7671 41.0021 32.6634L40.8879 30.6666ZM34.9807 30.8828C28.9969 30.8828 23.5309 32.0104 19.5234 33.8769C15.5978 35.7052 12.7179 38.4309 12.7179 41.7859H14.7179C14.7179 39.6716 16.5979 37.4457 20.3678 35.6899C24.0559 33.9721 29.2213 32.8828 34.9807 32.8828V30.8828ZM12.7179 41.7859C12.7179 41.9472 12.7247 42.1077 12.7383 42.2675L14.7311 42.0987C14.7223 41.9949 14.7179 41.8907 14.7179 41.7859H12.7179ZM13.561 41.1983C9.45758 41.9219 5.88262 43.2169 3.3048 44.9245C0.749898 46.6169 -1 48.8439 -1 51.4476H1C1 49.8164 2.1037 48.1191 4.40928 46.5918C6.69192 45.0798 9.98431 43.8599 13.9084 43.1679L13.561 41.1983ZM-1 51.4476C-1 54.6106 1.56527 57.2137 5.11898 59.0223C8.73701 60.8638 13.6949 62.0638 19.1975 62.3055L19.2853 60.3074C13.9929 60.075 9.33007 58.9215 6.02616 57.2399C2.65792 55.5256 1 53.4363 1 51.4476H-1ZM38.6388 66.1474C34.4097 66.1474 30.4927 65.5599 27.2441 64.5623C23.9785 63.5596 21.4639 62.1664 19.9603 60.6114L18.5225 62.0016C20.3485 63.8902 23.2151 65.4174 26.657 66.4743C30.116 67.5363 34.2329 68.1474 38.6388 68.1474V66.1474ZM52.1385 61.592C52.1385 62.9017 51.968 63.7226 51.655 64.2732C51.3679 64.778 50.893 65.1722 49.9816 65.4702C49.0362 65.7793 47.702 65.957 45.8096 66.0497C43.9291 66.1418 41.5814 66.1474 38.6388 66.1474V68.1474C41.5677 68.1474 43.9682 68.1423 45.9074 68.0473C47.8345 67.9529 49.3914 67.7673 50.603 67.3712C51.8486 66.964 52.7968 66.3112 53.3936 65.2617C53.9643 64.2579 54.1385 63.017 54.1385 61.592H52.1385ZM52.1385 49.2736V61.592H54.1385V49.2736H52.1385ZM52.1319 48.9006C52.1363 49.0222 52.1385 49.1465 52.1385 49.2736H54.1385C54.1385 49.1234 54.1359 48.9753 54.1307 48.8294L52.1319 48.9006Z" fill="black" mask="url(#path-1-inside-1_56_64)"/>
<rect x="53.1387" y="27.5356" width="70.5292" height="129.465" stroke="black" stroke-linecap="round" stroke-linejoin="round"/>
<path d="M123.426 27.5353L141.3 10.1445" stroke="black" stroke-linecap="round" stroke-linejoin="round"/>
<path d="M123.667 157L141.3 139.368V10.1445" stroke="black" stroke-linecap="round" stroke-linejoin="round"/>
<path d="M53.1387 27.5353L71.0125 10.1445" stroke="black" stroke-linecap="round" stroke-linejoin="round"/>
<path d="M141.058 10.1445H71.0122" stroke="black" stroke-linecap="round" stroke-linejoin="round"/>
<rect x="65.2324" y="37.697" width="9.14462" height="15.4246" stroke="black"/>
<rect x="65.2324" y="63.783" width="9.14462" height="15.4246" stroke="black"/>
<rect x="65.2324" y="89.8691" width="9.14462" height="15.4246" stroke="black"/>
<rect x="65.2324" y="115.956" width="9.14462" height="15.4246" stroke="black"/>
<rect x="84.0723" y="37.697" width="9.14462" height="15.4246" stroke="black"/>
<rect x="84.0723" y="63.783" width="9.14462" height="15.4246" stroke="black"/>
<rect x="84.0723" y="89.8691" width="9.14462" height="15.4246" stroke="black"/>
<rect x="84.0723" y="115.956" width="9.14462" height="15.4246" stroke="black"/>
<rect x="82.1401" y="136.728" width="13.0092" height="19.7723" stroke="black"/>
<rect x="102.912" y="37.697" width="9.14462" height="15.4246" stroke="black"/>
<path d="M128.999 52.5163V37.1715L135.969 30.6232V46.3905L128.999 52.5163Z" stroke="black"/>
<path d="M128.999 78.6025V63.2577L135.969 56.7094V72.4767L128.999 78.6025Z" stroke="black"/>
<path d="M128.999 104.689V89.3441L135.969 82.7958V98.5631L128.999 104.689Z" stroke="black"/>
<path d="M128.999 130.775V115.43L135.969 108.882V124.649L128.999 130.775Z" stroke="black"/>
<path d="M130.448 145.648V136.411L134.762 132.521V141.334L130.448 145.648Z" stroke="black"/>
<rect x="102.912" y="63.783" width="9.14462" height="15.4246" stroke="black"/>
<rect x="102.912" y="89.8691" width="9.14462" height="15.4246" stroke="black"/>
<rect x="102.912" y="115.956" width="9.14462" height="15.4246" stroke="black"/>
<rect x="102.912" y="136.728" width="9.14462" height="9.62769" stroke="black"/>
<rect x="65.2324" y="136.728" width="9.14462" height="9.62769" stroke="black"/>
<mask id="path-28-inside-2_56_64" fill="white">
<path fill-rule="evenodd" clip-rule="evenodd" d="M126.325 0C135.019 0 142.56 2.17762 146.293 5.36318C147.034 5.33066 147.786 5.314 148.546 5.314C160.952 5.314 171.009 9.74776 171.009 15.2171C171.009 20.071 163.088 24.1092 152.634 24.9566C152.646 25.0909 152.652 25.226 152.652 25.3617C152.652 30.831 142.595 35.2647 130.189 35.2647C121.066 35.2647 113.214 32.8672 109.696 29.4235C98.2922 28.9493 89.3691 24.7163 89.3691 19.5646C89.3691 15.3298 95.3985 11.7158 103.879 10.3001C103.867 10.1684 103.861 10.036 103.861 9.90308C103.861 4.43376 113.919 0 126.325 0Z"/>
</mask>
<path fill-rule="evenodd" clip-rule="evenodd" d="M126.325 0C135.019 0 142.56 2.17762 146.293 5.36318C147.034 5.33066 147.786 5.314 148.546 5.314C160.952 5.314 171.009 9.74776 171.009 15.2171C171.009 20.071 163.088 24.1092 152.634 24.9566C152.646 25.0909 152.652 25.226 152.652 25.3617C152.652 30.831 142.595 35.2647 130.189 35.2647C121.066 35.2647 113.214 32.8672 109.696 29.4235C98.2922 28.9493 89.3691 24.7163 89.3691 19.5646C89.3691 15.3298 95.3985 11.7158 103.879 10.3001C103.867 10.1684 103.861 10.036 103.861 9.90308C103.861 4.43376 113.919 0 126.325 0Z" fill="white"/>
<path d="M146.293 5.36318L145.644 6.12393L145.944 6.37948L146.337 6.36222L146.293 5.36318ZM152.634 24.9566L152.553 23.9599L151.546 24.0415L151.638 25.0475L152.634 24.9566ZM109.696 29.4235L110.396 28.7089L110.122 28.4403L109.738 28.4243L109.696 29.4235ZM103.879 10.3001L104.044 11.2864L104.958 11.1339L104.875 10.211L103.879 10.3001ZM146.942 4.60243C142.946 1.19274 135.121 -1 126.325 -1V1C134.917 1 142.173 3.16249 145.644 6.12393L146.942 4.60243ZM148.546 4.314C147.771 4.314 147.005 4.33097 146.25 4.36414L146.337 6.36222C147.063 6.33034 147.8 6.314 148.546 6.314V4.314ZM172.009 15.2171C172.009 13.5216 171.226 11.9834 169.965 10.67C168.71 9.36168 166.942 8.22902 164.833 7.29952C160.614 5.4393 154.855 4.314 148.546 4.314V6.314C154.644 6.314 160.116 7.40558 164.026 9.12957C165.983 9.99217 167.504 10.9935 168.522 12.0547C169.536 13.1109 170.009 14.1779 170.009 15.2171H172.009ZM152.715 25.9533C158.035 25.5221 162.768 24.2762 166.206 22.4751C169.579 20.7075 172.009 18.2273 172.009 15.2171H170.009C170.009 17.0607 168.478 19.0266 165.278 20.7035C162.141 22.3468 157.687 23.5437 152.553 23.9599L152.715 25.9533ZM151.638 25.0475C151.647 25.1517 151.652 25.2564 151.652 25.3617H153.652C153.652 25.1955 153.645 25.0302 153.63 24.8657L151.638 25.0475ZM151.652 25.3617C151.652 26.4008 151.179 27.4678 150.165 28.5241C149.147 29.5853 147.626 30.5866 145.67 31.4492C141.759 33.1732 136.287 34.2647 130.189 34.2647V36.2647C136.498 36.2647 142.257 35.1394 146.476 33.2792C148.585 32.3497 150.353 31.2171 151.609 29.9087C152.869 28.5954 153.652 27.0572 153.652 25.3617H151.652ZM130.189 34.2647C125.711 34.2647 121.562 33.6759 118.12 32.6753C114.659 31.6693 111.991 30.2705 110.396 28.7089L108.997 30.138C110.919 32.0202 113.936 33.5421 117.562 34.5958C121.205 35.6549 125.544 36.2647 130.189 36.2647V34.2647ZM88.3691 19.5646C88.3691 22.7563 91.0948 25.3533 94.8222 27.149C98.631 28.984 103.854 30.1814 109.655 30.4226L109.738 28.4243C104.135 28.1913 99.1939 27.0352 95.6902 25.3472C92.105 23.6199 90.3691 21.5246 90.3691 19.5646H88.3691ZM103.715 9.31373C99.3899 10.0356 95.6256 11.3269 92.9127 13.0279C90.2326 14.7084 88.3691 16.9345 88.3691 19.5646H90.3691C90.3691 17.9598 91.5204 16.2616 93.9751 14.7224C96.3971 13.2038 99.8877 11.9802 104.044 11.2864L103.715 9.31373ZM102.861 9.90308C102.861 10.0659 102.869 10.228 102.883 10.3892L104.875 10.211C104.866 10.1088 104.861 10.0062 104.861 9.90308H102.861ZM126.325 -1C120.016 -1 114.257 0.1253 110.037 1.98552C107.929 2.91502 106.16 4.04768 104.905 5.35604C103.645 6.66939 102.861 8.20756 102.861 9.90308H104.861C104.861 8.86394 105.335 7.79689 106.348 6.74066C107.366 5.67945 108.888 4.67817 110.844 3.81557C114.755 2.09158 120.227 1 126.325 1V-1Z" fill="black" mask="url(#path-28-inside-2_56_64)"/>
</svg>
