<svg width="165" height="165" viewBox="0 0 165 165" fill="none" xmlns="http://www.w3.org/2000/svg">
<path d="M98.47 40.0894C98.47 40.0894 80.7993 51.4184 74.9765 62.1885C69.1537 72.9587 76.7631 91.1144 68.6731 111.633C60.9093 131.324 32.7324 147.289 32.7324 147.289" stroke="black"/>
<mask id="path-2-inside-1_56_417" fill="white">
<path fill-rule="evenodd" clip-rule="evenodd" d="M71.136 105.602C78.0044 108.803 86.8043 108.753 94.4524 104.789C102.1 100.826 106.703 93.9315 107.281 86.8723C100.413 83.6717 91.6131 83.7217 83.9649 87.685C76.3169 91.6481 71.714 98.543 71.136 105.602Z"/>
</mask>
<path fill-rule="evenodd" clip-rule="evenodd" d="M71.136 105.602C78.0044 108.803 86.8043 108.753 94.4524 104.789C102.1 100.826 106.703 93.9315 107.281 86.8723C100.413 83.6717 91.6131 83.7217 83.9649 87.685C76.3169 91.6481 71.714 98.543 71.136 105.602Z" fill="white"/>
<path d="M71.136 105.602L70.0743 105.61L70.0279 106.176L70.5792 106.433L71.136 105.602ZM107.281 86.8723L108.343 86.8647L108.389 86.2982L107.838 86.0413L107.281 86.8723ZM93.9663 103.997C86.6649 107.78 78.2601 107.831 71.6927 104.771L70.5792 106.433C77.7488 109.774 86.9436 109.725 94.9385 105.582L93.9663 103.997ZM106.22 86.8799C105.667 93.6296 101.268 100.213 93.9663 103.997L94.9385 105.582C102.933 101.439 107.74 94.2334 108.343 86.8647L106.22 86.8799ZM84.451 88.4778C91.7524 84.6942 100.157 84.6431 106.725 87.7034L107.838 86.0413C100.669 82.7003 91.4737 82.7492 83.4788 86.8921L84.451 88.4778ZM72.1976 105.595C72.7503 98.8449 77.1497 92.2612 84.451 88.4778L83.4788 86.8921C75.484 91.035 70.6777 98.2411 70.0743 105.61L72.1976 105.595Z" fill="black" mask="url(#path-2-inside-1_56_417)"/>
<path d="M105.84 87.9701C105.84 87.9701 96.7364 94.1167 90.4345 97.3587C83.7918 100.776 72.7352 104.838 72.7352 104.838" stroke="black"/>
<path d="M95.6436 88.1216L92.3047 96.0358" stroke="black" stroke-linecap="round"/>
<path d="M86.7935 91.8616L84.3772 100.132" stroke="black" stroke-linecap="round"/>
<path d="M78.3931 96.7979L77.3972 102.549" stroke="black" stroke-linecap="round"/>
<path d="M79.716 102.422L85.7247 103.721" stroke="black" stroke-linecap="round"/>
<path d="M89.4875 99.0385L94.5737 99.9807" stroke="black" stroke-linecap="round"/>
<path d="M96.0188 95.4256L100.656 95.1717" stroke="black" stroke-linecap="round"/>
<mask id="path-11-inside-2_56_417" fill="white">
<path fill-rule="evenodd" clip-rule="evenodd" d="M52.8079 131.255C55.8703 137.223 62.6466 141.342 71.2299 141.592C79.813 141.842 88.078 138.161 93.3722 132.437C90.3098 126.469 83.5335 122.35 74.9502 122.1C66.3671 121.85 58.1021 125.531 52.8079 131.255Z"/>
</mask>
<path fill-rule="evenodd" clip-rule="evenodd" d="M52.8079 131.255C55.8703 137.223 62.6466 141.342 71.2299 141.592C79.813 141.842 88.078 138.161 93.3722 132.437C90.3098 126.469 83.5335 122.35 74.9502 122.1C66.3671 121.85 58.1021 125.531 52.8079 131.255Z" fill="white"/>
<path d="M52.8078 131.255L52.0411 130.714L51.5741 131.219L51.8442 131.746L52.8078 131.255ZM93.3721 132.437L94.1388 132.978L94.6058 132.473L94.3356 131.947L93.3721 132.437ZM74.9501 122.1L74.77 123.043L74.9501 122.1ZM71.4099 140.649C63.1707 140.409 56.692 136.456 53.7714 130.765L51.8442 131.746C55.0483 137.99 62.1222 142.276 71.0497 142.536L71.4099 140.649ZM92.6053 131.896C87.5562 137.355 79.6488 140.889 71.4099 140.649L71.0497 142.536C79.977 142.796 88.5996 138.967 94.1388 132.978L92.6053 131.896ZM74.77 123.043C83.0092 123.283 89.4878 127.236 92.4085 132.928L94.3356 131.947C91.1315 125.702 84.0577 121.416 75.1302 121.156L74.77 123.043ZM53.5745 131.796C58.6237 126.337 66.531 122.803 74.77 123.043L75.1302 121.156C66.2029 120.896 57.5803 124.725 52.0411 130.714L53.5745 131.796Z" fill="black" mask="url(#path-11-inside-2_56_417)"/>
<path d="M91.5122 132.689C91.5122 132.689 80.3137 133.606 73.2577 133.38C65.8199 133.142 54.5574 131.364 54.5574 131.364" stroke="black"/>
<path d="M83.5967 127.995L75.5998 133.14" stroke="black" stroke-linecap="round"/>
<path d="M74.2461 126.987L66.711 132.871" stroke="black" stroke-linecap="round"/>
<path d="M64.418 127.208L59.7025 131.623" stroke="black" stroke-linecap="round"/>
<path d="M61.5665 132.612L65.2774 136.557" stroke="black" stroke-linecap="round"/>
<path d="M71.3785 134.359L74.6276 137.565" stroke="black" stroke-linecap="round"/>
<path d="M78.8649 134.379L82.592 136.356" stroke="black" stroke-linecap="round"/>
<mask id="path-20-inside-3_56_417" fill="white">
<path fill-rule="evenodd" clip-rule="evenodd" d="M109.605 55.5325C107.92 62.267 102.541 68.4532 94.8269 71.5239C87.1126 74.5945 78.9722 73.7894 73.1468 70.0447C74.8322 63.3102 80.2107 57.124 87.9251 54.0533C95.6394 50.9827 103.78 51.7878 109.605 55.5325Z"/>
</mask>
<path fill-rule="evenodd" clip-rule="evenodd" d="M109.605 55.5325C107.92 62.267 102.541 68.4532 94.8269 71.5239C87.1126 74.5945 78.9722 73.7894 73.1468 70.0447C74.8322 63.3102 80.2107 57.124 87.9251 54.0533C95.6394 50.9827 103.78 51.7878 109.605 55.5325Z" fill="white"/>
<path d="M109.605 55.5325L110.626 55.654L110.773 55.0679L110.266 54.742L109.605 55.5325ZM73.1468 70.0447L72.1261 69.9233L71.9794 70.5093L72.4864 70.8352L73.1468 70.0447ZM108.585 55.4111C106.978 61.8296 101.85 67.731 94.4865 70.6621L95.1674 72.3857C103.232 69.1754 108.861 62.7044 110.626 55.654L108.585 55.4111ZM94.4865 70.6621C87.1228 73.5932 79.3592 72.8232 73.8071 69.2541L72.4864 70.8352C78.5852 74.7557 87.1024 75.5959 95.1674 72.3857L94.4865 70.6621ZM74.1674 70.1661C75.7738 63.7476 80.9018 57.8462 88.2655 54.9151L87.5846 53.1916C79.5195 56.4018 73.8907 62.8728 72.1261 69.9233L74.1674 70.1661ZM88.2655 54.9151C95.6292 51.9841 103.393 52.7541 108.945 56.3231L110.266 54.742C104.167 50.8216 95.6496 49.9814 87.5846 53.1916L88.2655 54.9151Z" fill="black" mask="url(#path-20-inside-3_56_417)"/>
<path d="M108.094 56.4486C108.094 56.4486 98.6789 61.4785 92.3263 63.986C85.63 66.6292 74.7495 69.4646 74.7495 69.4646" stroke="black"/>
<path d="M98.6465 55.606L94.2701 62.8951" stroke="black" stroke-linecap="round"/>
<path d="M89.8584 58.3452L86.2764 66.0666" stroke="black" stroke-linecap="round"/>
<path d="M81.2896 62.2788L79.4312 67.7146" stroke="black" stroke-linecap="round"/>
<path d="M81.5949 67.8175L86.9361 69.6495" stroke="black" stroke-linecap="round"/>
<path d="M91.1779 65.5102L95.7246 66.9098" stroke="black" stroke-linecap="round"/>
<path d="M97.8026 62.6685L102.129 62.874" stroke="black" stroke-linecap="round"/>
<mask id="path-29-inside-4_56_417" fill="white">
<path fill-rule="evenodd" clip-rule="evenodd" d="M95.4886 40.8136C101.788 43.4787 109.704 43.1721 116.439 39.3918C123.174 35.6115 127.06 29.2935 127.317 22.9479C121.018 20.2829 113.102 20.5894 106.367 24.3698C99.6321 28.15 95.7464 34.4681 95.4886 40.8136Z"/>
</mask>
<path fill-rule="evenodd" clip-rule="evenodd" d="M95.4886 40.8136C101.788 43.4787 109.704 43.1721 116.439 39.3918C123.174 35.6115 127.06 29.2935 127.317 22.9479C121.018 20.2829 113.102 20.5894 106.367 24.3698C99.6321 28.15 95.7464 34.4681 95.4886 40.8136Z" fill="white"/>
<path d="M95.4886 40.8136L94.4251 40.8587L94.4022 41.4234L94.9628 41.6606L95.4886 40.8136ZM127.317 22.9479L128.381 22.9029L128.404 22.3381L127.843 22.1009L127.317 22.9479ZM115.92 38.6181C109.527 42.2068 102.007 42.502 96.0143 39.9666L94.9628 41.6606C101.569 44.4554 109.882 44.1375 116.958 40.1655L115.92 38.6181ZM126.254 22.993C126.009 29.0296 122.314 35.0295 115.92 38.6181L116.958 40.1655C124.034 36.1935 128.111 29.5574 128.381 22.9029L126.254 22.993ZM106.886 25.1435C113.279 21.5548 120.799 21.2596 126.792 23.7949L127.843 22.1009C121.237 19.3061 112.924 19.624 105.848 23.5961L106.886 25.1435ZM96.552 40.7686C96.7973 34.7319 100.492 28.7321 106.886 25.1435L105.848 23.5961C98.7718 27.568 94.6955 34.2042 94.4251 40.8587L96.552 40.7686Z" fill="black" mask="url(#path-29-inside-4_56_417)"/>
<path d="M126.062 23.9757C126.062 23.9757 118.099 29.7566 112.549 32.8505C106.698 36.1116 96.9002 40.0821 96.9002 40.0821" stroke="black"/>
<path d="M116.892 24.4138L114.182 31.608" stroke="black" stroke-linecap="round"/>
<path d="M109.068 28.0303L107.201 35.5165" stroke="black" stroke-linecap="round"/>
<path d="M101.692 32.7046L101.009 37.8901" stroke="black" stroke-linecap="round"/>
<path d="M103.091 37.7076L108.547 38.6931" stroke="black" stroke-linecap="round"/>
<path d="M111.759 34.3841L116.371 35.0776" stroke="black" stroke-linecap="round"/>
<path d="M117.501 30.9505L121.665 30.5851" stroke="black" stroke-linecap="round"/>
<mask id="path-38-inside-5_56_417" fill="white">
<path fill-rule="evenodd" clip-rule="evenodd" d="M84.9911 51.6644C78.2595 50.3028 72.8406 45.9709 71.1582 39.7624C69.4758 33.5543 71.9459 27.0068 77.0389 22.3239C83.7705 23.6855 89.1893 28.0175 90.8718 34.226C92.5542 40.4341 90.0841 46.9816 84.9911 51.6644Z"/>
</mask>
<path fill-rule="evenodd" clip-rule="evenodd" d="M84.9911 51.6644C78.2595 50.3028 72.8406 45.9709 71.1582 39.7624C69.4758 33.5543 71.9459 27.0068 77.0389 22.3239C83.7705 23.6855 89.1893 28.0175 90.8718 34.226C92.5542 40.4341 90.0841 46.9816 84.9911 51.6644Z" fill="white"/>
<path d="M84.9911 51.6645L84.6847 52.584L85.2725 52.7029L85.7173 52.2939L84.9911 51.6645ZM71.1582 39.7624L70.134 40.0501L71.1582 39.7624ZM77.0389 22.3239L77.3453 21.4045L76.7575 21.2856L76.3127 21.6945L77.0389 22.3239ZM85.2975 50.745C78.8926 49.4495 73.7711 45.3374 72.1823 39.4748L70.134 40.0501C71.9102 46.6044 77.6264 51.1563 84.6847 52.584L85.2975 50.745ZM72.1823 39.4748C70.5936 33.6125 72.9193 27.409 77.7651 22.9534L76.3127 21.6945C70.9725 26.6047 68.3579 33.4961 70.134 40.0501L72.1823 39.4748ZM76.7325 23.2434C83.1374 24.539 88.2589 28.651 89.8477 34.5136L91.8959 33.9383C90.1197 27.384 84.4036 22.8321 77.3453 21.4045L76.7325 23.2434ZM89.8477 34.5136C91.4363 40.376 89.1107 46.5794 84.2649 51.0351L85.7173 52.2939C91.0575 47.3838 93.672 40.4923 91.8959 33.9383L89.8477 34.5136Z" fill="black" mask="url(#path-38-inside-5_56_417)"/>
<path d="M77.763 23.5708C77.763 23.5708 81.2433 31.4239 82.6547 36.7145C84.1426 42.2912 85.0176 51.3393 85.0176 51.3393" stroke="black"/>
<path d="M75.0288 31.3975L81.8799 35.0927" stroke="black" stroke-linecap="round"/>
<path d="M76.2104 38.71L83.6734 41.7503" stroke="black" stroke-linecap="round"/>
<path d="M78.6968 45.8511L84.08 47.4414" stroke="black" stroke-linecap="round"/>
<path d="M84.6102 45.6479L87.5883 41.2355" stroke="black" stroke-linecap="round"/>
<path d="M84.0404 37.6806L86.4066 33.923" stroke="black" stroke-linecap="round"/>
<path d="M82.3289 32.1617L83.3899 28.5757" stroke="black" stroke-linecap="round"/>
<mask id="path-47-inside-6_56_417" fill="white">
<path fill-rule="evenodd" clip-rule="evenodd" d="M73.2913 96.0281C74.6546 90.1048 72.4868 83.9233 66.906 79.88C61.3253 75.8366 53.7135 74.9325 46.9168 76.9191C45.5535 82.8424 47.7214 89.0239 53.3021 93.0672C58.8828 97.1106 66.4946 98.0148 73.2913 96.0281Z"/>
</mask>
<path fill-rule="evenodd" clip-rule="evenodd" d="M73.2913 96.0281C74.6546 90.1048 72.4868 83.9233 66.906 79.88C61.3253 75.8366 53.7135 74.9325 46.9168 76.9191C45.5535 82.8424 47.7214 89.0239 53.3021 93.0672C58.8828 97.1106 66.4946 98.0148 73.2913 96.0281Z" fill="white"/>
<path d="M73.2912 96.028L73.5374 96.8941L74.2138 96.6964L74.3494 96.107L73.2912 96.028ZM46.9168 76.9191L46.6706 76.053L45.9942 76.2507L45.8586 76.8401L46.9168 76.9191ZM53.302 93.0672L54.052 92.3401L53.302 93.0672ZM66.156 80.607C71.4735 84.4596 73.5245 90.3377 72.233 95.9491L74.3494 96.107C75.7845 89.8717 73.4999 83.3869 67.656 79.1529L66.156 80.607ZM47.1629 77.7852C53.6016 75.9031 60.8384 76.7543 66.156 80.607L67.656 79.1529C61.8121 74.9189 53.8252 73.9617 46.6706 76.053L47.1629 77.7852ZM54.052 92.3401C48.7345 88.4874 46.6835 82.6093 47.975 76.998L45.8586 76.8401C44.4235 83.0754 46.7081 89.5602 52.552 93.7942L54.052 92.3401ZM73.0451 95.1619C66.6064 97.044 59.3696 96.1928 54.052 92.3401L52.552 93.7942C58.3959 98.0282 66.3828 98.9854 73.5374 96.8941L73.0451 95.1619Z" fill="black" mask="url(#path-47-inside-6_56_417)"/>
<path d="M48.2994 77.5609C48.2994 77.5609 56.2898 81.8888 60.8659 85.2284C65.6896 88.7486 72.1851 95.1591 72.1851 95.1591" stroke="black"/>
<path d="M50.8994 84.6921L59.1677 84.3604" stroke="black" stroke-linecap="round"/>
<path d="M56.5591 89.6572L64.9411 88.5548" stroke="black" stroke-linecap="round"/>
<path d="M63.2383 93.9009L68.9022 92.6521" stroke="black" stroke-linecap="round"/>
<path d="M68.2234 91.0622L68.0002 86.3894" stroke="black" stroke-linecap="round"/>
<path d="M62.678 85.3261L62.3409 81.424" stroke="black" stroke-linecap="round"/>
<path d="M57.6969 81.9508L56.3399 78.7706" stroke="black" stroke-linecap="round"/>
<mask id="path-56-inside-7_56_417" fill="white">
<path fill-rule="evenodd" clip-rule="evenodd" d="M62.629 121.996C64.134 115.425 61.7755 108.57 55.6775 104.09C49.5798 99.6104 41.2526 98.6136 33.811 100.822C32.306 107.393 34.6645 114.248 40.7624 118.728C46.8601 123.208 55.1873 124.204 62.629 121.996Z"/>
</mask>
<path fill-rule="evenodd" clip-rule="evenodd" d="M62.629 121.996C64.134 115.425 61.7755 108.57 55.6775 104.09C49.5798 99.6104 41.2526 98.6136 33.811 100.822C32.306 107.393 34.6645 114.248 40.7624 118.728C46.8601 123.208 55.1873 124.204 62.629 121.996Z" fill="white"/>
<path d="M62.629 121.996L62.8764 122.868L63.5456 122.669L63.681 122.078L62.629 121.996ZM33.811 100.822L33.5636 99.9502L32.8943 100.149L32.759 100.74L33.811 100.822ZM54.9321 104.822C60.7666 109.109 63.0102 115.656 61.577 121.913L63.681 122.078C65.2578 115.194 62.7843 108.032 56.423 103.359L54.9321 104.822ZM34.0583 101.694C41.1448 99.5911 49.0977 100.535 54.9321 104.822L56.423 103.359C50.0619 98.6854 41.3604 97.6361 33.5636 99.9502L34.0583 101.694ZM41.5079 117.996C35.6733 113.709 33.4298 107.162 34.8629 100.905L32.759 100.74C31.1822 107.624 33.6557 114.786 40.017 119.459L41.5079 117.996ZM62.3816 121.124C55.2951 123.227 47.3422 122.283 41.5079 117.996L40.017 119.459C46.3781 124.133 55.0795 125.182 62.8764 122.868L62.3816 121.124Z" fill="black" mask="url(#path-56-inside-7_56_417)"/>
<path d="M35.3221 101.534C35.3221 101.534 44.0563 106.328 49.0564 110.028C54.327 113.929 61.4207 121.033 61.4207 121.033" stroke="black"/>
<path d="M38.1514 109.441L47.1998 109.067" stroke="black" stroke-linecap="round"/>
<path d="M44.334 114.944L53.5086 113.715" stroke="black" stroke-linecap="round"/>
<path d="M51.6338 119.645L57.8344 118.256" stroke="black" stroke-linecap="round"/>
<path d="M57.0949 116.493L56.8609 111.31" stroke="black" stroke-linecap="round"/>
<path d="M51.0392 110.135L50.679 105.807" stroke="black" stroke-linecap="round"/>
<path d="M45.596 106.396L44.1182 102.869" stroke="black" stroke-linecap="round"/>
</svg>
