<svg width="225" height="215" viewBox="0 0 225 215" fill="none" xmlns="http://www.w3.org/2000/svg">
<path d="M10.2932 180.144C8.62919 180.144 7.12519 179.776 5.78119 179.04C4.45319 178.304 3.40519 177.288 2.63719 175.992C1.88519 174.68 1.50919 173.216 1.50919 171.6C1.50919 169.984 1.88519 168.528 2.63719 167.232C3.40519 165.92 4.46119 164.896 5.80519 164.16C7.14919 163.424 8.65319 163.056 10.3172 163.056C11.5652 163.056 12.7172 163.264 13.7732 163.68C14.8292 164.096 15.7252 164.704 16.4612 165.504L15.3332 166.632C14.0212 165.304 12.3652 164.64 10.3652 164.64C9.03719 164.64 7.82919 164.944 6.74119 165.552C5.65319 166.16 4.79719 166.992 4.17319 168.048C3.56519 169.104 3.26119 170.288 3.26119 171.6C3.26119 172.912 3.56519 174.096 4.17319 175.152C4.79719 176.208 5.65319 177.04 6.74119 177.648C7.82919 178.256 9.03719 178.56 10.3652 178.56C12.3812 178.56 14.0372 177.888 15.3332 176.544L16.4612 177.672C15.7252 178.472 14.8212 179.088 13.7492 179.52C12.6932 179.936 11.5412 180.144 10.2932 180.144ZM30.6304 167.376V180H28.9984V177.504C28.4864 178.352 27.8064 179 26.9584 179.448C26.1264 179.896 25.1824 180.12 24.1264 180.12C22.9424 180.12 21.8704 179.848 20.9104 179.304C19.9504 178.76 19.1984 178 18.6544 177.024C18.1104 176.048 17.8384 174.936 17.8384 173.688C17.8384 172.44 18.1104 171.328 18.6544 170.352C19.1984 169.376 19.9504 168.624 20.9104 168.096C21.8704 167.552 22.9424 167.28 24.1264 167.28C25.1504 167.28 26.0704 167.496 26.8864 167.928C27.7184 168.344 28.3984 168.96 28.9264 169.776V167.376H30.6304ZM24.2704 178.608C25.1504 178.608 25.9424 178.408 26.6464 178.008C27.3664 177.592 27.9264 177.008 28.3264 176.256C28.7424 175.504 28.9504 174.648 28.9504 173.688C28.9504 172.728 28.7424 171.872 28.3264 171.12C27.9264 170.368 27.3664 169.792 26.6464 169.392C25.9424 168.976 25.1504 168.768 24.2704 168.768C23.3744 168.768 22.5664 168.976 21.8464 169.392C21.1424 169.792 20.5824 170.368 20.1664 171.12C19.7664 171.872 19.5664 172.728 19.5664 173.688C19.5664 174.648 19.7664 175.504 20.1664 176.256C20.5824 177.008 21.1424 177.592 21.8464 178.008C22.5664 178.408 23.3744 178.608 24.2704 178.608ZM49.536 167.376V180H47.976V170.016L42.864 178.464H42.096L36.984 169.992V180H35.424V167.376H37.152L42.504 176.472L47.952 167.376H49.536ZM59.4009 180.264C57.6729 180.264 56.3449 179.84 55.4169 178.992C54.5049 178.128 54.0489 176.912 54.0489 175.344V167.376H55.7529V172.632C56.1369 172.168 56.6729 171.784 57.3609 171.48C58.0489 171.176 58.8489 171.024 59.7609 171.024C61.2969 171.024 62.4889 171.424 63.3369 172.224C64.2009 173.008 64.6329 174.08 64.6329 175.44C64.6329 176.384 64.4169 177.224 63.9849 177.96C63.5689 178.68 62.9609 179.248 62.1609 179.664C61.3769 180.064 60.4569 180.264 59.4009 180.264ZM66.6969 167.376H68.4009V180H66.6969V167.376ZM59.4489 178.944C60.5369 178.944 61.3849 178.624 61.9929 177.984C62.6009 177.328 62.9049 176.496 62.9049 175.488C62.9049 174.544 62.5929 173.784 61.9689 173.208C61.3449 172.616 60.4649 172.32 59.3289 172.32C58.4969 172.32 57.7689 172.496 57.1449 172.848C56.5369 173.2 56.0729 173.688 55.7529 174.312V175.464C55.7529 176.552 56.0649 177.408 56.6889 178.032C57.3289 178.64 58.2489 178.944 59.4489 178.944ZM78.6041 178.608C79.3881 178.608 80.1081 178.472 80.7641 178.2C81.4361 177.912 82.0041 177.496 82.4681 176.952L83.4281 178.056C82.8681 178.728 82.1721 179.24 81.3401 179.592C80.5081 179.944 79.5881 180.12 78.5801 180.12C77.2841 180.12 76.1321 179.848 75.1241 179.304C74.1161 178.744 73.3321 177.976 72.7721 177C72.2121 176.024 71.9321 174.92 71.9321 173.688C71.9321 172.456 72.1961 171.352 72.7241 170.376C73.2681 169.4 74.0121 168.64 74.9561 168.096C75.9001 167.552 76.9721 167.28 78.1721 167.28C79.2921 167.28 80.3001 167.536 81.1961 168.048C82.1081 168.56 82.8281 169.272 83.3561 170.184C83.9001 171.096 84.1881 172.136 84.2201 173.304L73.8521 175.32C74.1721 176.344 74.7481 177.152 75.5801 177.744C76.4281 178.32 77.4361 178.608 78.6041 178.608ZM78.1721 168.744C77.2921 168.744 76.5001 168.952 75.7961 169.368C75.1081 169.768 74.5641 170.336 74.1641 171.072C73.7801 171.792 73.5881 172.624 73.5881 173.568C73.5881 173.808 73.5961 173.984 73.6121 174.096L82.5161 172.368C82.3241 171.312 81.8361 170.448 81.0521 169.776C80.2681 169.088 79.3081 168.744 78.1721 168.744ZM99.2978 180.12C98.0498 180.12 96.9298 179.848 95.9378 179.304C94.9618 178.76 94.1938 178 93.6338 177.024C93.0738 176.032 92.7938 174.92 92.7938 173.688C92.7938 172.456 93.0738 171.352 93.6338 170.376C94.1938 169.4 94.9618 168.64 95.9378 168.096C96.9298 167.552 98.0498 167.28 99.2978 167.28C100.386 167.28 101.354 167.496 102.202 167.928C103.066 168.344 103.746 168.96 104.242 169.776L102.97 170.64C102.554 170.016 102.026 169.552 101.386 169.248C100.746 168.928 100.05 168.768 99.2978 168.768C98.3858 168.768 97.5618 168.976 96.8258 169.392C96.1058 169.792 95.5378 170.368 95.1217 171.12C94.7218 171.872 94.5218 172.728 94.5218 173.688C94.5218 174.664 94.7218 175.528 95.1217 176.28C95.5378 177.016 96.1058 177.592 96.8258 178.008C97.5618 178.408 98.3858 178.608 99.2978 178.608C100.05 178.608 100.746 178.456 101.386 178.152C102.026 177.848 102.554 177.384 102.97 176.76L104.242 177.624C103.746 178.44 103.066 179.064 102.202 179.496C101.338 179.912 100.37 180.12 99.2978 180.12ZM123.285 167.28C124.869 167.28 126.109 167.736 127.005 168.648C127.917 169.56 128.373 170.904 128.373 172.68V180H126.669V172.848C126.669 171.536 126.349 170.536 125.709 169.848C125.085 169.16 124.197 168.816 123.045 168.816C121.733 168.816 120.701 169.224 119.949 170.04C119.197 170.84 118.821 171.952 118.821 173.376V180H117.117V172.848C117.117 171.536 116.797 170.536 116.157 169.848C115.533 169.16 114.637 168.816 113.469 168.816C112.173 168.816 111.141 169.224 110.373 170.04C109.621 170.84 109.245 171.952 109.245 173.376V180H107.541V167.376H109.173V169.68C109.621 168.912 110.245 168.32 111.045 167.904C111.845 167.488 112.765 167.28 113.805 167.28C114.861 167.28 115.773 167.504 116.541 167.952C117.325 168.4 117.909 169.064 118.293 169.944C118.757 169.112 119.421 168.464 120.285 168C121.165 167.52 122.165 167.28 123.285 167.28ZM143.942 167.376V180H142.31V177.696C141.862 178.464 141.246 179.064 140.462 179.496C139.678 179.912 138.782 180.12 137.774 180.12C136.11 180.12 134.798 179.664 133.838 178.752C132.894 177.824 132.422 176.472 132.422 174.696V167.376H134.126V174.528C134.126 175.856 134.454 176.864 135.11 177.552C135.766 178.24 136.71 178.584 137.942 178.584C139.27 178.584 140.318 178.184 141.086 177.384C141.854 176.568 142.238 175.44 142.238 174V167.376H143.942ZM159.111 167.376V180H157.407V168.888H151.359L151.191 172.008C151.063 174.632 150.759 176.648 150.279 178.056C149.799 179.464 148.943 180.168 147.711 180.168C147.375 180.168 146.967 180.104 146.487 179.976L146.607 178.512C146.895 178.576 147.095 178.608 147.207 178.608C147.863 178.608 148.359 178.304 148.695 177.696C149.031 177.088 149.255 176.336 149.367 175.44C149.479 174.544 149.575 173.36 149.655 171.888L149.871 167.376H159.111ZM169.043 180.264C167.315 180.264 165.979 179.832 165.035 178.968C164.091 178.104 163.619 176.896 163.619 175.344V167.376H165.323V172.632C165.739 172.136 166.307 171.744 167.027 171.456C167.763 171.168 168.579 171.024 169.475 171.024C171.043 171.024 172.259 171.424 173.123 172.224C174.003 173.024 174.443 174.096 174.443 175.44C174.443 176.896 173.963 178.064 173.003 178.944C172.043 179.824 170.723 180.264 169.043 180.264ZM169.067 178.944C170.203 178.944 171.091 178.624 171.731 177.984C172.387 177.344 172.715 176.512 172.715 175.488C172.715 174.528 172.395 173.76 171.755 173.184C171.115 172.608 170.211 172.32 169.043 172.32C168.179 172.32 167.419 172.496 166.763 172.848C166.123 173.2 165.643 173.688 165.323 174.312V175.464C165.323 176.552 165.651 177.408 166.307 178.032C166.979 178.64 167.899 178.944 169.067 178.944ZM177.76 167.376H179.464V172.968H187.408V167.376H189.112V180H187.408V174.432H179.464V180H177.76V167.376ZM198.971 180.264C197.243 180.264 195.915 179.84 194.987 178.992C194.075 178.128 193.619 176.912 193.619 175.344V167.376H195.323V172.632C195.707 172.168 196.243 171.784 196.931 171.48C197.619 171.176 198.419 171.024 199.331 171.024C200.867 171.024 202.059 171.424 202.907 172.224C203.771 173.008 204.203 174.08 204.203 175.44C204.203 176.384 203.987 177.224 203.555 177.96C203.139 178.68 202.531 179.248 201.731 179.664C200.947 180.064 200.027 180.264 198.971 180.264ZM206.267 167.376H207.971V180H206.267V167.376ZM199.019 178.944C200.107 178.944 200.955 178.624 201.563 177.984C202.171 177.328 202.475 176.496 202.475 175.488C202.475 174.544 202.163 173.784 201.539 173.208C200.915 172.616 200.035 172.32 198.899 172.32C198.067 172.32 197.339 172.496 196.715 172.848C196.107 173.2 195.643 173.688 195.323 174.312V175.464C195.323 176.552 195.635 177.408 196.259 178.032C196.899 178.64 197.819 178.944 199.019 178.944ZM218.174 178.608C218.958 178.608 219.678 178.472 220.334 178.2C221.006 177.912 221.574 177.496 222.038 176.952L222.998 178.056C222.438 178.728 221.742 179.24 220.91 179.592C220.078 179.944 219.158 180.12 218.15 180.12C216.854 180.12 215.702 179.848 214.694 179.304C213.686 178.744 212.902 177.976 212.342 177C211.782 176.024 211.502 174.92 211.502 173.688C211.502 172.456 211.766 171.352 212.294 170.376C212.838 169.4 213.582 168.64 214.526 168.096C215.47 167.552 216.542 167.28 217.742 167.28C218.862 167.28 219.87 167.536 220.766 168.048C221.678 168.56 222.398 169.272 222.926 170.184C223.47 171.096 223.758 172.136 223.79 173.304L213.422 175.32C213.742 176.344 214.318 177.152 215.15 177.744C215.998 178.32 217.006 178.608 218.174 178.608ZM217.742 168.744C216.862 168.744 216.07 168.952 215.366 169.368C214.678 169.768 214.134 170.336 213.734 171.072C213.35 171.792 213.158 172.624 213.158 173.568C213.158 173.808 213.166 173.984 213.182 174.096L222.086 172.368C221.894 171.312 221.406 170.448 220.622 169.776C219.838 169.088 218.878 168.744 217.742 168.744ZM68.9893 196.688C70.1573 196.688 71.1973 196.952 72.1093 197.48C73.0373 197.992 73.7573 198.72 74.2693 199.664C74.7813 200.592 75.0373 201.656 75.0373 202.856C75.0373 204.088 74.7653 205.184 74.2213 206.144C73.6933 207.088 72.9493 207.824 71.9893 208.352C71.0293 208.88 69.9253 209.144 68.6773 209.144C66.5813 209.144 64.9573 208.408 63.8053 206.936C62.6533 205.464 62.0773 203.432 62.0773 200.84C62.0773 198.136 62.5893 196.064 63.6133 194.624C64.6533 193.184 66.2693 192.208 68.4613 191.696L74.1253 190.4L74.4133 191.96L69.0853 193.184C67.2773 193.584 65.9493 194.296 65.1013 195.32C64.2533 196.328 63.7893 197.824 63.7093 199.808C64.2213 198.832 64.9333 198.072 65.8453 197.528C66.7573 196.968 67.8053 196.688 68.9893 196.688ZM68.7253 207.728C69.6053 207.728 70.3893 207.528 71.0773 207.128C71.7813 206.712 72.3253 206.136 72.7093 205.4C73.1093 204.664 73.3093 203.832 73.3093 202.904C73.3093 201.976 73.1173 201.16 72.7333 200.456C72.3493 199.752 71.8053 199.208 71.1013 198.824C70.4133 198.424 69.6213 198.224 68.7253 198.224C67.8293 198.224 67.0293 198.424 66.3253 198.824C65.6373 199.208 65.0933 199.752 64.6933 200.456C64.3093 201.16 64.1173 201.976 64.1173 202.904C64.1173 203.832 64.3093 204.664 64.6933 205.4C65.0933 206.136 65.6453 206.712 66.3493 207.128C67.0533 207.528 67.8453 207.728 68.7253 207.728ZM90.0176 196.376V207.464C90.0176 209.608 89.5296 211.192 88.5536 212.216C87.5776 213.256 86.1056 213.776 84.1376 213.776C83.0336 213.776 81.9856 213.6 80.9936 213.248C80.0176 212.912 79.2256 212.44 78.6176 211.832L79.4816 210.536C80.0256 211.08 80.6976 211.504 81.4976 211.808C82.2976 212.112 83.1536 212.264 84.0656 212.264C85.5216 212.264 86.5936 211.888 87.2816 211.136C87.9696 210.4 88.3136 209.248 88.3136 207.68V206.216C87.8656 206.952 87.2496 207.52 86.4656 207.92C85.6976 208.32 84.8256 208.52 83.8496 208.52C82.2016 208.52 80.8976 208.064 79.9376 207.152C78.9936 206.224 78.5216 204.872 78.5216 203.096V196.376H80.2256V202.928C80.2256 204.256 80.5536 205.264 81.2096 205.952C81.8656 206.64 82.8016 206.984 84.0176 206.984C85.3456 206.984 86.3936 206.584 87.1616 205.784C87.9296 204.968 88.3136 203.84 88.3136 202.4V196.376H90.0176ZM99.4221 203.384H96.5421V209H94.8381V196.376H96.5421V201.92H99.4461L103.886 196.376H105.734L100.766 202.496L106.094 209H104.078L99.4221 203.384ZM113.69 207.608C114.474 207.608 115.194 207.472 115.85 207.2C116.522 206.912 117.09 206.496 117.554 205.952L118.514 207.056C117.954 207.728 117.258 208.24 116.426 208.592C115.594 208.944 114.674 209.12 113.666 209.12C112.37 209.12 111.218 208.848 110.21 208.304C109.202 207.744 108.418 206.976 107.858 206C107.298 205.024 107.018 203.92 107.018 202.688C107.018 201.456 107.282 200.352 107.81 199.376C108.354 198.4 109.098 197.64 110.042 197.096C110.986 196.552 112.058 196.28 113.258 196.28C114.378 196.28 115.386 196.536 116.282 197.048C117.194 197.56 117.914 198.272 118.442 199.184C118.986 200.096 119.274 201.136 119.306 202.304L108.938 204.32C109.258 205.344 109.834 206.152 110.666 206.744C111.514 207.32 112.522 207.608 113.69 207.608ZM113.258 197.744C112.378 197.744 111.586 197.952 110.882 198.368C110.194 198.768 109.65 199.336 109.25 200.072C108.866 200.792 108.674 201.624 108.674 202.568C108.674 202.808 108.682 202.984 108.698 203.096L117.602 201.368C117.41 200.312 116.922 199.448 116.138 198.776C115.354 198.088 114.394 197.744 113.258 197.744ZM138.566 196.28C140.15 196.28 141.39 196.736 142.286 197.648C143.198 198.56 143.654 199.904 143.654 201.68V209H141.95V201.848C141.95 200.536 141.63 199.536 140.99 198.848C140.366 198.16 139.478 197.816 138.326 197.816C137.014 197.816 135.982 198.224 135.23 199.04C134.478 199.84 134.102 200.952 134.102 202.376V209H132.398V201.848C132.398 200.536 132.078 199.536 131.438 198.848C130.814 198.16 129.918 197.816 128.75 197.816C127.454 197.816 126.422 198.224 125.654 199.04C124.902 199.84 124.526 200.952 124.526 202.376V209H122.822V196.376H124.454V198.68C124.902 197.912 125.526 197.32 126.326 196.904C127.126 196.488 128.046 196.28 129.086 196.28C130.142 196.28 131.054 196.504 131.822 196.952C132.606 197.4 133.19 198.064 133.574 198.944C134.038 198.112 134.702 197.464 135.566 197C136.446 196.52 137.446 196.28 138.566 196.28ZM153.128 209.264C151.4 209.264 150.072 208.84 149.144 207.992C148.232 207.128 147.776 205.912 147.776 204.344V196.376H149.48V201.632C149.864 201.168 150.4 200.784 151.088 200.48C151.776 200.176 152.576 200.024 153.488 200.024C155.024 200.024 156.216 200.424 157.064 201.224C157.928 202.008 158.359 203.08 158.359 204.44C158.359 205.384 158.144 206.224 157.712 206.96C157.296 207.68 156.688 208.248 155.888 208.664C155.104 209.064 154.184 209.264 153.128 209.264ZM160.424 196.376H162.128V209H160.424V196.376ZM153.176 207.944C154.264 207.944 155.112 207.624 155.72 206.984C156.328 206.328 156.632 205.496 156.632 204.488C156.632 203.544 156.32 202.784 155.696 202.208C155.072 201.616 154.192 201.32 153.056 201.32C152.224 201.32 151.496 201.496 150.872 201.848C150.264 202.2 149.8 202.688 149.48 203.312V204.464C149.48 205.552 149.792 206.408 150.416 207.032C151.056 207.64 151.976 207.944 153.176 207.944Z" fill="black"/>
<path d="M163.606 41.7721L163.63 41.9487L163.804 41.9838L169.11 43.0519L163.804 44.1201L163.63 44.1552L163.606 44.3318L162.779 50.4658L161.952 44.3318L161.929 44.1552L161.754 44.1201L156.448 43.0519L161.754 41.9838L161.929 41.9487L161.952 41.7721L162.779 35.6381L163.606 41.7721Z" stroke="black" stroke-width="0.5"/>
<path d="M159.257 103.283L159.28 103.46L159.454 103.496L169.152 105.519L159.454 107.543L159.28 107.579L159.257 107.756L157.714 119.62L156.171 107.756L156.148 107.579L155.974 107.543L146.276 105.519L155.974 103.496L156.148 103.46L156.171 103.283L157.714 91.4192L159.257 103.283Z" stroke="black" stroke-width="0.5"/>
<path d="M47.3507 81.8106L47.3719 81.9859L47.5441 82.0246L54.4307 83.5714L47.5441 85.1182L47.3719 85.1569L47.3507 85.3321L46.2857 94.149L45.2207 85.3321L45.1995 85.1569L45.0273 85.1182L38.1408 83.5714L45.0273 82.0246L45.1995 81.9859L45.2207 81.8106L46.2857 72.9938L47.3507 81.8106Z" stroke="black" stroke-width="0.5"/>
<path d="M87.3924 7.27638L87.4125 7.45086L87.5835 7.4911L91.6227 8.44156L87.5835 9.39202L87.4125 9.43225L87.3924 9.60674L86.8051 14.7005L86.2178 9.60674L86.1977 9.43225L86.0267 9.39202L81.9875 8.44156L86.0267 7.4911L86.1977 7.45086L86.2178 7.27638L86.8051 2.1826L87.3924 7.27638Z" stroke="black" stroke-width="0.5"/>
<path d="M132.492 12.1079L132.516 12.2846L132.691 12.3192L138.698 13.5065L132.691 14.6938L132.516 14.7284L132.492 14.9051L131.546 21.798L130.599 14.9051L130.575 14.7284L130.4 14.6938L124.393 13.5065L130.4 12.3192L130.575 12.2846L130.599 12.1079L131.546 5.21505L132.492 12.1079Z" stroke="black" stroke-width="0.5"/>
<path d="M54.8283 39.6002L54.8473 39.7737L55.0168 39.8156L61.2823 41.3636L55.0168 42.9117L54.8473 42.9535L54.8283 43.1271L53.883 51.7356L52.9377 43.1271L52.9186 42.9535L52.7491 42.9117L46.4837 41.3636L52.7491 39.8156L52.9186 39.7737L52.9377 39.6002L53.883 30.9916L54.8283 39.6002Z" stroke="black" stroke-width="0.5"/>
<path d="M173.981 71.6629L173.995 71.828L174.152 71.8798L176.331 72.5974L174.152 73.315L173.995 73.3669L173.981 73.532L173.753 76.3049L173.525 73.532L173.511 73.3669L173.354 73.315L171.175 72.5974L173.354 71.8798L173.511 71.828L173.525 71.6629L173.753 68.89L173.981 71.6629Z" stroke="black" stroke-width="0.5"/>
<path d="M103.073 122.312L103.086 122.477L103.244 122.529L105.422 123.247L103.244 123.964L103.086 124.016L103.073 124.181L102.844 126.954L102.616 124.181L102.602 124.016L102.445 123.964L100.267 123.247L102.445 122.529L102.602 122.477L102.616 122.312L102.844 119.539L103.073 122.312Z" stroke="black" stroke-width="0.5"/>
<path d="M92.7142 99.6104C85.961 101.299 87.6493 103.831 81.7402 106.364C75.8311 108.896 76.6753 109.74 73.2986 108.896C69.922 108.052 77.5194 112.273 56.4155 108.052" stroke="black" stroke-linecap="round"/>
<path d="M87.6494 96.2338C83.5974 97.5844 80.052 102.143 78.3637 102.987C76.9567 104.394 73.1299 107.377 69.0779 108.052C65.026 108.727 59.5108 108.333 57.2598 108.052" stroke="black" stroke-linecap="round"/>
<path d="M109.597 102.987C115.675 107.714 119.727 110.866 120.571 110.584C123.385 111.429 129.013 114.636 129.013 120.714C129.013 126.792 137.454 126.623 141.675 124.091C139.143 124.091 136.272 124.597 134.922 123.247C133.234 121.558 129.013 117.338 129.013 115.649C129.013 113.961 129.857 113.117 129.013 111.429C128.337 110.078 122.26 104.957 119.727 102.987" stroke="black" stroke-linecap="round"/>
<path d="M127.325 99.6104C134.078 105.52 133.234 105.52 134.922 108.896C136.61 112.273 139.987 115.649 139.143 118.182" stroke="black" stroke-linecap="round"/>
<path d="M123.948 102.987C131.546 108.896 129.013 105.519 132.39 108.052C135.766 110.584 138.104 114.091 139.143 118.182" stroke="black" stroke-linecap="round"/>
<path d="M106.221 102.987L95.2469 110.584C93.5586 112.554 89.8443 116.325 88.4936 115.649C86.8053 114.805 85.9612 114.805 83.4287 115.649C80.8962 116.493 80.8962 120.714 79.2079 120.714C77.5196 120.714 75.8313 118.182 68.2339 124.091" stroke="black" stroke-linecap="round"/>
<path d="M94.4027 100.455C94.4027 100.455 91.7543 105.43 89.3378 108.052C86.2991 111.349 83.6459 112.124 80.0521 114.805C75.7184 118.038 68.2339 124.091 68.2339 124.091" stroke="black" stroke-linecap="round"/>
<path d="M130.701 60.7792C128.169 57.4026 126.481 54.026 127.325 51.4935" stroke="black" stroke-linecap="round"/>
<path d="M127.325 43.8961C128.169 44.7403 130.195 47.4416 128.169 48.1169C125.636 48.9611 118.039 54.026 117.195 56.5585C116.52 58.5844 113.818 60.4979 112.974 60.7792" stroke="black" stroke-linecap="round"/>
<path d="M90.1819 41.3636C90.1819 45.0217 89.0001 52.3377 87.6494 52.3377" stroke="black" stroke-linecap="round"/>
<path d="M91.8701 43.052C94.5714 39 99.7489 36.8614 102 37.1428C102.281 34.8917 103.857 30.7273 107.909 32.0779C112.974 33.7662 113.818 34.6105 114.662 36.2987C115.417 37.8089 120.571 35.4546 120.571 40.5195C120.571 44.5715 119.727 45.5844 118.039 47.2728" stroke="black" stroke-linecap="round"/>
<path d="M123.104 65C121.697 64.7186 114.494 62.9742 113.818 61.6235C112.974 59.9352 111.286 61.6235 104.533 61.6235C99.13 61.6235 95.5283 59.9351 94.4027 59.0909C93.2772 59.6537 90.8573 60.4415 90.1819 59.0909C89.3378 57.4026 85.117 49.8052 85.9612 47.2727" stroke="black" stroke-linecap="round"/>
<path d="M96.0911 45.5844C94.9656 43.8961 95.0781 42.039 97.7794 41.3636C101.156 40.5195 102 41.3636 104.533 39.6753C107.065 37.987 107.065 36.2987 109.598 36.2987C112.13 36.2987 114.663 38.8312 114.663 41.3636C114.663 43.8961 116.351 47.2727 114.663 48.961" stroke="black" stroke-linecap="round"/>
<path d="M110.441 51.4936C107.628 49.2426 100.818 44.9092 96.0908 45.5846" stroke="black" stroke-linecap="round"/>
<path d="M113.818 47.2727C109.091 49.2987 105.095 48.1169 103.688 47.2727" stroke="black" stroke-linecap="round"/>
<path d="M97.7793 45.5844C98.3421 45.5844 101.494 44.4025 102.844 43.0519C104.533 41.3636 106.221 39.6752 108.753 40.5194C111.286 41.3636 113.818 41.3636 112.974 43.0519C112.13 44.7402 112.974 43.8959 110.442 44.7402C108.416 45.4156 105.377 46.9914 103.688 47.2727" stroke="black" stroke-linecap="round"/>
<path d="M133.234 73.4415C133.797 74.2857 134.585 77.4935 133.234 80.1948C131.546 83.5714 129.013 83.5714 128.169 86.948C127.325 90.3246 125.637 94.5454 123.104 97.0779C120.572 99.6104 114.663 102.987 110.442 102.987C107.065 102.987 105.377 102.987 106.221 102.987" stroke="black" stroke-linecap="round"/>
<path d="M80.8962 43.0519C79.4893 44.7403 74.6495 48.961 73.2988 48.961C71.6105 48.961 71.6105 51.4935 69.078 54.026C66.5456 56.5584 65.7014 56.5584 65.7014 59.9351C65.7014 63.3117 64.8573 65 64.0131 65.8441C63.1689 66.6883 65.7014 66.6883 65.7014 70.9091C65.7014 75.1299 66.5456 71.7532 71.6105 80.1948C76.6755 88.6364 69.9222 75.1299 83.4287 85.2597C96.9352 95.3896 88.4936 90.3247 96.091 89.4805C102.169 88.8052 104.251 92.013 104.533 93.7013C105.658 94.5454 108.078 97.0779 108.753 100.455C109.429 103.831 110.723 103.55 111.286 102.987" stroke="black" stroke-linecap="round"/>
<path d="M75.8311 62.4675C76.1124 62.1861 76.844 62.6363 77.5194 66.6882C78.3635 71.7532 77.5194 70.9091 80.0518 73.4415C82.0778 75.4675 87.0865 78.7878 89.3375 80.1948C91.87 81.6017 97.6103 84.7532 100.312 86.1039C103.688 87.7922 108.753 92.8571 108.753 95.3896C108.753 97.922 113.818 102.987 111.286 103.831" stroke="black" stroke-linecap="round"/>
<path d="M127.325 51.4935L129.013 47.2727C132.31 49.5803 137.455 53.1818 137.455 53.1818C137.455 53.1818 148.597 59.0909 145.896 62.4675C143.195 65.8441 142.52 65 141.675 62.4675C140.831 66.1255 138.13 73.4415 134.078 73.4415C129.013 73.4415 127.325 75.1298 125.636 76.8182C123.948 78.5065 112.974 78.5065 112.974 75.1298C112.974 72.4285 103.407 71.7532 98.6234 71.7532C97.7793 71.1905 95.4156 70.7402 92.7143 73.4415C90.0131 76.1428 88.2122 77.9437 87.6494 78.5065" stroke="black" stroke-linecap="round"/>
<path d="M134.078 59.0909C128 63.1428 123.104 65.2814 121.416 65.8441L107.909 68.3766C104.814 67.8138 96.2599 69.8961 93.5586 72.5974" stroke="black" stroke-linecap="round"/>
<path d="M87.6494 78.5065C87.6494 75.974 86.8052 67.8701 83.4286 65.8442C79.2078 63.3117 77.5195 59.0909 77.5195 56.5585C77.5195 54.5325 80.3334 44.4589 81.7403 39.6753L83.4286 31.2338C83.9914 31.2338 86.6364 30.7273 92.7143 28.7013C100.312 26.1688 96.091 25.3247 104.533 27.013C113.312 30.3896 121.134 31.2338 123.948 31.2338L127.325 33.7663C127.887 34.6104 128.844 37.1429 128.169 40.5195C127.494 43.8961 121.697 50.6494 119.727 53.1818" stroke="black" stroke-linecap="round"/>
<path d="M80.896 74.2857C80.896 74.2857 82.2866 65.339 84.2726 59.935C85.1387 57.5785 87.6492 52.3376 87.6492 52.3376" stroke="black" stroke-linecap="round"/>
<path d="M123.104 65C121.978 63.8745 117.701 60.7791 116.351 60.7791C115 60.7791 111.286 59.6536 109.597 59.0908L96.0908 57.4025C93.8397 57.1211 89.1687 56.0518 88.4934 54.0259C87.6492 51.4934 85.9609 50.6492 85.9609 48.1168C85.9609 45.5843 86.8051 43.0518 88.4934 43.896" stroke="black" stroke-linecap="round"/>
<path d="M108.753 59.0909C107.628 57.1212 100.481 51.1558 97.7793 49.8052C94.4027 48.1169 92.7144 44.7402 91.026 42.2078C89.3377 39.6753 87.6494 37.1428 88.4936 33.7662C89.3377 30.3896 92.7145 30.3896 94.4028 30.3896C96.0911 30.3896 106.221 31.2337 107.909 32.0779" stroke="black" stroke-linecap="round"/>
<path d="M112.13 31.2338C114.831 31.9091 116.632 34.329 117.195 35.4545L123.948 37.1429C125.074 37.1429 126.649 37.8182 123.948 40.5195C120.572 43.8961 125.636 42.2078 117.195 48.1169C110.442 52.8442 104.533 52.9004 102.844 53.1818" stroke="black" stroke-linecap="round"/>
<path d="M134.078 75.1299C136.048 74.0044 140.663 72.0909 143.364 73.4416C146.065 74.7922 144.489 76.8182 143.364 77.6624C142.238 77.381 139.818 76.987 139.143 77.6624C138.299 78.5065 137.455 87.7922 135.766 89.4805C134.078 91.1689 134.078 92.8572 127.325 99.6104C120.572 106.364 124.792 102.987 119.727 102.987C114.663 102.987 112.974 104.675 107.065 102.987C101.156 101.299 98.6236 103.831 90.182 97.9221C81.7405 92.013 81.7405 90.3247 80.8963 87.7922C80.221 85.7663 80.6149 84.4156 80.8963 83.5715" stroke="black" stroke-linecap="round"/>
<path d="M110.441 48.1169L111.286 44.7402" stroke="black" stroke-linecap="round"/>
<path d="M103.688 43.8961L105.376 45.5844L110.441 44.7402C110.441 44.1775 109.428 42.8831 105.376 42.2078C103.35 42.2078 103.407 43.3333 103.688 43.8961Z" stroke="black" stroke-linecap="round"/>
</svg>
