<svg width="184" height="226" viewBox="0 0 184 226" fill="none" xmlns="http://www.w3.org/2000/svg">
<path d="M10.2893 191.144C8.62528 191.144 7.12128 190.776 5.77728 190.04C4.44928 189.304 3.40128 188.288 2.63328 186.992C1.88128 185.68 1.50528 184.216 1.50528 182.6C1.50528 180.984 1.88128 179.528 2.63328 178.232C3.40128 176.92 4.45728 175.896 5.80128 175.16C7.14528 174.424 8.64928 174.056 10.3133 174.056C11.5613 174.056 12.7133 174.264 13.7693 174.68C14.8253 175.096 15.7213 175.704 16.4573 176.504L15.3293 177.632C14.0173 176.304 12.3613 175.64 10.3613 175.64C9.03328 175.64 7.82528 175.944 6.73728 176.552C5.64928 177.16 4.79328 177.992 4.16928 179.048C3.56128 180.104 3.25728 181.288 3.25728 182.6C3.25728 183.912 3.56128 185.096 4.16928 186.152C4.79328 187.208 5.64928 188.04 6.73728 188.648C7.82528 189.256 9.03328 189.56 10.3613 189.56C12.3773 189.56 14.0333 188.888 15.3293 187.544L16.4573 188.672C15.7213 189.472 14.8173 190.088 13.7453 190.52C12.6893 190.936 11.5373 191.144 10.2893 191.144ZM30.6265 178.376V191H28.9945V188.504C28.4825 189.352 27.8025 190 26.9545 190.448C26.1225 190.896 25.1785 191.12 24.1225 191.12C22.9385 191.12 21.8665 190.848 20.9065 190.304C19.9465 189.76 19.1945 189 18.6505 188.024C18.1065 187.048 17.8345 185.936 17.8345 184.688C17.8345 183.44 18.1065 182.328 18.6505 181.352C19.1945 180.376 19.9465 179.624 20.9065 179.096C21.8665 178.552 22.9385 178.28 24.1225 178.28C25.1465 178.28 26.0665 178.496 26.8825 178.928C27.7145 179.344 28.3945 179.96 28.9225 180.776V178.376H30.6265ZM24.2665 189.608C25.1465 189.608 25.9385 189.408 26.6425 189.008C27.3625 188.592 27.9225 188.008 28.3225 187.256C28.7385 186.504 28.9465 185.648 28.9465 184.688C28.9465 183.728 28.7385 182.872 28.3225 182.12C27.9225 181.368 27.3625 180.792 26.6425 180.392C25.9385 179.976 25.1465 179.768 24.2665 179.768C23.3705 179.768 22.5625 179.976 21.8425 180.392C21.1385 180.792 20.5785 181.368 20.1625 182.12C19.7625 182.872 19.5625 183.728 19.5625 184.688C19.5625 185.648 19.7625 186.504 20.1625 187.256C20.5785 188.008 21.1385 188.592 21.8425 189.008C22.5625 189.408 23.3705 189.608 24.2665 189.608ZM49.5321 178.376V191H47.9721V181.016L42.8601 189.464H42.0921L36.9801 180.992V191H35.4201V178.376H37.1481L42.5001 187.472L47.9481 178.376H49.5321ZM59.397 191.264C57.669 191.264 56.341 190.84 55.413 189.992C54.501 189.128 54.045 187.912 54.045 186.344V178.376H55.749V183.632C56.133 183.168 56.669 182.784 57.357 182.48C58.045 182.176 58.845 182.024 59.757 182.024C61.293 182.024 62.485 182.424 63.333 183.224C64.197 184.008 64.629 185.08 64.629 186.44C64.629 187.384 64.413 188.224 63.981 188.96C63.565 189.68 62.957 190.248 62.157 190.664C61.373 191.064 60.453 191.264 59.397 191.264ZM66.693 178.376H68.397V191H66.693V178.376ZM59.445 189.944C60.533 189.944 61.381 189.624 61.989 188.984C62.597 188.328 62.901 187.496 62.901 186.488C62.901 185.544 62.589 184.784 61.965 184.208C61.341 183.616 60.461 183.32 59.325 183.32C58.493 183.32 57.765 183.496 57.141 183.848C56.533 184.2 56.069 184.688 55.749 185.312V186.464C55.749 187.552 56.061 188.408 56.685 189.032C57.325 189.64 58.245 189.944 59.445 189.944ZM78.6002 189.608C79.3842 189.608 80.1042 189.472 80.7602 189.2C81.4322 188.912 82.0002 188.496 82.4642 187.952L83.4242 189.056C82.8642 189.728 82.1682 190.24 81.3362 190.592C80.5042 190.944 79.5842 191.12 78.5762 191.12C77.2802 191.12 76.1282 190.848 75.1202 190.304C74.1122 189.744 73.3282 188.976 72.7682 188C72.2082 187.024 71.9282 185.92 71.9282 184.688C71.9282 183.456 72.1922 182.352 72.7202 181.376C73.2642 180.4 74.0082 179.64 74.9522 179.096C75.8962 178.552 76.9682 178.28 78.1682 178.28C79.2882 178.28 80.2962 178.536 81.1922 179.048C82.1042 179.56 82.8242 180.272 83.3522 181.184C83.8962 182.096 84.1842 183.136 84.2162 184.304L73.8482 186.32C74.1682 187.344 74.7442 188.152 75.5762 188.744C76.4242 189.32 77.4322 189.608 78.6002 189.608ZM78.1682 179.744C77.2882 179.744 76.4962 179.952 75.7922 180.368C75.1042 180.768 74.5602 181.336 74.1602 182.072C73.7762 182.792 73.5842 183.624 73.5842 184.568C73.5842 184.808 73.5922 184.984 73.6082 185.096L82.5122 183.368C82.3202 182.312 81.8322 181.448 81.0482 180.776C80.2642 180.088 79.3042 179.744 78.1682 179.744ZM99.2938 191.12C98.0458 191.12 96.9258 190.848 95.9338 190.304C94.9578 189.76 94.1898 189 93.6298 188.024C93.0698 187.032 92.7898 185.92 92.7898 184.688C92.7898 183.456 93.0698 182.352 93.6298 181.376C94.1898 180.4 94.9578 179.64 95.9338 179.096C96.9258 178.552 98.0458 178.28 99.2938 178.28C100.382 178.28 101.35 178.496 102.198 178.928C103.062 179.344 103.742 179.96 104.238 180.776L102.966 181.64C102.55 181.016 102.022 180.552 101.382 180.248C100.742 179.928 100.046 179.768 99.2938 179.768C98.3818 179.768 97.5578 179.976 96.8218 180.392C96.1018 180.792 95.5338 181.368 95.1178 182.12C94.7178 182.872 94.5178 183.728 94.5178 184.688C94.5178 185.664 94.7178 186.528 95.1178 187.28C95.5338 188.016 96.1018 188.592 96.8218 189.008C97.5578 189.408 98.3818 189.608 99.2938 189.608C100.046 189.608 100.742 189.456 101.382 189.152C102.022 188.848 102.55 188.384 102.966 187.76L104.238 188.624C103.742 189.44 103.062 190.064 102.198 190.496C101.334 190.912 100.366 191.12 99.2938 191.12ZM115.577 184.472C117.289 184.872 118.145 185.904 118.145 187.568C118.145 188.672 117.737 189.52 116.921 190.112C116.105 190.704 114.889 191 113.273 191H107.537V178.376H113.105C114.545 178.376 115.673 178.656 116.489 179.216C117.305 179.776 117.713 180.576 117.713 181.616C117.713 182.304 117.521 182.896 117.137 183.392C116.769 183.872 116.249 184.232 115.577 184.472ZM109.193 183.992H112.985C113.961 183.992 114.705 183.808 115.217 183.44C115.745 183.072 116.009 182.536 116.009 181.832C116.009 181.128 115.745 180.6 115.217 180.248C114.705 179.896 113.961 179.72 112.985 179.72H109.193V183.992ZM113.201 189.656C114.289 189.656 115.105 189.48 115.649 189.128C116.193 188.776 116.465 188.224 116.465 187.472C116.465 186.72 116.217 186.168 115.721 185.816C115.225 185.448 114.441 185.264 113.369 185.264H109.193V189.656H113.201ZM127.491 189.608C128.275 189.608 128.995 189.472 129.651 189.2C130.323 188.912 130.891 188.496 131.355 187.952L132.315 189.056C131.755 189.728 131.059 190.24 130.227 190.592C129.395 190.944 128.475 191.12 127.467 191.12C126.171 191.12 125.019 190.848 124.011 190.304C123.003 189.744 122.219 188.976 121.659 188C121.099 187.024 120.819 185.92 120.819 184.688C120.819 183.456 121.083 182.352 121.611 181.376C122.155 180.4 122.899 179.64 123.843 179.096C124.787 178.552 125.859 178.28 127.059 178.28C128.179 178.28 129.187 178.536 130.083 179.048C130.995 179.56 131.715 180.272 132.243 181.184C132.787 182.096 133.075 183.136 133.107 184.304L122.739 186.32C123.059 187.344 123.635 188.152 124.467 188.744C125.315 189.32 126.323 189.608 127.491 189.608ZM127.059 179.744C126.179 179.744 125.387 179.952 124.683 180.368C123.995 180.768 123.451 181.336 123.051 182.072C122.667 182.792 122.475 183.624 122.475 184.568C122.475 184.808 122.483 184.984 122.499 185.096L131.403 183.368C131.211 182.312 130.723 181.448 129.939 180.776C129.155 180.088 128.195 179.744 127.059 179.744ZM147.336 185.384H144.6V191H142.896V185.384H140.16L136.296 191H134.256L138.792 184.496L134.616 178.376H136.464L140.16 183.92H142.896V178.376H144.6V183.92H147.336L151.056 178.376H152.904L148.728 184.52L153.264 191H151.224L147.336 185.384ZM166.977 178.376V191H165.345V188.696C164.897 189.464 164.281 190.064 163.497 190.496C162.713 190.912 161.817 191.12 160.809 191.12C159.145 191.12 157.833 190.664 156.873 189.752C155.929 188.824 155.457 187.472 155.457 185.696V178.376H157.161V185.528C157.161 186.856 157.489 187.864 158.145 188.552C158.801 189.24 159.745 189.584 160.977 189.584C162.305 189.584 163.353 189.184 164.121 188.384C164.889 187.568 165.273 186.44 165.273 185V178.376H166.977ZM177.178 189.608C177.962 189.608 178.682 189.472 179.338 189.2C180.01 188.912 180.578 188.496 181.042 187.952L182.002 189.056C181.442 189.728 180.746 190.24 179.914 190.592C179.082 190.944 178.162 191.12 177.154 191.12C175.858 191.12 174.706 190.848 173.698 190.304C172.69 189.744 171.906 188.976 171.346 188C170.786 187.024 170.506 185.92 170.506 184.688C170.506 183.456 170.77 182.352 171.298 181.376C171.842 180.4 172.586 179.64 173.53 179.096C174.474 178.552 175.546 178.28 176.746 178.28C177.866 178.28 178.874 178.536 179.77 179.048C180.682 179.56 181.402 180.272 181.93 181.184C182.474 182.096 182.762 183.136 182.794 184.304L172.426 186.32C172.746 187.344 173.322 188.152 174.154 188.744C175.002 189.32 176.01 189.608 177.178 189.608ZM176.746 179.744C175.866 179.744 175.074 179.952 174.37 180.368C173.682 180.768 173.138 181.336 172.738 182.072C172.354 182.792 172.162 183.624 172.162 184.568C172.162 184.808 172.17 184.984 172.186 185.096L181.09 183.368C180.898 182.312 180.41 181.448 179.626 180.776C178.842 180.088 177.882 179.744 176.746 179.744ZM62.7518 218.512V223.168H61.1438V220H49.5998V207.376H51.3038V218.512H59.0078V207.376H60.7118V218.512H62.7518ZM74.046 213.472C75.758 213.872 76.614 214.904 76.614 216.568C76.614 217.672 76.206 218.52 75.39 219.112C74.574 219.704 73.358 220 71.742 220H66.006V207.376H71.574C73.014 207.376 74.142 207.656 74.958 208.216C75.774 208.776 76.182 209.576 76.182 210.616C76.182 211.304 75.99 211.896 75.606 212.392C75.238 212.872 74.718 213.232 74.046 213.472ZM67.662 212.992H71.454C72.43 212.992 73.174 212.808 73.686 212.44C74.214 212.072 74.478 211.536 74.478 210.832C74.478 210.128 74.214 209.6 73.686 209.248C73.174 208.896 72.43 208.72 71.454 208.72H67.662V212.992ZM71.67 218.656C72.758 218.656 73.574 218.48 74.118 218.128C74.662 217.776 74.934 217.224 74.934 216.472C74.934 215.72 74.686 215.168 74.19 214.816C73.694 214.448 72.91 214.264 71.838 214.264H67.662V218.656H71.67ZM85.9596 218.608C86.7436 218.608 87.4636 218.472 88.1196 218.2C88.7916 217.912 89.3596 217.496 89.8236 216.952L90.7836 218.056C90.2236 218.728 89.5276 219.24 88.6956 219.592C87.8636 219.944 86.9436 220.12 85.9356 220.12C84.6396 220.12 83.4876 219.848 82.4796 219.304C81.4716 218.744 80.6876 217.976 80.1276 217C79.5676 216.024 79.2876 214.92 79.2876 213.688C79.2876 212.456 79.5516 211.352 80.0796 210.376C80.6236 209.4 81.3676 208.64 82.3116 208.096C83.2556 207.552 84.3276 207.28 85.5276 207.28C86.6476 207.28 87.6556 207.536 88.5516 208.048C89.4636 208.56 90.1836 209.272 90.7116 210.184C91.2556 211.096 91.5436 212.136 91.5756 213.304L81.2076 215.32C81.5276 216.344 82.1036 217.152 82.9356 217.744C83.7836 218.32 84.7916 218.608 85.9596 218.608ZM85.5276 208.744C84.6476 208.744 83.8556 208.952 83.1516 209.368C82.4636 209.768 81.9196 210.336 81.5196 211.072C81.1356 211.792 80.9436 212.624 80.9436 213.568C80.9436 213.808 80.9516 213.984 80.9676 214.096L89.8716 212.368C89.6796 211.312 89.1916 210.448 88.4076 209.776C87.6236 209.088 86.6636 208.744 85.5276 208.744ZM110.836 207.28C112.42 207.28 113.66 207.736 114.556 208.648C115.468 209.56 115.924 210.904 115.924 212.68V220H114.22V212.848C114.22 211.536 113.9 210.536 113.26 209.848C112.636 209.16 111.748 208.816 110.596 208.816C109.284 208.816 108.252 209.224 107.5 210.04C106.748 210.84 106.372 211.952 106.372 213.376V220H104.668V212.848C104.668 211.536 104.348 210.536 103.708 209.848C103.084 209.16 102.188 208.816 101.02 208.816C99.724 208.816 98.692 209.224 97.924 210.04C97.172 210.84 96.796 211.952 96.796 213.376V220H95.092V207.376H96.724V209.68C97.172 208.912 97.796 208.32 98.596 207.904C99.396 207.488 100.316 207.28 101.356 207.28C102.412 207.28 103.324 207.504 104.092 207.952C104.876 208.4 105.46 209.064 105.844 209.944C106.308 209.112 106.972 208.464 107.836 208C108.716 207.52 109.716 207.28 110.836 207.28ZM125.397 220.264C123.669 220.264 122.341 219.84 121.413 218.992C120.501 218.128 120.045 216.912 120.045 215.344V207.376H121.749V212.632C122.133 212.168 122.669 211.784 123.357 211.48C124.045 211.176 124.845 211.024 125.757 211.024C127.293 211.024 128.485 211.424 129.333 212.224C130.197 213.008 130.629 214.08 130.629 215.44C130.629 216.384 130.413 217.224 129.981 217.96C129.565 218.68 128.957 219.248 128.157 219.664C127.373 220.064 126.453 220.264 125.397 220.264ZM132.693 207.376H134.397V220H132.693V207.376ZM125.445 218.944C126.533 218.944 127.381 218.624 127.989 217.984C128.597 217.328 128.901 216.496 128.901 215.488C128.901 214.544 128.589 213.784 127.965 213.208C127.341 212.616 126.461 212.32 125.325 212.32C124.493 212.32 123.765 212.496 123.141 212.848C122.533 213.2 122.069 213.688 121.749 214.312V215.464C121.749 216.552 122.061 217.408 122.685 218.032C123.325 218.64 124.245 218.944 125.445 218.944Z" fill="black"/>
<path d="M40.8239 109.415C38.9301 111.261 37.6079 111.261 35.6783 111.876C33.7488 112.491 29.8897 113.262 31.137 114.654C32.7577 116.463 45.5911 113.94 45.9694 115.568C46.4892 117.807 40.2415 119.197 38.9301 119.704C36.2548 120.74 34.4537 120.592 31.8192 121.722C30.886 122.123 27.1797 123.817 28.1652 124.078C29.8283 124.52 40.8239 122.889 40.8239 125.415" stroke="black" stroke-linecap="round" stroke-linejoin="round"/>
<path d="M114.285 112.485C98.3 126.383 58.6027 135.388 27.6953 60.2279" stroke="black" stroke-linecap="round"/>
<path d="M114.285 112.485C117.415 91.5352 107.69 45.9021 27.6953 60.2279" stroke="black" stroke-linecap="round"/>
<path d="M119.559 118.03L114.261 112.662L119.934 115.296L119.559 118.03Z" stroke="black" stroke-linecap="round" stroke-linejoin="round"/>
<path d="M52.3267 73.5336C73.6466 79.3973 98.9852 85.9669 110.929 109.884" stroke="black" stroke-linecap="round"/>
<path d="M107.998 97.4142C105.853 85.9805 101.743 79.8471 99.9565 78.2097" stroke="black" stroke-linecap="round"/>
<path d="M94.8748 88.188C92.7299 76.7543 88.6202 70.6209 86.8335 68.9835" stroke="black" stroke-linecap="round"/>
<path d="M83.5114 79.6674C80.545 70.6917 75.6285 65.733 73.541 64.3755" stroke="black" stroke-linecap="round"/>
<path d="M105.524 108.679C102.588 111.061 93.8795 115.436 82.532 113.88" stroke="black" stroke-linecap="round"/>
<path d="M97.2876 101.051C93.5813 102.709 82.3861 105.505 67.2561 103.43" stroke="black" stroke-linecap="round"/>
<path d="M84.7455 90.976C81.8695 92.1287 73.1623 94.0288 61.342 92.4075" stroke="black" stroke-linecap="round"/>
<path d="M135.386 114.519C139.199 114.558 142.609 113.38 146.302 111.458C149.053 110.027 151.451 108.421 152.263 103.018C152.825 99.275 152.789 95.0775 151.723 91.6962C150.029 86.3219 146.649 84.125 143.529 82.3762C141.288 81.1207 139.094 80.8137 136.746 80.7993C135.954 80.7944 135.142 80.8801 134.408 81.5118C133.658 82.1581 134.176 84.5658 134.67 85.1453C136.7 87.5261 139.618 87.9678 141.996 88.258C145.539 88.6903 149.397 88.993 152.934 88.1855C154.768 87.7667 156.618 86.828 158.331 85.5258C159.224 84.8469 160.314 83.9825 160.905 82.5013C162.769 77.8267 158.884 73.3293 157.175 71.2945C152.397 65.605 146.797 62.1432 141.287 59.3722C134.936 56.1783 128.369 53.8963 121.778 52.7082C114.992 51.4848 108.136 51.6731 101.346 50.4146" stroke="black" stroke-linecap="round" stroke-linejoin="round"/>
<mask id="path-14-inside-1_140_1618" fill="white">
<path fill-rule="evenodd" clip-rule="evenodd" d="M97.3585 37.0277C104.499 40.7094 113.808 41.0347 122.051 37.1702C130.294 33.3059 135.429 26.2086 136.315 18.7646C129.174 15.0829 119.865 14.7576 111.622 18.622C103.38 22.4864 98.2438 29.5837 97.3585 37.0277Z"/>
</mask>
<path fill-rule="evenodd" clip-rule="evenodd" d="M97.3585 37.0277C104.499 40.7094 113.808 41.0347 122.051 37.1702C130.294 33.3059 135.429 26.2086 136.315 18.7646C129.174 15.0829 119.865 14.7576 111.622 18.622C103.38 22.4864 98.2438 29.5837 97.3585 37.0277Z" fill="white"/>
<path d="M97.3585 37.0277L96.2971 36.993L96.23 37.5568L96.7708 37.8356L97.3585 37.0277ZM136.315 18.7646L137.376 18.7993L137.443 18.2355L136.902 17.9567L136.315 18.7646ZM111.622 18.622L112.079 19.4339L111.622 18.622ZM121.594 36.3584C113.705 40.057 104.791 39.7491 97.9462 36.2198L96.7708 37.8356C104.207 41.6697 113.911 42.0124 122.507 37.9821L121.594 36.3584ZM135.253 18.7298C134.405 25.8657 129.483 32.6598 121.594 36.3584L122.507 37.9821C131.104 33.9519 136.454 26.5515 137.376 18.7993L135.253 18.7298ZM112.079 19.4339C119.968 15.7353 128.882 16.0432 135.727 19.5725L136.902 17.9567C129.467 14.1226 119.763 13.7799 111.166 17.8102L112.079 19.4339ZM98.42 37.0625C99.2686 29.9266 104.19 23.1325 112.079 19.4339L111.166 17.8102C102.57 21.8404 97.219 29.2408 96.2971 36.993L98.42 37.0625Z" fill="black" mask="url(#path-14-inside-1_140_1618)"/>
<path d="M135.337 18.958C135.337 18.958 125.096 25.3408 118.051 28.6446C110.625 32.127 98.337 36.1341 98.337 36.1341" stroke="black"/>
<path d="M123.675 19.5857L119.837 27.8157" stroke="black" stroke-linecap="round"/>
<path d="M114.137 22.9579L111.261 31.6047" stroke="black" stroke-linecap="round"/>
<path d="M105.376 28.0239L104.1 34.0662" stroke="black" stroke-linecap="round"/>
<path d="M106.557 34.0319L112.862 35.6643" stroke="black" stroke-linecap="round"/>
<path d="M116.337 29.4579L118.837 30.4579L122.367 32.0879" stroke="black" stroke-linecap="round"/>
<path d="M122.337 26.6942L127.251 26.625" stroke="black" stroke-linecap="round"/>
<path d="M43 36.9146C44.9756 39.5187 50.9846 42.4146 54.3504 42.4146C57.7162 42.4146 61.5 38.5067 61 35.9147C60.4213 32.9147 56.2958 31.7105 54.3504 34.3045C52.405 36.8983 55 39.4146 56.5 40.4146C58 41.4146 59.5 41.9146 62.5 41.9146C65.5 41.9146 68 39.8231 69 37.4147" stroke="black" stroke-linecap="round" stroke-linejoin="round"/>
</svg>
