<svg width="180" height="193" viewBox="0 0 180 193" fill="none" xmlns="http://www.w3.org/2000/svg">
<path d="M46.9531 141.2H59.2411V142.712H48.7051V148.208H54.2011C56.1851 148.208 57.6891 148.616 58.7131 149.432C59.7531 150.248 60.2731 151.432 60.2731 152.984C60.2731 154.6 59.7131 155.84 58.5931 156.704C57.4891 157.568 55.8971 158 53.8171 158H46.9531V141.2ZM53.7931 156.584C55.3451 156.584 56.5131 156.288 57.2971 155.696C58.0971 155.104 58.4971 154.224 58.4971 153.056C58.4971 151.904 58.1051 151.048 57.3211 150.488C56.5531 149.912 55.3771 149.624 53.7931 149.624H48.7051V156.584H53.7931ZM68.9986 158.264C67.2706 158.264 65.9426 157.84 65.0146 156.992C64.1026 156.128 63.6466 154.912 63.6466 153.344V145.376H65.3506V150.632C65.7346 150.168 66.2706 149.784 66.9586 149.48C67.6466 149.176 68.4466 149.024 69.3586 149.024C70.8946 149.024 72.0866 149.424 72.9346 150.224C73.7986 151.008 74.2306 152.08 74.2306 153.44C74.2306 154.384 74.0146 155.224 73.5826 155.96C73.1666 156.68 72.5586 157.248 71.7586 157.664C70.9746 158.064 70.0546 158.264 68.9986 158.264ZM76.2946 145.376H77.9986V158H76.2946V145.376ZM69.0466 156.944C70.1346 156.944 70.9826 156.624 71.5906 155.984C72.1986 155.328 72.5026 154.496 72.5026 153.488C72.5026 152.544 72.1906 151.784 71.5666 151.208C70.9426 150.616 70.0626 150.32 68.9266 150.32C68.0946 150.32 67.3666 150.496 66.7426 150.848C66.1346 151.2 65.6706 151.688 65.3506 152.312V153.464C65.3506 154.552 65.6626 155.408 66.2866 156.032C66.9266 156.64 67.8466 156.944 69.0466 156.944ZM88.1298 158.12C86.8818 158.12 85.7618 157.848 84.7698 157.304C83.7938 156.76 83.0258 156 82.4658 155.024C81.9058 154.032 81.6258 152.92 81.6258 151.688C81.6258 150.456 81.9058 149.352 82.4658 148.376C83.0258 147.4 83.7938 146.64 84.7698 146.096C85.7618 145.552 86.8818 145.28 88.1298 145.28C89.2178 145.28 90.1858 145.496 91.0338 145.928C91.8978 146.344 92.5778 146.96 93.0738 147.776L91.8018 148.64C91.3858 148.016 90.8578 147.552 90.2178 147.248C89.5778 146.928 88.8818 146.768 88.1298 146.768C87.2178 146.768 86.3938 146.976 85.6578 147.392C84.9378 147.792 84.3698 148.368 83.9538 149.12C83.5538 149.872 83.3538 150.728 83.3538 151.688C83.3538 152.664 83.5538 153.528 83.9538 154.28C84.3698 155.016 84.9378 155.592 85.6578 156.008C86.3938 156.408 87.2178 156.608 88.1298 156.608C88.8818 156.608 89.5778 156.456 90.2178 156.152C90.8578 155.848 91.3858 155.384 91.8018 154.76L93.0738 155.624C92.5778 156.44 91.8978 157.064 91.0338 157.496C90.1698 157.912 89.2018 158.12 88.1298 158.12ZM112.117 145.28C113.701 145.28 114.941 145.736 115.837 146.648C116.749 147.56 117.205 148.904 117.205 150.68V158H115.501V150.848C115.501 149.536 115.181 148.536 114.541 147.848C113.917 147.16 113.029 146.816 111.877 146.816C110.565 146.816 109.533 147.224 108.781 148.04C108.029 148.84 107.653 149.952 107.653 151.376V158H105.949V150.848C105.949 149.536 105.629 148.536 104.989 147.848C104.365 147.16 103.469 146.816 102.301 146.816C101.005 146.816 99.9732 147.224 99.2052 148.04C98.4532 148.84 98.0772 149.952 98.0772 151.376V158H96.3732V145.376H98.0052V147.68C98.4532 146.912 99.0772 146.32 99.8772 145.904C100.677 145.488 101.597 145.28 102.637 145.28C103.693 145.28 104.605 145.504 105.373 145.952C106.157 146.4 106.741 147.064 107.125 147.944C107.589 147.112 108.253 146.464 109.117 146C109.997 145.52 110.997 145.28 112.117 145.28ZM127.47 145.28C128.702 145.28 129.798 145.552 130.758 146.096C131.718 146.64 132.462 147.4 132.99 148.376C133.534 149.352 133.806 150.464 133.806 151.712C133.806 152.96 133.542 154.072 133.014 155.048C132.486 156.008 131.75 156.76 130.806 157.304C129.878 157.848 128.814 158.12 127.614 158.12C126.558 158.12 125.614 157.912 124.782 157.496C123.966 157.064 123.302 156.448 122.79 155.648V162.656H121.086V151.736C121.086 150.472 121.35 149.352 121.878 148.376C122.422 147.4 123.174 146.64 124.134 146.096C125.11 145.552 126.222 145.28 127.47 145.28ZM127.422 156.632C128.318 156.632 129.126 156.424 129.846 156.008C130.566 155.592 131.126 155.008 131.526 154.256C131.926 153.504 132.126 152.656 132.126 151.712C132.126 150.768 131.926 149.92 131.526 149.168C131.126 148.416 130.566 147.832 129.846 147.416C129.126 146.984 128.318 146.768 127.422 146.768C126.526 146.768 125.718 146.976 124.998 147.392C124.294 147.808 123.742 148.392 123.342 149.144C122.958 149.88 122.766 150.728 122.766 151.688C122.766 152.648 122.958 153.504 123.342 154.256C123.742 155.008 124.294 155.592 124.998 156.008C125.718 156.424 126.526 156.632 127.422 156.632ZM148.955 145.376V158H147.323V155.504C146.811 156.352 146.131 157 145.283 157.448C144.451 157.896 143.507 158.12 142.451 158.12C141.267 158.12 140.195 157.848 139.235 157.304C138.275 156.76 137.523 156 136.979 155.024C136.435 154.048 136.163 152.936 136.163 151.688C136.163 150.44 136.435 149.328 136.979 148.352C137.523 147.376 138.275 146.624 139.235 146.096C140.195 145.552 141.267 145.28 142.451 145.28C143.475 145.28 144.395 145.496 145.211 145.928C146.043 146.344 146.723 146.96 147.251 147.776V145.376H148.955ZM142.595 156.608C143.475 156.608 144.267 156.408 144.971 156.008C145.691 155.592 146.251 155.008 146.651 154.256C147.067 153.504 147.275 152.648 147.275 151.688C147.275 150.728 147.067 149.872 146.651 149.12C146.251 148.368 145.691 147.792 144.971 147.392C144.267 146.976 143.475 146.768 142.595 146.768C141.699 146.768 140.891 146.976 140.171 147.392C139.467 147.792 138.907 148.368 138.491 149.12C138.091 149.872 137.891 150.728 137.891 151.688C137.891 152.648 138.091 153.504 138.491 154.256C138.907 155.008 139.467 155.592 140.171 156.008C140.891 156.408 141.699 156.608 142.595 156.608ZM163.444 145.376V158H161.884V153.824H157.924H157.444L154.516 158H152.668L155.812 153.584C154.836 153.312 154.084 152.848 153.556 152.192C153.028 151.536 152.764 150.704 152.764 149.696C152.764 148.288 153.244 147.216 154.204 146.48C155.164 145.744 156.476 145.376 158.14 145.376H163.444ZM154.492 149.744C154.492 151.616 155.684 152.552 158.068 152.552H161.884V146.888H158.188C155.724 146.888 154.492 147.84 154.492 149.744ZM53.4747 174.376V185.464C53.4747 187.608 52.9467 189.192 51.8907 190.216C50.8507 191.256 49.2747 191.776 47.1627 191.776C45.9947 191.776 44.8827 191.6 43.8267 191.248C42.7867 190.912 41.9387 190.44 41.2827 189.832L42.1467 188.536C42.7547 189.08 43.4907 189.504 44.3547 189.808C45.2347 190.112 46.1547 190.264 47.1147 190.264C48.7147 190.264 49.8907 189.888 50.6427 189.136C51.3947 188.4 51.7707 187.248 51.7707 185.68V184.072C51.2427 184.872 50.5467 185.48 49.6827 185.896C48.8347 186.312 47.8907 186.52 46.8507 186.52C45.6667 186.52 44.5867 186.264 43.6107 185.752C42.6507 185.224 41.8907 184.496 41.3307 183.568C40.7867 182.624 40.5147 181.56 40.5147 180.376C40.5147 179.192 40.7867 178.136 41.3307 177.208C41.8907 176.28 42.6507 175.56 43.6107 175.048C44.5707 174.536 45.6507 174.28 46.8507 174.28C47.9227 174.28 48.8907 174.496 49.7547 174.928C50.6187 175.36 51.3147 175.984 51.8427 176.8V174.376H53.4747ZM47.0187 185.008C47.9307 185.008 48.7547 184.816 49.4907 184.432C50.2267 184.032 50.7947 183.48 51.1947 182.776C51.6107 182.072 51.8187 181.272 51.8187 180.376C51.8187 179.48 51.6107 178.688 51.1947 178C50.7947 177.296 50.2267 176.752 49.4907 176.368C48.7707 175.968 47.9467 175.768 47.0187 175.768C46.1067 175.768 45.2827 175.96 44.5467 176.344C43.8267 176.728 43.2587 177.272 42.8427 177.976C42.4427 178.68 42.2427 179.48 42.2427 180.376C42.2427 181.272 42.4427 182.072 42.8427 182.776C43.2587 183.48 43.8267 184.032 44.5467 184.432C45.2827 184.816 46.1067 185.008 47.0187 185.008ZM63.5422 187.12C62.3262 187.12 61.2302 186.848 60.2542 186.304C59.2782 185.744 58.5102 184.976 57.9502 184C57.3902 183.024 57.1102 181.92 57.1102 180.688C57.1102 179.456 57.3902 178.352 57.9502 177.376C58.5102 176.4 59.2782 175.64 60.2542 175.096C61.2302 174.552 62.3262 174.28 63.5422 174.28C64.7582 174.28 65.8542 174.552 66.8302 175.096C67.8062 175.64 68.5662 176.4 69.1102 177.376C69.6702 178.352 69.9502 179.456 69.9502 180.688C69.9502 181.92 69.6702 183.024 69.1102 184C68.5662 184.976 67.8062 185.744 66.8302 186.304C65.8542 186.848 64.7582 187.12 63.5422 187.12ZM63.5422 185.608C64.4382 185.608 65.2382 185.408 65.9422 185.008C66.6622 184.592 67.2222 184.008 67.6222 183.256C68.0222 182.504 68.2222 181.648 68.2222 180.688C68.2222 179.728 68.0222 178.872 67.6222 178.12C67.2222 177.368 66.6622 176.792 65.9422 176.392C65.2382 175.976 64.4382 175.768 63.5422 175.768C62.6462 175.768 61.8382 175.976 61.1182 176.392C60.4142 176.792 59.8542 177.368 59.4382 178.12C59.0382 178.872 58.8382 179.728 58.8382 180.688C58.8382 181.648 59.0382 182.504 59.4382 183.256C59.8542 184.008 60.4142 184.592 61.1182 185.008C61.8382 185.408 62.6462 185.608 63.5422 185.608ZM78.872 187.12C77.624 187.12 76.504 186.848 75.512 186.304C74.536 185.76 73.768 185 73.208 184.024C72.648 183.032 72.368 181.92 72.368 180.688C72.368 179.456 72.648 178.352 73.208 177.376C73.768 176.4 74.536 175.64 75.512 175.096C76.504 174.552 77.624 174.28 78.872 174.28C79.96 174.28 80.928 174.496 81.776 174.928C82.64 175.344 83.32 175.96 83.816 176.776L82.544 177.64C82.128 177.016 81.6 176.552 80.96 176.248C80.32 175.928 79.624 175.768 78.872 175.768C77.96 175.768 77.136 175.976 76.4 176.392C75.68 176.792 75.112 177.368 74.696 178.12C74.296 178.872 74.096 179.728 74.096 180.688C74.096 181.664 74.296 182.528 74.696 183.28C75.112 184.016 75.68 184.592 76.4 185.008C77.136 185.408 77.96 185.608 78.872 185.608C79.624 185.608 80.32 185.456 80.96 185.152C81.6 184.848 82.128 184.384 82.544 183.76L83.816 184.624C83.32 185.44 82.64 186.064 81.776 186.496C80.912 186.912 79.944 187.12 78.872 187.12ZM102.859 174.28C104.443 174.28 105.683 174.736 106.579 175.648C107.491 176.56 107.947 177.904 107.947 179.68V187H106.243V179.848C106.243 178.536 105.923 177.536 105.283 176.848C104.659 176.16 103.771 175.816 102.619 175.816C101.307 175.816 100.275 176.224 99.5234 177.04C98.7714 177.84 98.3954 178.952 98.3954 180.376V187H96.6914V179.848C96.6914 178.536 96.3714 177.536 95.7314 176.848C95.1074 176.16 94.2114 175.816 93.0434 175.816C91.7474 175.816 90.7154 176.224 89.9474 177.04C89.1954 177.84 88.8194 178.952 88.8194 180.376V187H87.1154V174.376H88.7474V176.68C89.1954 175.912 89.8194 175.32 90.6194 174.904C91.4194 174.488 92.3394 174.28 93.3794 174.28C94.4354 174.28 95.3474 174.504 96.1154 174.952C96.8994 175.4 97.4834 176.064 97.8674 176.944C98.3314 176.112 98.9954 175.464 99.8594 175C100.739 174.52 101.739 174.28 102.859 174.28ZM123.876 174.376V187H122.244V184.504C121.732 185.352 121.052 186 120.204 186.448C119.372 186.896 118.428 187.12 117.372 187.12C116.188 187.12 115.116 186.848 114.156 186.304C113.196 185.76 112.444 185 111.9 184.024C111.356 183.048 111.084 181.936 111.084 180.688C111.084 179.44 111.356 178.328 111.9 177.352C112.444 176.376 113.196 175.624 114.156 175.096C115.116 174.552 116.188 174.28 117.372 174.28C118.396 174.28 119.316 174.496 120.132 174.928C120.964 175.344 121.644 175.96 122.172 176.776V174.376H123.876ZM117.516 185.608C118.396 185.608 119.188 185.408 119.892 185.008C120.612 184.592 121.172 184.008 121.572 183.256C121.988 182.504 122.196 181.648 122.196 180.688C122.196 179.728 121.988 178.872 121.572 178.12C121.172 177.368 120.612 176.792 119.892 176.392C119.188 175.976 118.396 175.768 117.516 175.768C116.62 175.768 115.812 175.976 115.092 176.392C114.388 176.792 113.828 177.368 113.412 178.12C113.012 178.872 112.812 179.728 112.812 180.688C112.812 181.648 113.012 182.504 113.412 183.256C113.828 184.008 114.388 184.592 115.092 185.008C115.812 185.408 116.62 185.608 117.516 185.608ZM136.71 180.472C138.422 180.872 139.278 181.904 139.278 183.568C139.278 184.672 138.87 185.52 138.054 186.112C137.238 186.704 136.022 187 134.406 187H128.67V174.376H134.238C135.678 174.376 136.806 174.656 137.622 175.216C138.438 175.776 138.846 176.576 138.846 177.616C138.846 178.304 138.654 178.896 138.27 179.392C137.902 179.872 137.382 180.232 136.71 180.472ZM130.326 179.992H134.118C135.094 179.992 135.838 179.808 136.35 179.44C136.878 179.072 137.142 178.536 137.142 177.832C137.142 177.128 136.878 176.6 136.35 176.248C135.838 175.896 135.094 175.72 134.118 175.72H130.326V179.992ZM134.334 185.656C135.422 185.656 136.238 185.48 136.782 185.128C137.326 184.776 137.598 184.224 137.598 183.472C137.598 182.72 137.35 182.168 136.854 181.816C136.358 181.448 135.574 181.264 134.502 181.264H130.326V185.656H134.334ZM147.856 181.384H144.976V187H143.272V174.376H144.976V179.92H147.88L152.32 174.376H154.168L149.2 180.496L154.528 187H152.512L147.856 181.384ZM168.244 174.376V187H166.612V184.504C166.1 185.352 165.42 186 164.572 186.448C163.74 186.896 162.796 187.12 161.74 187.12C160.556 187.12 159.484 186.848 158.524 186.304C157.564 185.76 156.812 185 156.268 184.024C155.724 183.048 155.452 181.936 155.452 180.688C155.452 179.44 155.724 178.328 156.268 177.352C156.812 176.376 157.564 175.624 158.524 175.096C159.484 174.552 160.556 174.28 161.74 174.28C162.764 174.28 163.684 174.496 164.5 174.928C165.332 175.344 166.012 175.96 166.54 176.776V174.376H168.244ZM161.884 185.608C162.764 185.608 163.556 185.408 164.26 185.008C164.98 184.592 165.54 184.008 165.94 183.256C166.356 182.504 166.564 181.648 166.564 180.688C166.564 179.728 166.356 178.872 165.94 178.12C165.54 177.368 164.98 176.792 164.26 176.392C163.556 175.976 162.764 175.768 161.884 175.768C160.988 175.768 160.18 175.976 159.46 176.392C158.756 176.792 158.196 177.368 157.78 178.12C157.38 178.872 157.18 179.728 157.18 180.688C157.18 181.648 157.38 182.504 157.78 183.256C158.196 184.008 158.756 184.592 159.46 185.008C160.18 185.408 160.988 185.608 161.884 185.608Z" fill="black"/>
<path d="M165.694 44.1563C164.276 40.9137 149.606 30.8912 149.606 30.8912C153.758 32.4493 162.788 37.2837 165.694 44.1563Z" stroke="black" stroke-linecap="round" stroke-linejoin="round"/>
<path d="M74.9762 27.2275C98.0606 28.8443 115.457 42.4718 121.27 49.0832C105.389 35.5655 77.6749 30.2596 74.0421 29.3753C71.1358 28.6678 64.1814 29.67 61.0674 30.2596C52.9713 28.8699 68.2294 26.755 74.9762 27.2275Z" stroke="black" stroke-linecap="round" stroke-linejoin="round"/>
<path d="M167.978 58.5583C171.05 58.7604 174.517 56.7896 175.867 55.779L176.074 46.8093C176.178 46.5566 176.199 46.2281 175.451 46.9356C174.704 47.6431 169.812 48.4937 167.459 48.8306C167.459 52.1153 167.148 58.5037 167.978 58.5583Z" stroke="black" stroke-linecap="round" stroke-linejoin="round"/>
<path d="M51.1031 67.7806V65.1276L32.3159 53.3786V56.0316L51.1031 67.7806Z" stroke="black" stroke-linecap="round" stroke-linejoin="round"/>
<path d="M35.3258 68.4123L47.7814 74.35L34.9106 65.3803L35.3258 68.4123Z" stroke="black" stroke-linecap="round" stroke-linejoin="round"/>
<path d="M110.578 90.1417C112.073 86.4022 111.201 80.8351 110.578 78.519C101.479 77.2978 82.9062 75.2849 81.4115 77.003C79.9169 78.7211 82.0343 84.7094 83.2799 87.4887C91.7566 89.9312 109.084 93.8812 110.578 90.1417Z" stroke="black" stroke-linecap="round" stroke-linejoin="round"/>
<path d="M120.231 91.1524C116.744 90.6471 115.526 82.0985 115.353 77.8874L130.196 76.3714V83.446L165.383 77.8874L166.006 71.5707L170.78 70.8127L170.365 77.8874C170.199 81.5258 167.805 83.1092 166.629 83.446C152.616 86.2254 123.719 91.6577 120.231 91.1524Z" stroke="black" stroke-linecap="round" stroke-linejoin="round"/>
<path d="M130.923 81.0457L131.442 71.1917L165.383 67.2753L164.761 76.3714L130.923 81.0457Z" stroke="black" stroke-linecap="round" stroke-linejoin="round"/>
<path d="M172.753 69.9283L177.112 67.4016C177.008 69.5072 176.697 74.3247 176.282 76.7503C175.867 79.1759 173.064 81.0456 171.715 81.6773L172.753 69.9283Z" stroke="black" stroke-linecap="round" stroke-linejoin="round"/>
<path d="M52.6601 49.0833C52.8331 49.3781 52.6601 51.989 52.6601 51.989C52.6601 52.1574 52.5978 52.4943 52.3487 52.4943C52.0996 52.4943 51.6201 51.8458 51.4145 51.231C51.1055 50.3068 51.3938 49.1086 51.7259 48.7043C52.0581 48.3001 52.4871 48.7885 52.6601 49.0833Z" stroke="black" stroke-linecap="round" stroke-linejoin="round"/>
<path d="M38.9588 35.4392C39.5313 35.6092 39.9225 36.0525 39.8395 37.1643C39.8395 37.5854 39.9968 38.4713 38.8015 38.4276C37.6062 38.3839 37.7694 38.3643 37.4522 37.7959C37.0849 37.1379 37.3987 36.4889 37.6598 35.7746C37.9209 35.0603 38.3863 35.2693 38.9588 35.4392Z" stroke="black" stroke-linecap="round" stroke-linejoin="round"/>
<path d="M31.3818 33.9232C31.278 33.0389 30.24 33.0389 30.1362 33.5442C30.0325 34.0496 29.6209 34.7243 29.9287 35.3129C30.172 35.7783 30.3438 35.9446 30.9666 35.9446C31.5894 35.9446 31.4856 34.8075 31.3818 33.9232Z" stroke="black" stroke-linecap="round" stroke-linejoin="round"/>
<path d="M42.1765 10.0462C42.7993 8.27755 47.6777 4.48754 47.9891 4.36121L42.9031 18.7632C40.7234 18.6369 39.9968 19.7739 39.374 20.5319C38.4811 21.6187 38.0246 24.5746 37.9209 25.5853L37.9174 25.6185C37.8374 26.396 37.8286 26.4819 38.6474 27.3539C37.8171 27.1013 37.7133 27.1013 36.6753 27.1013C37.4019 20.6582 41.5537 11.8149 42.1765 10.0462Z" stroke="black" stroke-linecap="round" stroke-linejoin="round"/>
<path d="M34.1841 26.3432L35.741 26.7222C36.606 23.7323 38.6266 16.8429 39.7891 13.2045C38.4605 14.3163 35.4988 22.4269 34.1841 26.3432Z" stroke="black" stroke-linecap="round" stroke-linejoin="round"/>
<path d="M53.2827 6.50884C53.1097 5.75084 52.1824 4.15904 49.8574 3.85583L44.46 18.6369H47.7815C51.0199 18.6369 51.2067 24.1955 50.9991 26.2169L53.2827 20.2792V6.50884Z" stroke="black" stroke-linecap="round" stroke-linejoin="round"/>
<path d="M57.0195 4.10851C56.8534 16.6408 58.7495 24.743 59.7182 27.2276C71.4265 23.8924 112.343 24.4061 131.338 25.0799L107.257 5.62452C106.98 3.85584 96.5453 1.0765 57.0195 4.10851Z" stroke="black" stroke-linecap="round" stroke-linejoin="round"/>
<path d="M107.672 3.98218C98.289 -0.0604984 68.0565 0.865948 54.1131 1.83451C49.6291 1.2281 43.5951 6.55096 41.1386 9.28819C38.8896 13.2888 33.8313 22.3006 31.5893 26.3432C28.5999 28.7688 27.5066 32.5757 27.3336 34.1759V43.6509C27.2298 45.6723 27.3128 51.2562 28.4754 57.4213C29.3057 69.4483 30.8973 71.5286 31.5893 71.0653H38.0246L55.9815 84.583C55.9469 85.5095 56.2721 88.3478 57.8498 92.2894C59.8219 97.2164 62.9358 99.4904 63.87 99.9957C64.8042 100.501 70.9282 99.7431 74.8724 98.8587C78.8167 97.9744 76.118 97.2164 77.675 97.8481C78.9205 98.3534 92.0335 98.0586 98.4343 97.8481C106.738 97.5112 126.937 96.1805 141.302 93.5527C159.259 90.268 177.527 82.8144 178.773 81.551C179.769 80.5404 179.465 79.7824 179.188 79.5297L177.112 75.7397L178.046 67.0227C178.773 66.012 178.773 66.012 178.773 65.0013L179.188 57.5476C175.763 56.158 177.112 56.158 177.112 47.0619C177.112 37.9659 147.668 28.6172 133.621 25.8379C128.881 20.2371 117.055 8.02485 107.672 3.98218Z" stroke="black" stroke-linecap="round" stroke-linejoin="round"/>
<path d="M133.707 19.556C132.358 18.1201 129.351 18.9577 128.016 19.556L133.707 25.8379C134.269 24.3422 135.056 20.9919 133.707 19.556Z" stroke="black" stroke-linecap="round" stroke-linejoin="round"/>
<path d="M31.2975 57.6886C31.3837 60.6741 31.3226 63.3747 31.1561 65.3249C31.0726 66.3033 30.9639 67.0749 30.8396 67.5943C30.8389 67.5973 30.8382 67.6003 30.8374 67.6032C30.8366 67.6003 30.8357 67.5974 30.8348 67.5945C30.6808 67.0871 30.528 66.3266 30.3883 65.3577C30.1098 63.4265 29.8932 60.7379 29.807 57.7524C29.7209 54.7668 29.7819 52.0663 29.9484 50.1161C30.032 49.1376 30.1406 48.366 30.2649 47.8467C30.2656 47.8437 30.2664 47.8407 30.2671 47.8378C30.268 47.8407 30.2688 47.8436 30.2697 47.8465C30.4237 48.3539 30.5765 49.1144 30.7163 50.0833C30.9948 52.0145 31.2114 54.7031 31.2975 57.6886Z" stroke="black" stroke-linecap="round" stroke-linejoin="round"/>
<path d="M67.1068 79.2771C67.1068 84.5973 66.6875 88.8736 65.8976 91.8039C65.5019 93.2718 65.0226 94.3652 64.4845 95.0812C63.9524 95.7892 63.4 96.0848 62.8322 96.0848C62.6309 96.0848 62.3454 95.9714 61.9767 95.6189C61.6145 95.2727 61.2254 94.7456 60.8246 94.0471C60.0246 92.6529 59.2262 90.6614 58.5171 88.3153C57.0997 83.6257 56.0664 77.6106 56.0664 72.3287C56.0664 67.0006 56.4351 63.1759 57.1685 60.6979C57.5351 59.4593 57.9811 58.599 58.4818 58.0551C58.9681 57.5267 59.5104 57.2897 60.1335 57.2897C60.3594 57.2897 60.6566 57.3991 61.0248 57.7035C61.3895 58.0049 61.7831 58.4648 62.1905 59.0786C63.0044 60.3048 63.8254 62.072 64.5584 64.1935C66.0234 68.4335 67.1068 74.0002 67.1068 79.2771Z" stroke="black" stroke-linecap="round" stroke-linejoin="round"/>
<path d="M119.609 63.6116L122.412 54.0103C123.159 51.4499 95.2515 51.6801 81.2043 52.1153C77.9866 54.0103 74.9045 60.0303 77.0525 61.464C80.2701 63.6116 107.257 64.117 119.609 63.6116Z" stroke="black" stroke-linecap="round" stroke-linejoin="round"/>
<path d="M121.062 63.1063L143.69 60.9587C146.077 59.6953 145.35 56.7897 145.454 55.5263C145.537 54.5157 144.312 53.0839 143.69 52.4943L123.657 54.0103L121.062 63.1063Z" stroke="black" stroke-linecap="round" stroke-linejoin="round"/>
<path d="M166.836 58.0529L166.421 50.7256H166.421C161.75 50.7256 151.993 50.7256 149.606 52.2416C146.747 54.0568 145.973 59.4005 146.077 60.8323L166.836 58.0529Z" stroke="black" stroke-linecap="round" stroke-linejoin="round"/>
<path d="M31.6261 72.6133C31.6261 72.6133 45.8885 88.0141 57.5154 91.8503C69.1423 95.6865 85.6752 85.0001 107.297 89.3523C128.047 93.529 148.723 118.456 148.723 118.456" stroke="black"/>
<mask id="path-26-inside-1_140_1610" fill="white">
<path fill-rule="evenodd" clip-rule="evenodd" d="M100.927 87.9896C102.869 80.665 101.27 72.0114 96.0229 65.1802C90.7754 58.3492 83.178 55.0317 76.1274 55.7052C74.1856 63.0299 75.7838 71.6835 81.0313 78.5147C86.2788 85.3457 93.8762 88.6631 100.927 87.9896Z"/>
</mask>
<path fill-rule="evenodd" clip-rule="evenodd" d="M100.927 87.9896C102.869 80.665 101.27 72.0114 96.0229 65.1802C90.7754 58.3492 83.178 55.0317 76.1274 55.7052C74.1856 63.0299 75.7838 71.6835 81.0313 78.5147C86.2788 85.3457 93.8762 88.6631 100.927 87.9896Z" fill="white"/>
<path d="M100.927 87.9896L101.121 89.0334L101.687 88.9793L101.843 88.3914L100.927 87.9896ZM76.1274 55.7052L75.933 54.6615L75.3671 54.7155L75.2113 55.3034L76.1274 55.7052ZM95.328 65.7982C100.338 72.3197 101.867 80.5843 100.011 87.5878L101.843 88.3914C103.87 80.7457 102.203 71.703 96.7177 64.5621L95.328 65.7982ZM76.3217 56.749C83.0632 56.105 90.3185 59.2769 95.328 65.7982L96.7177 64.5621C91.2324 57.4214 83.2928 53.9584 75.933 54.6615L76.3217 56.749ZM81.7262 77.8966C76.7166 71.3751 75.1868 63.1105 77.0434 56.1071L75.2113 55.3034C73.1844 62.9492 74.851 71.9918 80.3365 79.1327L81.7262 77.8966ZM100.732 86.9459C93.991 87.5899 86.7357 84.4179 81.7262 77.8966L80.3365 79.1327C85.8218 86.2735 93.7614 89.7364 101.121 89.0334L100.732 86.9459Z" fill="black" mask="url(#path-26-inside-1_140_1610)"/>
<path d="M77.4615 56.9309C77.4615 56.9309 85.1145 64.8103 89.4152 70.4431C93.9484 76.3806 99.8934 86.5495 99.8934 86.5495" stroke="black"/>
<path d="M79.4058 66.9417L87.7841 68.8353" stroke="black" stroke-linecap="round"/>
<path d="M84.645 74.9951L93.2118 75.9179" stroke="black" stroke-linecap="round"/>
<path d="M90.9824 82.3956L96.8192 82.3636" stroke="black" stroke-linecap="round"/>
<path d="M96.2864 80.1033L96.5072 73.9598" stroke="black" stroke-linecap="round"/>
<path d="M91.2357 71.0798L91.268 65.9072" stroke="black" stroke-linecap="round"/>
<path d="M86.5294 65.2863L85.4633 60.7663" stroke="black" stroke-linecap="round"/>
<mask id="path-35-inside-2_140_1610" fill="white">
<path fill-rule="evenodd" clip-rule="evenodd" d="M129.406 101.516C134.741 97.4515 137.604 90.0559 136.339 81.5626C135.074 73.0695 129.996 65.5815 123.429 61.3775C118.093 65.4425 115.231 72.8381 116.496 81.3314C117.76 89.8245 122.839 97.3125 129.406 101.516Z"/>
</mask>
<path fill-rule="evenodd" clip-rule="evenodd" d="M129.406 101.516C134.741 97.4515 137.604 90.0559 136.339 81.5626C135.074 73.0695 129.996 65.5815 123.429 61.3775C118.093 65.4425 115.231 72.8381 116.496 81.3314C117.76 89.8245 122.839 97.3125 129.406 101.516Z" fill="white"/>
<path d="M129.406 101.517L129.008 102.367L129.587 102.737L130.058 102.379L129.406 101.517ZM123.429 61.3776L123.827 60.5277L123.247 60.1568L122.777 60.5154L123.429 61.3776ZM116.496 81.3315L117.456 81.3427L116.496 81.3315ZM135.379 81.5515C136.593 89.7043 133.842 96.7775 128.753 100.654L130.058 102.379C135.641 98.1256 138.615 90.4078 137.3 81.5739L135.379 81.5515ZM123.032 62.2276C129.295 66.2369 134.165 73.3989 135.379 81.5515L137.3 81.5739C135.984 72.7403 130.697 64.9262 123.827 60.5277L123.032 62.2276ZM117.456 81.3427C116.242 73.1899 118.993 66.1167 124.082 62.2398L122.777 60.5154C117.194 64.7685 114.22 72.4864 115.535 81.3203L117.456 81.3427ZM129.803 100.667C123.54 96.6573 118.67 89.4953 117.456 81.3427L115.535 81.3203C116.851 90.1539 122.138 97.968 129.008 102.367L129.803 100.667Z" fill="black" mask="url(#path-35-inside-2_140_1610)"/>
<path d="M124.004 63.1634C124.004 63.1634 126.878 74.0257 127.898 81.0114C128.972 88.3749 129.205 99.7745 129.205 99.7745" stroke="black"/>
<path d="M120.777 71.7817L127.249 78.7482" stroke="black" stroke-linecap="round"/>
<path d="M121.43 81.1638L128.549 87.5455" stroke="black" stroke-linecap="round"/>
<path d="M123.377 90.7995L128.554 94.6642" stroke="black" stroke-linecap="round"/>
<path d="M129.2 92.6556L132.43 88.3082" stroke="black" stroke-linecap="round"/>
<path d="M129.192 82.6892L131.776 78.9266" stroke="black" stroke-linecap="round"/>
<path d="M127.894 75.316L129.184 71.299" stroke="black" stroke-linecap="round"/>
<mask id="path-44-inside-3_140_1610" fill="white">
<path fill-rule="evenodd" clip-rule="evenodd" d="M44.8678 58.9335C51.7938 59.4072 58.8302 63.6128 63.2107 70.6663C67.5913 77.7198 68.2316 85.8748 65.5707 92.2684C58.6447 91.7946 51.6083 87.589 47.2278 80.5355C42.8472 73.4821 42.207 65.3271 44.8678 58.9335Z"/>
</mask>
<path fill-rule="evenodd" clip-rule="evenodd" d="M44.8678 58.9335C51.7938 59.4072 58.8302 63.6128 63.2107 70.6663C67.5913 77.7198 68.2316 85.8748 65.5707 92.2684C58.6447 91.7946 51.6083 87.589 47.2278 80.5355C42.8472 73.4821 42.207 65.3271 44.8678 58.9335Z" fill="white"/>
<path d="M44.8678 58.9335L44.8077 57.9074L44.205 57.8661L43.9734 58.4226L44.8678 58.9335ZM65.5707 92.2684L65.6308 93.2945L66.2335 93.3357L66.4651 92.7793L65.5707 92.2684ZM44.928 59.9595C51.529 60.4111 58.2409 64.4203 62.4223 71.1532L63.9991 70.1795C59.4194 62.8054 52.0587 58.4034 44.8077 57.9074L44.928 59.9595ZM62.4223 71.1532C66.6038 77.886 67.2123 85.6639 64.6762 91.7575L66.4651 92.7793C69.2508 86.0856 68.5788 77.5536 63.9991 70.1795L62.4223 71.1532ZM65.5106 91.2423C58.9095 90.7907 52.1976 86.7816 48.0162 80.0487L46.4394 81.0223C51.0191 88.3964 58.3798 92.7984 65.6308 93.2945L65.5106 91.2423ZM48.0162 80.0487C43.8348 73.3158 43.2262 65.538 45.7623 59.4443L43.9734 58.4226C41.1877 65.1162 41.8597 73.6483 46.4394 81.0223L48.0162 80.0487Z" fill="black" mask="url(#path-44-inside-3_140_1610)"/>
<path d="M46.0357 60.2595C46.0357 60.2595 52.6443 68.6426 56.2308 74.4546C60.0113 80.5811 64.7176 90.7927 64.7176 90.7927" stroke="black"/>
<path d="M46.8691 69.7084L54.8148 72.7335" stroke="black" stroke-linecap="round"/>
<path d="M51.1123 77.8771L59.3437 80.0441" stroke="black" stroke-linecap="round"/>
<path d="M56.4927 85.6197L62.1707 86.4923" stroke="black" stroke-linecap="round"/>
<path d="M61.8911 84.3444L62.7543 78.7642" stroke="black" stroke-linecap="round"/>
<path d="M57.9331 75.3172L58.5106 70.5951" stroke="black" stroke-linecap="round"/>
<path d="M53.9698 69.2959L53.4104 65.0005" stroke="black" stroke-linecap="round"/>
<mask id="path-53-inside-4_140_1610" fill="white">
<path fill-rule="evenodd" clip-rule="evenodd" d="M32.8636 75.4207C34.3782 68.7505 32.6831 61.0116 27.7763 55.0474C22.8696 49.0832 15.9663 46.3702 9.67444 47.2333C8.15977 53.9035 9.85495 61.6424 14.7617 67.6067C19.6684 73.5708 26.5717 76.2838 32.8636 75.4207Z"/>
</mask>
<path fill-rule="evenodd" clip-rule="evenodd" d="M32.8636 75.4207C34.3782 68.7505 32.6831 61.0116 27.7763 55.0474C22.8696 49.0832 15.9663 46.3702 9.67444 47.2333C8.15977 53.9035 9.85495 61.6424 14.7617 67.6067C19.6684 73.5708 26.5717 76.2838 32.8636 75.4207Z" fill="white"/>
<path d="M32.8636 75.4207L33.0951 76.4596L33.6551 76.3828L33.7899 75.7892L32.8636 75.4207ZM9.67444 47.2333L9.4429 46.1944L8.88293 46.2712L8.74812 46.8649L9.67444 47.2333ZM27.106 55.6942C31.7639 61.356 33.3782 68.7068 31.9373 75.0522L33.7899 75.7892C35.3783 68.7943 33.6022 60.6672 28.4466 54.4005L27.106 55.6942ZM9.90597 48.2723C15.8915 47.4512 22.4481 50.0324 27.106 55.6942L28.4466 54.4005C23.2911 48.1339 16.0411 45.2893 9.4429 46.1944L9.90597 48.2723ZM15.432 66.9598C10.7741 61.298 9.15982 53.9472 10.6007 47.6018L8.74812 46.8649C7.15972 53.8597 8.93584 61.9868 14.0914 68.2535L15.432 66.9598ZM32.632 74.3817C26.6465 75.2028 20.0899 72.6216 15.432 66.9598L14.0914 68.2535C19.2469 74.5201 26.4969 77.3647 33.0951 76.4596L32.632 74.3817Z" fill="black" mask="url(#path-53-inside-4_140_1610)"/>
<path d="M10.9068 48.2882C10.9068 48.2882 17.9992 55.1094 22.0216 60.0284C26.2616 65.2134 31.8947 74.1597 31.8947 74.1597" stroke="black"/>
<path d="M12.9521 57.238L20.5111 58.6397" stroke="black" stroke-linecap="round"/>
<path d="M17.8892 64.3035L25.5871 64.8236" stroke="black" stroke-linecap="round"/>
<path d="M23.7891 70.7416L29.0138 70.5007" stroke="black" stroke-linecap="round"/>
<path d="M28.4675 68.4833L28.4775 62.9399" stroke="black" stroke-linecap="round"/>
<path d="M23.6701 60.536L23.5411 55.8742" stroke="black" stroke-linecap="round"/>
<path d="M19.2797 55.4874L18.1871 51.4535" stroke="black" stroke-linecap="round"/>
<mask id="path-62-inside-5_140_1610" fill="white">
<path fill-rule="evenodd" clip-rule="evenodd" d="M46.3286 83.3459C46.0877 90.2863 42.6085 96.4854 36.5903 99.3302C30.5723 102.175 23.5056 100.961 17.8872 96.7909C18.1281 89.8505 21.6074 83.6515 27.6255 80.8066C33.6435 77.9619 40.7103 79.1755 46.3286 83.3459Z"/>
</mask>
<path fill-rule="evenodd" clip-rule="evenodd" d="M46.3286 83.3459C46.0877 90.2863 42.6085 96.4854 36.5903 99.3302C30.5723 102.175 23.5056 100.961 17.8872 96.7909C18.1281 89.8505 21.6074 83.6515 27.6255 80.8066C33.6435 77.9619 40.7103 79.1755 46.3286 83.3459Z" fill="white"/>
<path d="M46.3286 83.3459L47.2873 83.4989L47.3087 82.8826L46.8098 82.5123L46.3286 83.3459ZM17.8872 96.7909L16.9285 96.6379L16.9071 97.2542L17.406 97.6245L17.8872 96.7909ZM45.3699 83.1929C45.1408 89.7949 41.8331 95.6753 36.1269 98.3727L37.0538 100.288C43.3838 97.2954 47.0347 90.7777 47.2873 83.4989L45.3699 83.1929ZM36.1269 98.3727C30.4209 101.07 23.7128 99.9243 18.3684 95.9572L17.406 97.6245C23.2983 101.998 30.7238 103.28 37.0538 100.288L36.1269 98.3727ZM18.8459 96.9439C19.075 90.3419 22.3828 84.4615 28.0889 81.7642L27.1621 79.8491C20.832 82.8414 17.1812 89.3591 16.9285 96.6379L18.8459 96.9439ZM28.0889 81.7642C33.7949 79.0669 40.503 80.2125 45.8475 84.1796L46.8098 82.5123C40.9175 78.1386 33.492 76.8569 27.1621 79.8491L28.0889 81.7642Z" fill="black" mask="url(#path-62-inside-5_140_1610)"/>
<path d="M19.0094 95.905C19.0094 95.905 26.1274 91.0968 31.0869 88.7761C36.3146 86.33 45.0675 83.876 45.0675 83.876" stroke="black"/>
<path d="M27.1953 97.2188L29.6269 89.8243" stroke="black" stroke-linecap="round"/>
<path d="M34.186 94.7686L35.8653 86.887" stroke="black" stroke-linecap="round"/>
<path d="M40.7778 91.064L41.3958 85.4849" stroke="black" stroke-linecap="round"/>
<path d="M39.5369 85.2785L34.6692 83.1236" stroke="black" stroke-linecap="round"/>
<path d="M31.7942 87.2417L27.6788 85.5738" stroke="black" stroke-linecap="round"/>
<path d="M26.6626 89.8983L22.9458 89.485" stroke="black" stroke-linecap="round"/>
<mask id="path-71-inside-6_140_1610" fill="white">
<path fill-rule="evenodd" clip-rule="evenodd" d="M91.123 87.5529C85.0522 87.2535 79.3489 90.4755 76.3509 96.6808C73.353 102.886 73.8027 110.538 76.9547 116.879C83.0255 117.178 88.7288 113.956 91.7268 107.751C94.7247 101.546 94.275 93.8938 91.123 87.5529Z"/>
</mask>
<path fill-rule="evenodd" clip-rule="evenodd" d="M91.123 87.5529C85.0522 87.2535 79.3489 90.4755 76.3509 96.6808C73.353 102.886 73.8027 110.538 76.9547 116.879C83.0255 117.178 88.7288 113.956 91.7268 107.751C94.7247 101.546 94.275 93.8938 91.123 87.5529Z" fill="white"/>
<path d="M91.123 87.553L91.9322 87.1582L91.6186 86.5272L91.0144 86.4974L91.123 87.553ZM76.9546 116.879L76.1454 117.274L76.459 117.905L77.0632 117.935L76.9546 116.879ZM91.7267 107.751L90.879 107.141L91.7267 107.751ZM77.1986 97.2912C80.0551 91.3785 85.4805 88.3249 91.2315 88.6085L91.0144 86.4974C84.6239 86.1822 78.6425 89.5726 75.5032 96.0705L77.1986 97.2912ZM77.7639 116.484C74.7779 110.477 74.342 103.204 77.1986 97.2912L75.5032 96.0705C72.3639 102.568 72.8274 110.599 76.1454 117.274L77.7639 116.484ZM90.879 107.141C88.0225 113.054 82.5971 116.107 76.8461 115.824L77.0632 117.935C83.4537 118.25 89.4351 114.859 92.5744 108.362L90.879 107.141ZM90.3137 87.9477C93.2997 93.9547 93.7356 101.228 90.879 107.141L92.5744 108.362C95.7137 101.864 95.2502 93.833 91.9322 87.1582L90.3137 87.9477Z" fill="black" mask="url(#path-71-inside-6_140_1610)"/>
<path d="M77.3429 115.405C77.3429 115.405 80.1968 106.778 82.6788 101.685C85.295 96.3171 90.4621 88.7947 90.4621 88.7947" stroke="black"/>
<path d="M83.9053 111.591L82.1234 103.51" stroke="black" stroke-linecap="round"/>
<path d="M87.7969 105.145L85.2363 97.0882" stroke="black" stroke-linecap="round"/>
<path d="M90.7983 97.8232L88.5722 92.4675" stroke="black" stroke-linecap="round"/>
<path d="M87.1268 93.4156L82.5663 94.4579" stroke="black" stroke-linecap="round"/>
<path d="M82.4559 99.8842L78.6741 100.903" stroke="black" stroke-linecap="round"/>
<path d="M80.0105 105.381L77.1187 107.277" stroke="black" stroke-linecap="round"/>
<mask id="path-80-inside-7_140_1610" fill="white">
<path fill-rule="evenodd" clip-rule="evenodd" d="M118.562 93.4781C111.829 93.1532 105.496 96.6814 102.16 103.473C98.8228 110.264 99.3073 118.636 102.791 125.573C109.525 125.898 115.857 122.37 119.194 115.579C122.53 108.787 122.046 100.415 118.562 93.4781Z"/>
</mask>
<path fill-rule="evenodd" clip-rule="evenodd" d="M118.562 93.4781C111.829 93.1532 105.496 96.6814 102.16 103.473C98.8228 110.264 99.3073 118.636 102.791 125.573C109.525 125.898 115.857 122.37 119.194 115.579C122.53 108.787 122.046 100.415 118.562 93.4781Z" fill="white"/>
<path d="M118.562 93.4781L119.377 93.0811L119.063 92.4573L118.458 92.4281L118.562 93.4781ZM102.791 125.573L101.976 125.97L102.29 126.594L102.895 126.623L102.791 125.573ZM103.011 104.078C106.204 97.5797 112.254 94.2188 118.666 94.5282L118.458 92.4281C111.403 92.0876 104.789 95.783 101.308 102.868L103.011 104.078ZM103.606 125.176C100.289 118.57 99.8183 110.575 103.011 104.078L101.308 102.868C97.8274 109.952 98.3261 118.702 101.976 125.97L103.606 125.176ZM118.342 114.973C115.15 121.471 109.099 124.832 102.687 124.523L102.895 126.623C109.95 126.964 116.564 123.268 120.045 116.184L118.342 114.973ZM117.747 93.8751C121.065 100.481 121.535 108.476 118.342 114.973L120.045 116.184C123.526 109.099 123.027 100.349 119.377 93.0811L117.747 93.8751Z" fill="black" mask="url(#path-80-inside-7_140_1610)"/>
<path d="M103.226 123.96C103.226 123.96 106.408 114.519 109.17 108.945C112.082 103.07 117.827 94.8368 117.827 94.8368" stroke="black"/>
<path d="M110.512 119.783L108.55 110.942" stroke="black" stroke-linecap="round"/>
<path d="M114.84 112.729L112.015 103.914" stroke="black" stroke-linecap="round"/>
<path d="M118.183 104.715L115.724 98.8563" stroke="black" stroke-linecap="round"/>
<path d="M114.119 99.8943L109.058 101.037" stroke="black" stroke-linecap="round"/>
<path d="M108.926 106.975L104.729 108.091" stroke="black" stroke-linecap="round"/>
<path d="M106.203 112.991L102.992 115.066" stroke="black" stroke-linecap="round"/>
</svg>
