<svg width="254" height="97" viewBox="0 0 254 97" fill="none" xmlns="http://www.w3.org/2000/svg">
<path d="M244.682 18.5411L241.463 17.6945C241.256 17.6395 241.036 17.637 240.827 17.6874C240.618 17.7377 240.427 17.8391 240.275 17.9808L239.488 18.7166C239.325 18.8689 239.118 18.9734 238.891 19.0172C238.664 19.061 238.428 19.0421 238.213 18.9629C236.692 18.398 233.488 15.7874 232.67 14.4806C232.555 14.296 232.503 14.084 232.519 13.8717C232.536 13.6595 232.621 13.4566 232.763 13.2892L233.45 12.4734C233.582 12.3171 233.666 12.1305 233.692 11.9337C233.718 11.7368 233.686 11.5371 233.598 11.3559L232.245 8.54836C232.168 8.39144 232.054 8.25305 231.909 8.14407C231.765 8.0351 231.595 7.95851 231.414 7.92032C231.232 7.88213 231.043 7.88339 230.862 7.92399C230.681 7.96459 230.512 8.04343 230.37 8.15432C229.472 8.85159 228.405 9.90905 228.277 11.0835C228.048 13.1507 229.015 15.7566 232.672 18.8874C236.897 22.5031 240.282 22.9818 242.483 22.4908C243.733 22.2137 244.733 21.1009 245.362 20.1912C245.462 20.0467 245.524 19.8824 245.544 19.7116C245.563 19.5408 245.538 19.3682 245.472 19.2077C245.406 19.0472 245.3 18.9033 245.163 18.7875C245.026 18.6717 244.861 18.5873 244.682 18.5411Z" fill="white"/>
<path d="M235.805 0.0193211C226.955 0.404131 219.973 7.16139 220 15.2839C220.004 17.6748 220.624 20.0305 221.808 22.1566L220.045 30.0083C220.024 30.1065 220.029 30.2081 220.061 30.3037C220.094 30.3993 220.152 30.4859 220.23 30.5554C220.308 30.6249 220.404 30.6751 220.508 30.7013C220.613 30.7276 220.723 30.7291 220.828 30.7056L229.218 28.8831C231.441 29.8973 233.88 30.44 236.358 30.4716C245.403 30.5994 252.943 24.0145 253.225 15.7257C253.528 6.83661 245.53 -0.407048 235.805 0.0177816V0.0193211ZM245.817 23.6728C244.608 24.7855 243.172 25.667 241.594 26.2666C240.015 26.8661 238.324 27.1721 236.617 27.1669C234.608 27.1726 232.626 26.7468 230.827 25.9232L229.658 25.389L224.513 26.5065L225.597 21.6872L225.02 20.6528C224.085 18.9793 223.6 17.1224 223.607 15.2393C223.607 12.0531 224.96 9.05619 227.417 6.80428C229.865 4.56577 233.171 3.30966 236.617 3.30867C240.093 3.30867 243.36 4.5493 245.817 6.80274C247.027 7.90428 247.988 9.21757 248.642 10.6659C249.296 12.1142 249.632 13.6684 249.628 15.2378C249.628 18.3963 248.253 21.4409 245.817 23.6743V23.6728Z" fill="white"/>
<path d="M121.301 25.5653L121.767 19.0543L134.567 8.4029C135.134 7.92574 134.451 7.69486 133.701 8.11045L117.901 17.3304L111.067 15.3294C109.601 14.9446 109.584 14.0057 111.401 13.3284L138.017 3.8468C139.234 3.33885 140.401 4.12386 139.934 5.84779L135.401 25.5653C135.084 26.966 134.167 27.3046 132.901 26.6581L126.001 21.9481L122.684 24.9188C122.301 25.2728 121.984 25.5653 121.301 25.5653Z" fill="white"/>
<path d="M14.6542 0.92334C12.2792 0.92334 6.40419 1.15423 3.27919 3.9249C1.0292 5.88745 0.154197 8.88901 0.0291969 12.4678C-0.220803 18.1246 1.1542 21.7033 3.40419 23.5505C3.90419 23.8968 5.15419 24.8203 7.52919 25.513V28.3991C7.52919 28.3991 7.52919 29.5536 8.27919 29.7845C8.40419 29.7845 8.52919 29.8999 8.65419 29.8999C9.40419 29.8999 10.0292 29.0918 10.9042 28.2837C11.6542 27.4756 12.2792 26.8983 12.6542 26.3211H15.4042C17.7792 26.3211 23.6542 26.0902 26.7792 23.3196C29.0292 21.2416 29.9042 18.24 29.9042 14.4303C30.0292 13.8531 30.0292 13.1605 30.0292 12.4678C29.9042 8.19634 28.5292 5.31023 26.6542 3.69401C25.9042 3.11678 22.6542 0.92334 15.6542 0.92334H14.6542ZM14.4042 3.11678H15.5292C22.1542 3.11678 24.6542 5.07934 24.9042 5.31023C26.4042 6.46467 27.2792 9.00445 27.4042 12.3523V12.8141C27.5292 13.5068 27.5292 14.084 27.5292 14.4303C27.4042 17.8937 26.6542 20.2026 25.1542 21.7033C22.5292 23.8968 17.0292 24.0122 15.5292 24.0122H13.1542L11.1542 26.0902L9.90419 27.3601L9.65419 27.7065C9.40419 27.9373 9.02919 28.3991 8.77919 28.5146V23.3196C6.27919 22.7423 5.27919 21.9342 5.02919 21.7033C3.27919 20.318 2.2792 16.9701 2.5292 12.4678V11.3133C2.77919 8.54267 3.52919 6.69556 4.77919 5.42567C7.40419 3.23223 12.9042 3.11678 14.4042 3.11678ZM14.2792 5.65656C13.6542 5.65656 13.6542 6.46467 14.2792 6.46467C18.9042 6.46467 22.9042 9.35079 22.9042 14.7767C22.9042 15.3539 23.7792 15.3539 23.7792 14.7767C23.7792 8.88901 19.5292 5.54112 14.2792 5.65656ZM9.32544 6.72442C9.04222 6.69308 8.75694 6.76516 8.53044 6.9253C7.28044 7.50252 6.02919 8.65927 6.40419 9.92916C6.40419 9.92916 6.65419 10.967 8.02919 13.1605C8.77919 14.1995 9.40419 15.123 10.0292 15.8157C10.6542 16.6238 11.6542 17.5473 12.6542 18.24C14.6542 19.7408 17.7792 21.2416 19.1542 21.5879C20.4042 21.9342 21.7792 20.7798 22.4042 19.6253C22.6542 19.1636 22.5292 18.5863 22.0292 18.24C21.2792 17.5473 20.0292 16.7392 19.1542 16.2775C18.5292 15.9311 17.7792 16.162 17.5292 16.5083L16.9042 17.201C16.6542 17.5473 16.0292 17.5473 16.0292 17.5473C11.9042 16.5083 10.7792 12.5832 10.7792 12.5832C10.7792 12.5832 10.7792 12.1215 11.1542 11.7751L11.9042 11.1979C12.2792 10.967 12.5292 10.2743 12.1542 9.69712C11.9042 9.35079 11.5292 8.65812 11.1542 8.31179C10.7792 7.85001 10.0292 7.0419 10.0292 7.0419C9.83954 6.86651 9.59181 6.75475 9.32544 6.72442ZM15.1542 7.96545C14.5292 7.85001 14.4042 8.77356 15.0292 8.77356C18.5292 9.00445 20.5292 11.1979 20.4042 13.9686C20.2792 14.5458 21.2792 14.5458 21.2792 13.9686C21.4042 10.7361 19.1542 8.0809 15.1542 7.96545ZM15.5292 10.1589C14.9042 10.0435 14.9042 10.967 15.5292 10.967C17.0292 10.967 17.7792 11.7751 17.7792 13.1605C17.9042 13.7377 18.7792 13.7377 18.7792 13.1605C18.6542 11.3133 17.5292 10.1589 15.5292 10.1589Z" fill="white"/>
<path d="M254 92.4304V66.5716C254 64.5398 252.194 62.8774 249.99 62.8774H222.01C219.71 62.8774 218 64.453 218 66.5716V92.4304C218 94.5508 219.71 96.1245 222.01 96.1245H249.99C251.051 96.1231 252.069 95.7337 252.82 95.0415C253.572 94.3493 253.996 93.4105 254 92.4304ZM246.368 82.4692C246.368 82.4692 248.632 84.5324 249.19 85.4891C249.206 85.5095 249.212 85.5279 249.218 85.5353C249.444 85.8863 249.502 86.1633 249.388 86.3665C249.2 86.7045 248.56 86.8744 248.342 86.8892H244.344C244.064 86.8892 243.484 86.8227 242.78 86.3739C242.24 86.0266 241.706 85.4522 241.186 84.8925C240.41 84.0614 239.738 83.341 239.062 83.341C238.976 83.3408 238.891 83.3539 238.81 83.3798C238.296 83.5313 237.644 84.2054 237.644 86.0063C237.644 86.5697 237.164 86.8911 236.824 86.8911H234.992C234.368 86.8911 231.118 86.6897 228.24 83.884C224.708 80.4485 221.536 73.5571 221.508 73.4962C221.308 73.051 221.722 72.8091 222.172 72.8091H226.212C226.754 72.8091 226.928 73.112 227.052 73.3835C227.192 73.692 227.72 74.9369 228.584 76.337C229.99 78.6144 230.856 79.5416 231.546 79.5416C231.675 79.5409 231.802 79.5098 231.914 79.4511C232.816 78.9912 232.648 76.0211 232.608 75.4079C232.608 75.2915 232.606 74.0799 232.146 73.498C231.814 73.0769 231.252 72.9162 230.912 72.8553C231.051 72.6788 231.233 72.5357 231.444 72.4378C232.062 72.1534 233.176 72.1127 234.284 72.1127H234.9C236.102 72.1275 236.414 72.1996 236.848 72.3011C237.726 72.4951 237.744 73.0215 237.666 74.8131C237.644 75.3229 237.62 75.9011 237.62 76.5789C237.62 76.7248 237.614 76.8855 237.614 77.0518C237.586 77.9679 237.554 79.0041 238.254 79.4289C238.345 79.4813 238.449 79.5094 238.556 79.5102C238.8 79.5102 239.53 79.5102 241.508 76.3758C242.378 74.9923 243.048 73.3595 243.094 73.2376C243.164 73.1058 243.265 72.9903 243.39 72.8996C243.492 72.8504 243.607 72.8257 243.722 72.8276H248.472C248.992 72.8276 249.344 72.8996 249.41 73.0824C249.524 73.3761 249.388 74.272 247.218 76.9797L246.252 78.1619C244.284 80.5409 244.284 80.6628 246.368 82.4692Z" fill="white"/>
<path d="M137.333 65.6479H110.667C110.225 65.6479 109.801 65.8101 109.488 66.0988C109.176 66.3874 109 66.7789 109 67.1872V91.8148C109 92.223 109.176 92.6145 109.488 92.9032C109.801 93.1918 110.225 93.354 110.667 93.354H125.025V82.641H121.128V78.4466H125.025V75.3682C125.025 71.7895 127.392 69.8393 130.858 69.8393C132.023 69.8362 133.19 69.8916 134.35 70.004V73.7289H131.958C130.078 73.7289 129.712 74.557 129.712 75.7684V78.4389H134.207L133.623 82.6333H129.71V93.354H137.333C137.775 93.354 138.199 93.1918 138.512 92.9032C138.824 92.6145 139 92.223 139 91.8148V67.1872C139 66.7789 138.824 66.3874 138.512 66.0988C138.199 65.8101 137.775 65.6479 137.333 65.6479Z" fill="white"/>
<path d="M23.0075 73.7681C24.0016 73.7681 24.8075 73.0238 24.8075 72.1057C24.8075 71.1876 24.0016 70.4434 23.0075 70.4434C22.0134 70.4434 21.2075 71.1876 21.2075 72.1057C21.2075 73.0238 22.0134 73.7681 23.0075 73.7681Z" fill="white"/>
<path d="M14.9999 72.3872C13.4765 72.3872 11.9873 72.8044 10.7206 73.5861C9.45392 74.3677 8.46667 75.4787 7.88369 76.7785C7.3007 78.0783 7.14817 79.5086 7.44537 80.8885C7.74257 82.2684 8.47616 83.5359 9.55338 84.5308C10.6306 85.5256 12.0031 86.2031 13.4972 86.4776C14.9913 86.752 16.5401 86.6112 17.9475 86.0728C19.355 85.5344 20.5579 84.6226 21.4043 83.4528C22.2506 82.283 22.7024 80.9077 22.7024 79.5007C22.7024 77.6141 21.8909 75.8048 20.4464 74.4707C19.0019 73.1367 17.0427 72.3872 14.9999 72.3872ZM14.9999 84.1184C14.011 84.1184 13.0443 83.8476 12.222 83.3402C11.3998 82.8328 10.7589 82.1116 10.3805 81.2678C10.002 80.4241 9.90302 79.4956 10.0959 78.5999C10.2889 77.7041 10.7651 76.8813 11.4643 76.2355C12.1636 75.5898 13.0545 75.15 14.0244 74.9718C14.9943 74.7936 15.9997 74.8851 16.9133 75.2346C17.8269 75.5841 18.6078 76.1759 19.1572 76.9353C19.7066 77.6947 19.9999 78.5874 19.9999 79.5007C19.9999 80.7254 19.4731 81.8999 18.5354 82.7659C17.5977 83.6319 16.326 84.1184 14.9999 84.1184Z" fill="white"/>
<path d="M15 68.1438C19.005 68.1438 19.48 68.1577 21.0613 68.2246C22.0123 68.235 22.9543 68.3963 23.8462 68.7014C24.4933 68.9319 25.081 69.285 25.5714 69.7379C26.0618 70.1908 26.4441 70.7336 26.6937 71.3312C27.0241 72.1549 27.1987 73.0249 27.21 73.9032C27.2825 75.3635 27.2975 75.8022 27.2975 79.5021C27.2975 83.202 27.2825 83.6384 27.21 85.0988C27.1987 85.9771 27.0241 86.8471 26.6937 87.6708C26.4441 88.2684 26.0618 88.8111 25.5714 89.264C25.081 89.717 24.4933 90.07 23.8462 90.3006C22.9543 90.6056 22.0123 90.7669 21.0613 90.7773C19.48 90.8443 19.005 90.8581 15 90.8581C10.995 90.8581 10.52 90.8443 8.93875 90.7773C7.9877 90.7669 7.04566 90.6056 6.15375 90.3006C5.50667 90.07 4.91902 89.717 4.4286 89.264C3.93818 88.8111 3.55587 88.2684 3.30625 87.6708C2.97591 86.8471 2.80129 85.9771 2.79 85.0988C2.7175 83.6384 2.7025 83.1997 2.7025 79.501C2.7025 75.8022 2.7175 75.3635 2.79 73.9032C2.80129 73.0249 2.97591 72.1549 3.30625 71.3312C3.55587 70.7336 3.93818 70.1908 4.4286 69.7379C4.91902 69.285 5.50667 68.9319 6.15375 68.7014C7.04566 68.3963 7.9877 68.235 8.93875 68.2246C10.52 68.1577 10.995 68.1438 15 68.1438ZM15 65.6479C10.9262 65.6479 10.415 65.6641 8.815 65.7311C7.57097 65.7543 6.3402 65.9721 5.175 66.3752C4.1784 66.7311 3.27332 67.2754 2.51777 67.9732C1.76222 68.671 1.17287 69.5069 0.7875 70.4272C0.350823 71.5037 0.114979 72.6408 0.09 73.7901C0.0175 75.2677 0 75.7376 0 79.501C0 83.2644 0.0175 83.7354 0.09 85.213C0.11512 86.3619 0.350962 87.4986 0.7875 88.5747C1.17287 89.4951 1.76222 90.331 2.51777 91.0288C3.27332 91.7265 4.1784 92.2708 5.175 92.6267C6.34059 93.03 7.5718 93.2478 8.81625 93.2709C10.4163 93.3378 10.9262 93.354 15 93.354C19.0737 93.354 19.585 93.3378 21.185 93.2709C22.4295 93.2478 23.6607 93.03 24.8263 92.6267C25.8228 92.2708 26.7279 91.7265 27.4835 91.0288C28.239 90.331 28.8284 89.4951 29.2138 88.5747C29.65 87.4982 29.8854 86.3611 29.91 85.2119C29.9825 83.7342 30 83.2644 30 79.501C30 75.7376 29.9825 75.2666 29.91 73.7889C29.8849 72.64 29.649 71.5033 29.2125 70.4272C28.8271 69.5069 28.2378 68.671 27.4822 67.9732C26.7267 67.2754 25.8216 66.7311 24.825 66.3752C23.6593 65.9723 22.4281 65.7549 21.1838 65.7322C19.5837 65.663 19.075 65.6479 15 65.6479Z" fill="white"/>
</svg>
